<?xml version="1.0" encoding="utf-8" standalone="no"?>
<!DOCTYPE svg PUBLIC "-//W3C//DTD SVG 1.1//EN"
  "http://www.w3.org/Graphics/SVG/1.1/DTD/svg11.dtd">
<svg xmlns:xlink="http://www.w3.org/1999/xlink" width="720pt" height="216pt" viewBox="0 0 720 216" xmlns="http://www.w3.org/2000/svg" version="1.1">
 <metadata>
  <rdf:RDF xmlns:dc="http://purl.org/dc/elements/1.1/" xmlns:cc="http://creativecommons.org/ns#" xmlns:rdf="http://www.w3.org/1999/02/22-rdf-syntax-ns#">
   <cc:Work>
    <dc:type rdf:resource="http://purl.org/dc/dcmitype/StillImage"/>
    <dc:date>2023-02-21T17:29:38.952501</dc:date>
    <dc:format>image/svg+xml</dc:format>
    <dc:creator>
     <cc:Agent>
      <dc:title>Matplotlib v3.6.2, https://matplotlib.org/</dc:title>
     </cc:Agent>
    </dc:creator>
   </cc:Work>
  </rdf:RDF>
 </metadata>
 <defs>
  <style type="text/css">*{stroke-linejoin: round; stroke-linecap: butt}</style>
 </defs>
 <g id="figure_1">
  <g id="patch_1">
   <path d="M 0 216 
L 720 216 
L 720 0 
L 0 0 
z
" style="fill: #ffffff"/>
  </g>
  <g id="axes_1">
   <g id="patch_2">
    <path d="M 90 192.24 
L 343.636364 192.24 
L 343.636364 25.92 
L 90 25.92 
z
" style="fill: #ffffff"/>
   </g>
   <g id="matplotlib.axis_1">
    <g id="xtick_1">
     <g id="line2d_1">
      <defs>
       <path id="m903b250602" d="M 0 0 
L 0 3.5 
" style="stroke: #000000; stroke-width: 0.8"/>
      </defs>
      <g>
       <use xlink:href="#m903b250602" x="112.269376" y="192.24" style="stroke: #000000; stroke-width: 0.8"/>
      </g>
     </g>
     <g id="text_1">
      <!-- 0.45 -->
      <g transform="translate(101.136563 206.838437) scale(0.1 -0.1)">
       <defs>
        <path id="DejaVuSans-30" d="M 2034 4250 
Q 1547 4250 1301 3770 
Q 1056 3291 1056 2328 
Q 1056 1369 1301 889 
Q 1547 409 2034 409 
Q 2525 409 2770 889 
Q 3016 1369 3016 2328 
Q 3016 3291 2770 3770 
Q 2525 4250 2034 4250 
z
M 2034 4750 
Q 2819 4750 3233 4129 
Q 3647 3509 3647 2328 
Q 3647 1150 3233 529 
Q 2819 -91 2034 -91 
Q 1250 -91 836 529 
Q 422 1150 422 2328 
Q 422 3509 836 4129 
Q 1250 4750 2034 4750 
z
" transform="scale(0.015625)"/>
        <path id="DejaVuSans-2e" d="M 684 794 
L 1344 794 
L 1344 0 
L 684 0 
L 684 794 
z
" transform="scale(0.015625)"/>
        <path id="DejaVuSans-34" d="M 2419 4116 
L 825 1625 
L 2419 1625 
L 2419 4116 
z
M 2253 4666 
L 3047 4666 
L 3047 1625 
L 3713 1625 
L 3713 1100 
L 3047 1100 
L 3047 0 
L 2419 0 
L 2419 1100 
L 313 1100 
L 313 1709 
L 2253 4666 
z
" transform="scale(0.015625)"/>
        <path id="DejaVuSans-35" d="M 691 4666 
L 3169 4666 
L 3169 4134 
L 1269 4134 
L 1269 2991 
Q 1406 3038 1543 3061 
Q 1681 3084 1819 3084 
Q 2600 3084 3056 2656 
Q 3513 2228 3513 1497 
Q 3513 744 3044 326 
Q 2575 -91 1722 -91 
Q 1428 -91 1123 -41 
Q 819 9 494 109 
L 494 744 
Q 775 591 1075 516 
Q 1375 441 1709 441 
Q 2250 441 2565 725 
Q 2881 1009 2881 1497 
Q 2881 1984 2565 2268 
Q 2250 2553 1709 2553 
Q 1456 2553 1204 2497 
Q 953 2441 691 2322 
L 691 4666 
z
" transform="scale(0.015625)"/>
       </defs>
       <use xlink:href="#DejaVuSans-30"/>
       <use xlink:href="#DejaVuSans-2e" x="63.623047"/>
       <use xlink:href="#DejaVuSans-34" x="95.410156"/>
       <use xlink:href="#DejaVuSans-35" x="159.033203"/>
      </g>
     </g>
    </g>
    <g id="xtick_2">
     <g id="line2d_2">
      <g>
       <use xlink:href="#m903b250602" x="161.485007" y="192.24" style="stroke: #000000; stroke-width: 0.8"/>
      </g>
     </g>
     <g id="text_2">
      <!-- 0.50 -->
      <g transform="translate(150.352195 206.838437) scale(0.1 -0.1)">
       <use xlink:href="#DejaVuSans-30"/>
       <use xlink:href="#DejaVuSans-2e" x="63.623047"/>
       <use xlink:href="#DejaVuSans-35" x="95.410156"/>
       <use xlink:href="#DejaVuSans-30" x="159.033203"/>
      </g>
     </g>
    </g>
    <g id="xtick_3">
     <g id="line2d_3">
      <g>
       <use xlink:href="#m903b250602" x="210.700639" y="192.24" style="stroke: #000000; stroke-width: 0.8"/>
      </g>
     </g>
     <g id="text_3">
      <!-- 0.55 -->
      <g transform="translate(199.567826 206.838437) scale(0.1 -0.1)">
       <use xlink:href="#DejaVuSans-30"/>
       <use xlink:href="#DejaVuSans-2e" x="63.623047"/>
       <use xlink:href="#DejaVuSans-35" x="95.410156"/>
       <use xlink:href="#DejaVuSans-35" x="159.033203"/>
      </g>
     </g>
    </g>
    <g id="xtick_4">
     <g id="line2d_4">
      <g>
       <use xlink:href="#m903b250602" x="259.91627" y="192.24" style="stroke: #000000; stroke-width: 0.8"/>
      </g>
     </g>
     <g id="text_4">
      <!-- 0.60 -->
      <g transform="translate(248.783458 206.838437) scale(0.1 -0.1)">
       <defs>
        <path id="DejaVuSans-36" d="M 2113 2584 
Q 1688 2584 1439 2293 
Q 1191 2003 1191 1497 
Q 1191 994 1439 701 
Q 1688 409 2113 409 
Q 2538 409 2786 701 
Q 3034 994 3034 1497 
Q 3034 2003 2786 2293 
Q 2538 2584 2113 2584 
z
M 3366 4563 
L 3366 3988 
Q 3128 4100 2886 4159 
Q 2644 4219 2406 4219 
Q 1781 4219 1451 3797 
Q 1122 3375 1075 2522 
Q 1259 2794 1537 2939 
Q 1816 3084 2150 3084 
Q 2853 3084 3261 2657 
Q 3669 2231 3669 1497 
Q 3669 778 3244 343 
Q 2819 -91 2113 -91 
Q 1303 -91 875 529 
Q 447 1150 447 2328 
Q 447 3434 972 4092 
Q 1497 4750 2381 4750 
Q 2619 4750 2861 4703 
Q 3103 4656 3366 4563 
z
" transform="scale(0.015625)"/>
       </defs>
       <use xlink:href="#DejaVuSans-30"/>
       <use xlink:href="#DejaVuSans-2e" x="63.623047"/>
       <use xlink:href="#DejaVuSans-36" x="95.410156"/>
       <use xlink:href="#DejaVuSans-30" x="159.033203"/>
      </g>
     </g>
    </g>
    <g id="xtick_5">
     <g id="line2d_5">
      <g>
       <use xlink:href="#m903b250602" x="309.131902" y="192.24" style="stroke: #000000; stroke-width: 0.8"/>
      </g>
     </g>
     <g id="text_5">
      <!-- 0.65 -->
      <g transform="translate(297.999089 206.838437) scale(0.1 -0.1)">
       <use xlink:href="#DejaVuSans-30"/>
       <use xlink:href="#DejaVuSans-2e" x="63.623047"/>
       <use xlink:href="#DejaVuSans-36" x="95.410156"/>
       <use xlink:href="#DejaVuSans-35" x="159.033203"/>
      </g>
     </g>
    </g>
    <g id="text_6">
     <!-- Loss -->
     <g transform="translate(205.850994 220.516562) scale(0.1 -0.1)">
      <defs>
       <path id="DejaVuSans-4c" d="M 628 4666 
L 1259 4666 
L 1259 531 
L 3531 531 
L 3531 0 
L 628 0 
L 628 4666 
z
" transform="scale(0.015625)"/>
       <path id="DejaVuSans-6f" d="M 1959 3097 
Q 1497 3097 1228 2736 
Q 959 2375 959 1747 
Q 959 1119 1226 758 
Q 1494 397 1959 397 
Q 2419 397 2687 759 
Q 2956 1122 2956 1747 
Q 2956 2369 2687 2733 
Q 2419 3097 1959 3097 
z
M 1959 3584 
Q 2709 3584 3137 3096 
Q 3566 2609 3566 1747 
Q 3566 888 3137 398 
Q 2709 -91 1959 -91 
Q 1206 -91 779 398 
Q 353 888 353 1747 
Q 353 2609 779 3096 
Q 1206 3584 1959 3584 
z
" transform="scale(0.015625)"/>
       <path id="DejaVuSans-73" d="M 2834 3397 
L 2834 2853 
Q 2591 2978 2328 3040 
Q 2066 3103 1784 3103 
Q 1356 3103 1142 2972 
Q 928 2841 928 2578 
Q 928 2378 1081 2264 
Q 1234 2150 1697 2047 
L 1894 2003 
Q 2506 1872 2764 1633 
Q 3022 1394 3022 966 
Q 3022 478 2636 193 
Q 2250 -91 1575 -91 
Q 1294 -91 989 -36 
Q 684 19 347 128 
L 347 722 
Q 666 556 975 473 
Q 1284 391 1588 391 
Q 1994 391 2212 530 
Q 2431 669 2431 922 
Q 2431 1156 2273 1281 
Q 2116 1406 1581 1522 
L 1381 1569 
Q 847 1681 609 1914 
Q 372 2147 372 2553 
Q 372 3047 722 3315 
Q 1072 3584 1716 3584 
Q 2034 3584 2315 3537 
Q 2597 3491 2834 3397 
z
" transform="scale(0.015625)"/>
      </defs>
      <use xlink:href="#DejaVuSans-4c"/>
      <use xlink:href="#DejaVuSans-6f" x="53.962891"/>
      <use xlink:href="#DejaVuSans-73" x="115.144531"/>
      <use xlink:href="#DejaVuSans-73" x="167.244141"/>
     </g>
    </g>
   </g>
   <g id="matplotlib.axis_2">
    <g id="ytick_1">
     <g id="line2d_6">
      <defs>
       <path id="m69a4318d9b" d="M 0 0 
L -3.5 0 
" style="stroke: #000000; stroke-width: 0.8"/>
      </defs>
      <g>
       <use xlink:href="#m69a4318d9b" x="90" y="192.24" style="stroke: #000000; stroke-width: 0.8"/>
      </g>
     </g>
     <g id="text_7">
      <!-- 0 -->
      <g transform="translate(76.6375 196.039219) scale(0.1 -0.1)">
       <use xlink:href="#DejaVuSans-30"/>
      </g>
     </g>
    </g>
    <g id="ytick_2">
     <g id="line2d_7">
      <g>
       <use xlink:href="#m69a4318d9b" x="90" y="150.922375" style="stroke: #000000; stroke-width: 0.8"/>
      </g>
     </g>
     <g id="text_8">
      <!-- 2 -->
      <g transform="translate(76.6375 154.721594) scale(0.1 -0.1)">
       <defs>
        <path id="DejaVuSans-32" d="M 1228 531 
L 3431 531 
L 3431 0 
L 469 0 
L 469 531 
Q 828 903 1448 1529 
Q 2069 2156 2228 2338 
Q 2531 2678 2651 2914 
Q 2772 3150 2772 3378 
Q 2772 3750 2511 3984 
Q 2250 4219 1831 4219 
Q 1534 4219 1204 4116 
Q 875 4013 500 3803 
L 500 4441 
Q 881 4594 1212 4672 
Q 1544 4750 1819 4750 
Q 2544 4750 2975 4387 
Q 3406 4025 3406 3419 
Q 3406 3131 3298 2873 
Q 3191 2616 2906 2266 
Q 2828 2175 2409 1742 
Q 1991 1309 1228 531 
z
" transform="scale(0.015625)"/>
       </defs>
       <use xlink:href="#DejaVuSans-32"/>
      </g>
     </g>
    </g>
    <g id="ytick_3">
     <g id="line2d_8">
      <g>
       <use xlink:href="#m69a4318d9b" x="90" y="109.60475" style="stroke: #000000; stroke-width: 0.8"/>
      </g>
     </g>
     <g id="text_9">
      <!-- 4 -->
      <g transform="translate(76.6375 113.403969) scale(0.1 -0.1)">
       <use xlink:href="#DejaVuSans-34"/>
      </g>
     </g>
    </g>
    <g id="ytick_4">
     <g id="line2d_9">
      <g>
       <use xlink:href="#m69a4318d9b" x="90" y="68.287125" style="stroke: #000000; stroke-width: 0.8"/>
      </g>
     </g>
     <g id="text_10">
      <!-- 6 -->
      <g transform="translate(76.6375 72.086344) scale(0.1 -0.1)">
       <use xlink:href="#DejaVuSans-36"/>
      </g>
     </g>
    </g>
    <g id="ytick_5">
     <g id="line2d_10">
      <g>
       <use xlink:href="#m69a4318d9b" x="90" y="26.9695" style="stroke: #000000; stroke-width: 0.8"/>
      </g>
     </g>
     <g id="text_11">
      <!-- 8 -->
      <g transform="translate(76.6375 30.768719) scale(0.1 -0.1)">
       <defs>
        <path id="DejaVuSans-38" d="M 2034 2216 
Q 1584 2216 1326 1975 
Q 1069 1734 1069 1313 
Q 1069 891 1326 650 
Q 1584 409 2034 409 
Q 2484 409 2743 651 
Q 3003 894 3003 1313 
Q 3003 1734 2745 1975 
Q 2488 2216 2034 2216 
z
M 1403 2484 
Q 997 2584 770 2862 
Q 544 3141 544 3541 
Q 544 4100 942 4425 
Q 1341 4750 2034 4750 
Q 2731 4750 3128 4425 
Q 3525 4100 3525 3541 
Q 3525 3141 3298 2862 
Q 3072 2584 2669 2484 
Q 3125 2378 3379 2068 
Q 3634 1759 3634 1313 
Q 3634 634 3220 271 
Q 2806 -91 2034 -91 
Q 1263 -91 848 271 
Q 434 634 434 1313 
Q 434 1759 690 2068 
Q 947 2378 1403 2484 
z
M 1172 3481 
Q 1172 3119 1398 2916 
Q 1625 2713 2034 2713 
Q 2441 2713 2670 2916 
Q 2900 3119 2900 3481 
Q 2900 3844 2670 4047 
Q 2441 4250 2034 4250 
Q 1625 4250 1398 4047 
Q 1172 3844 1172 3481 
z
" transform="scale(0.015625)"/>
       </defs>
       <use xlink:href="#DejaVuSans-38"/>
      </g>
     </g>
    </g>
    <g id="text_12">
     <!-- Density -->
     <g transform="translate(70.557812 128.088594) rotate(-90) scale(0.1 -0.1)">
      <defs>
       <path id="DejaVuSans-44" d="M 1259 4147 
L 1259 519 
L 2022 519 
Q 2988 519 3436 956 
Q 3884 1394 3884 2338 
Q 3884 3275 3436 3711 
Q 2988 4147 2022 4147 
L 1259 4147 
z
M 628 4666 
L 1925 4666 
Q 3281 4666 3915 4102 
Q 4550 3538 4550 2338 
Q 4550 1131 3912 565 
Q 3275 0 1925 0 
L 628 0 
L 628 4666 
z
" transform="scale(0.015625)"/>
       <path id="DejaVuSans-65" d="M 3597 1894 
L 3597 1613 
L 953 1613 
Q 991 1019 1311 708 
Q 1631 397 2203 397 
Q 2534 397 2845 478 
Q 3156 559 3463 722 
L 3463 178 
Q 3153 47 2828 -22 
Q 2503 -91 2169 -91 
Q 1331 -91 842 396 
Q 353 884 353 1716 
Q 353 2575 817 3079 
Q 1281 3584 2069 3584 
Q 2775 3584 3186 3129 
Q 3597 2675 3597 1894 
z
M 3022 2063 
Q 3016 2534 2758 2815 
Q 2500 3097 2075 3097 
Q 1594 3097 1305 2825 
Q 1016 2553 972 2059 
L 3022 2063 
z
" transform="scale(0.015625)"/>
       <path id="DejaVuSans-6e" d="M 3513 2113 
L 3513 0 
L 2938 0 
L 2938 2094 
Q 2938 2591 2744 2837 
Q 2550 3084 2163 3084 
Q 1697 3084 1428 2787 
Q 1159 2491 1159 1978 
L 1159 0 
L 581 0 
L 581 3500 
L 1159 3500 
L 1159 2956 
Q 1366 3272 1645 3428 
Q 1925 3584 2291 3584 
Q 2894 3584 3203 3211 
Q 3513 2838 3513 2113 
z
" transform="scale(0.015625)"/>
       <path id="DejaVuSans-69" d="M 603 3500 
L 1178 3500 
L 1178 0 
L 603 0 
L 603 3500 
z
M 603 4863 
L 1178 4863 
L 1178 4134 
L 603 4134 
L 603 4863 
z
" transform="scale(0.015625)"/>
       <path id="DejaVuSans-74" d="M 1172 4494 
L 1172 3500 
L 2356 3500 
L 2356 3053 
L 1172 3053 
L 1172 1153 
Q 1172 725 1289 603 
Q 1406 481 1766 481 
L 2356 481 
L 2356 0 
L 1766 0 
Q 1100 0 847 248 
Q 594 497 594 1153 
L 594 3053 
L 172 3053 
L 172 3500 
L 594 3500 
L 594 4494 
L 1172 4494 
z
" transform="scale(0.015625)"/>
       <path id="DejaVuSans-79" d="M 2059 -325 
Q 1816 -950 1584 -1140 
Q 1353 -1331 966 -1331 
L 506 -1331 
L 506 -850 
L 844 -850 
Q 1081 -850 1212 -737 
Q 1344 -625 1503 -206 
L 1606 56 
L 191 3500 
L 800 3500 
L 1894 763 
L 2988 3500 
L 3597 3500 
L 2059 -325 
z
" transform="scale(0.015625)"/>
      </defs>
      <use xlink:href="#DejaVuSans-44"/>
      <use xlink:href="#DejaVuSans-65" x="77.001953"/>
      <use xlink:href="#DejaVuSans-6e" x="138.525391"/>
      <use xlink:href="#DejaVuSans-73" x="201.904297"/>
      <use xlink:href="#DejaVuSans-69" x="254.003906"/>
      <use xlink:href="#DejaVuSans-74" x="281.787109"/>
      <use xlink:href="#DejaVuSans-79" x="320.996094"/>
     </g>
    </g>
   </g>
   <g id="line2d_11">
    <path d="M 101.528926 192.156026 
L 106.16367 191.97413 
L 109.639728 191.661761 
L 111.9571 191.307877 
L 114.274472 190.784101 
L 116.591844 190.034778 
L 118.909215 188.997625 
L 121.226587 187.607111 
L 123.543959 185.798745 
L 125.861331 183.513625 
L 128.178703 180.702453 
L 130.496075 177.328444 
L 132.813447 173.368996 
L 135.130819 168.816692 
L 137.448191 163.680795 
L 139.765563 157.990661 
L 142.082935 151.802129 
L 145.558993 141.79794 
L 151.352423 124.648215 
L 153.669795 118.376472 
L 155.987167 112.931096 
L 157.145853 110.62652 
L 158.304539 108.655433 
L 159.463225 107.054734 
L 160.621911 105.856409 
L 161.780597 105.086322 
L 162.939283 104.763166 
L 164.097969 104.89764 
L 165.256655 105.491891 
L 166.415341 106.539279 
L 167.574027 108.024447 
L 168.732713 109.923735 
L 169.891399 112.205883 
L 171.050085 114.833022 
L 173.367457 120.94508 
L 175.684829 127.87379 
L 183.795631 153.032987 
L 186.113003 159.264716 
L 188.430375 164.767058 
L 190.747747 169.500564 
L 193.065119 173.4833 
L 195.382491 176.772274 
L 197.699863 179.445901 
L 200.017235 181.589453 
L 202.334607 183.284409 
L 204.651979 184.601867 
L 206.969351 185.599803 
L 209.286723 186.323673 
L 211.604095 186.809642 
L 213.921467 187.089445 
L 216.238839 187.195623 
L 219.714897 187.113418 
L 228.984385 186.63072 
L 232.460443 186.774657 
L 235.936501 187.18291 
L 241.729931 188.209214 
L 246.364675 188.948105 
L 249.840733 189.262339 
L 253.316791 189.330263 
L 257.951535 189.134279 
L 264.90365 188.760987 
L 269.538394 188.779796 
L 274.173138 189.054301 
L 285.759998 189.889289 
L 301.981602 190.594827 
L 319.361892 191.968799 
L 326.314008 192.165385 
L 332.107438 192.220267 
L 332.107438 192.220267 
" clip-path="url(#p3f7d8b7cfd)" style="fill: none; stroke: #9467bd; stroke-width: 1.5; stroke-linecap: square"/>
   </g>
   <g id="line2d_12">
    <path d="M 119.916143 192.132536 
L 121.932464 191.935552 
L 123.276679 191.665089 
L 124.620893 191.203236 
L 125.965107 190.453245 
L 127.309322 189.294837 
L 128.653536 187.59252 
L 129.997751 185.211539 
L 131.341965 182.040166 
L 132.686179 178.014092 
L 134.030394 173.136233 
L 135.374608 167.48465 
L 137.39093 157.883839 
L 140.751466 140.396427 
L 146.128323 111.445541 
L 148.144645 99.545812 
L 150.160967 86.45239 
L 152.849395 67.338649 
L 154.865717 53.083084 
L 156.209931 44.736955 
L 157.554146 38.257043 
L 158.226253 35.981775 
L 158.89836 34.481009 
L 159.570467 33.83906 
L 160.242574 34.123616 
L 160.914682 35.381971 
L 161.586789 37.638077 
L 162.258896 40.890587 
L 162.931003 45.112054 
L 164.275218 56.225139 
L 165.619432 70.279777 
L 167.635754 94.699246 
L 170.324182 127.725724 
L 171.668397 142.317018 
L 173.012611 154.813385 
L 174.356826 164.965632 
L 175.70104 172.783996 
L 177.045254 178.477051 
L 177.717362 180.628243 
L 178.389469 182.379668 
L 179.061576 183.781683 
L 179.733683 184.884636 
L 180.40579 185.737477 
L 181.077898 186.386613 
L 182.422112 187.24145 
L 183.766326 187.740392 
L 189.143184 189.327161 
L 193.847934 190.984247 
L 195.864256 191.391822 
L 197.880577 191.504939 
L 199.896899 191.310399 
L 201.913221 190.834608 
L 204.601649 189.912052 
L 207.290078 189.015653 
L 208.634293 188.725306 
L 209.978507 188.603403 
L 211.322721 188.668995 
L 212.666936 188.912007 
L 214.683257 189.523655 
L 219.388008 191.112576 
L 221.404329 191.494673 
L 223.420651 191.596982 
L 225.436972 191.409753 
L 227.453294 190.9519 
L 230.141723 190.041846 
L 232.830152 189.111687 
L 234.846473 188.678489 
L 236.190688 188.602469 
L 237.534902 188.714553 
L 239.551224 189.191349 
L 242.91176 190.399297 
L 245.600188 191.26921 
L 247.61651 191.716514 
L 250.304939 192.048791 
L 253.665475 192.199583 
L 253.665475 192.199583 
" clip-path="url(#p3f7d8b7cfd)" style="fill: none; stroke: #d62728; stroke-width: 1.5; stroke-linecap: square"/>
   </g>
   <g id="line2d_13">
    <path d="M 117.049664 192.119459 
L 118.905575 191.884621 
L 120.297508 191.499791 
L 121.225463 191.075389 
L 122.153418 190.458619 
L 123.081373 189.589578 
L 124.009328 188.401954 
L 124.937283 186.827216 
L 125.865239 184.800404 
L 126.793194 182.267052 
L 127.721149 179.190459 
L 129.113082 173.537914 
L 130.505014 166.726246 
L 132.360925 156.275051 
L 136.536723 131.779621 
L 137.928656 124.818492 
L 139.320588 118.948169 
L 140.712521 114.239892 
L 142.104454 110.578621 
L 143.496387 107.654151 
L 145.816275 103.048408 
L 146.74423 100.788268 
L 147.672185 98.05111 
L 148.60014 94.737567 
L 149.992073 88.650087 
L 151.847983 78.992205 
L 153.703893 69.258434 
L 154.631849 65.108253 
L 155.559804 61.815109 
L 156.487759 59.595423 
L 156.951737 58.934738 
L 157.415714 58.588145 
L 157.879692 58.560541 
L 158.343669 58.852471 
L 158.807647 59.460731 
L 159.271624 60.379061 
L 160.19958 63.109897 
L 161.127535 66.959975 
L 162.05549 71.834246 
L 163.447423 80.852593 
L 164.839355 91.601956 
L 166.695266 107.837168 
L 170.407086 141.073706 
L 171.799019 151.751926 
L 173.190952 160.789975 
L 174.582885 168.124912 
L 175.974817 173.900679 
L 177.36675 178.362853 
L 178.294705 180.731906 
L 179.22266 182.687415 
L 180.150616 184.272841 
L 181.078571 185.517049 
L 182.006526 186.438357 
L 182.934481 187.050293 
L 183.862436 187.367847 
L 184.790391 187.413142 
L 185.718347 187.219625 
L 187.110279 186.587611 
L 190.8221 184.491824 
L 191.750055 184.245321 
L 192.67801 184.207307 
L 193.605965 184.391851 
L 194.533921 184.790065 
L 195.925853 185.719366 
L 197.781764 187.321554 
L 200.101652 189.321589 
L 201.493584 190.292072 
L 202.885517 191.026248 
L 204.27745 191.534239 
L 206.13336 191.932601 
L 208.453248 192.148702 
L 209.381203 192.186818 
L 209.381203 192.186818 
" clip-path="url(#p3f7d8b7cfd)" style="fill: none; stroke: #2ca02c; stroke-width: 1.5; stroke-linecap: square"/>
   </g>
   <g id="line2d_14">
    <path d="M 116.529738 192.082944 
L 118.255518 191.769424 
L 119.549854 191.250087 
L 120.412744 190.674132 
L 121.275635 189.834617 
L 122.138525 188.650148 
L 123.001415 187.032231 
L 123.864306 184.892179 
L 124.727196 182.150302 
L 125.590086 178.746488 
L 126.452977 174.650721 
L 127.747312 167.241001 
L 129.041648 158.521716 
L 131.630319 139.040183 
L 133.356099 126.538086 
L 134.650435 118.432308 
L 135.94477 111.881042 
L 136.807661 108.475063 
L 137.670551 105.836103 
L 138.533442 103.910046 
L 139.396332 102.603376 
L 140.259222 101.79302 
L 141.122113 101.337825 
L 142.416448 100.997016 
L 143.710784 100.632872 
L 144.573674 100.148489 
L 145.436564 99.316152 
L 146.299455 98.002812 
L 147.162345 96.074393 
L 148.025235 93.402323 
L 148.888126 89.879044 
L 149.751016 85.442236 
L 151.045352 77.129611 
L 152.771132 63.894967 
L 154.496913 51.001471 
L 155.359803 46.020161 
L 155.791249 44.146455 
L 156.222694 42.770866 
L 156.654139 41.949529 
L 157.085584 41.729031 
L 157.517029 42.144773 
L 157.948474 43.219696 
L 158.37992 44.963429 
L 158.811365 47.371903 
L 159.674255 54.099305 
L 160.537145 63.110022 
L 161.831481 79.866443 
L 166.145933 140.130487 
L 167.440268 153.597573 
L 168.303159 160.764791 
L 169.166049 166.535112 
L 170.028939 171.04223 
L 170.89183 174.469864 
L 171.75472 177.026081 
L 172.61761 178.920745 
L 173.480501 180.347308 
L 174.774836 181.95773 
L 176.500617 183.673887 
L 179.089288 185.926015 
L 180.383623 186.813208 
L 181.677959 187.418717 
L 182.972295 187.706758 
L 184.26663 187.725316 
L 188.149637 187.520136 
L 189.443972 187.795908 
L 190.738308 188.310424 
L 192.895534 189.495617 
L 195.484205 190.872933 
L 197.209985 191.51103 
L 198.935766 191.899377 
L 201.092992 192.130745 
L 202.387327 192.189993 
L 202.387327 192.189993 
" clip-path="url(#p3f7d8b7cfd)" style="fill: none; stroke: #ff7f0e; stroke-width: 1.5; stroke-linecap: square"/>
   </g>
   <g id="line2d_15">
    <path d="M 118.06442 192.108616 
L 119.699348 191.871355 
L 120.925545 191.493627 
L 121.743009 191.082937 
L 122.560473 190.490464 
L 123.377938 189.658463 
L 124.195402 188.520581 
L 125.012866 187.004073 
L 125.83033 185.033177 
L 126.647795 182.533464 
L 127.465259 179.436787 
L 128.282723 175.686404 
L 129.508919 168.752152 
L 130.735116 160.215521 
L 131.961312 150.164057 
L 133.596241 134.857519 
L 137.27483 98.863083 
L 138.501026 89.217027 
L 139.318491 84.154661 
L 140.135955 80.378908 
L 140.953419 77.957939 
L 141.362151 77.248598 
L 141.770883 76.856062 
L 142.179615 76.759039 
L 142.588348 76.930073 
L 142.99708 77.336228 
L 143.814544 78.70023 
L 146.675669 84.787201 
L 147.493133 85.657411 
L 147.901865 85.824405 
L 148.310597 85.801879 
L 148.719329 85.589732 
L 149.128062 85.193867 
L 149.945526 83.9014 
L 150.76299 82.069114 
L 154.441579 72.796699 
L 155.259043 71.755281 
L 155.667776 71.500033 
L 156.076508 71.440663 
L 156.48524 71.588386 
L 156.893972 71.952013 
L 157.302704 72.537926 
L 158.120168 74.38987 
L 158.937633 77.146176 
L 159.755097 80.770104 
L 160.981293 87.664343 
L 162.20749 95.969197 
L 164.25115 111.679857 
L 167.929739 140.256342 
L 169.564668 151.460642 
L 171.199596 161.204081 
L 172.425793 167.384116 
L 173.651989 172.491883 
L 174.878186 176.480524 
L 175.69565 178.527082 
L 176.513114 180.115056 
L 177.330578 181.29095 
L 178.148043 182.116299 
L 178.965507 182.66358 
L 180.191703 183.134058 
L 183.46156 183.996242 
L 184.687757 184.613124 
L 185.913953 185.459115 
L 187.957614 187.215318 
L 190.410006 189.342904 
L 192.044935 190.467844 
L 193.679863 191.263334 
L 195.314792 191.756582 
L 197.358452 192.068094 
L 199.402113 192.188705 
L 199.402113 192.188705 
" clip-path="url(#p3f7d8b7cfd)" style="fill: none; stroke: #1f77b4; stroke-width: 1.5; stroke-linecap: square"/>
   </g>
   <g id="patch_3">
    <path d="M 90 192.24 
L 90 25.92 
" style="fill: none; stroke: #000000; stroke-width: 0.8; stroke-linejoin: miter; stroke-linecap: square"/>
   </g>
   <g id="patch_4">
    <path d="M 343.636364 192.24 
L 343.636364 25.92 
" style="fill: none; stroke: #000000; stroke-width: 0.8; stroke-linejoin: miter; stroke-linecap: square"/>
   </g>
   <g id="patch_5">
    <path d="M 90 192.24 
L 343.636364 192.24 
" style="fill: none; stroke: #000000; stroke-width: 0.8; stroke-linejoin: miter; stroke-linecap: square"/>
   </g>
   <g id="patch_6">
    <path d="M 90 25.92 
L 343.636364 25.92 
" style="fill: none; stroke: #000000; stroke-width: 0.8; stroke-linejoin: miter; stroke-linecap: square"/>
   </g>
   <g id="text_13">
    <!-- All models -->
    <g transform="translate(185.664119 19.92) scale(0.12 -0.12)">
     <defs>
      <path id="DejaVuSans-41" d="M 2188 4044 
L 1331 1722 
L 3047 1722 
L 2188 4044 
z
M 1831 4666 
L 2547 4666 
L 4325 0 
L 3669 0 
L 3244 1197 
L 1141 1197 
L 716 0 
L 50 0 
L 1831 4666 
z
" transform="scale(0.015625)"/>
      <path id="DejaVuSans-6c" d="M 603 4863 
L 1178 4863 
L 1178 0 
L 603 0 
L 603 4863 
z
" transform="scale(0.015625)"/>
      <path id="DejaVuSans-20" transform="scale(0.015625)"/>
      <path id="DejaVuSans-6d" d="M 3328 2828 
Q 3544 3216 3844 3400 
Q 4144 3584 4550 3584 
Q 5097 3584 5394 3201 
Q 5691 2819 5691 2113 
L 5691 0 
L 5113 0 
L 5113 2094 
Q 5113 2597 4934 2840 
Q 4756 3084 4391 3084 
Q 3944 3084 3684 2787 
Q 3425 2491 3425 1978 
L 3425 0 
L 2847 0 
L 2847 2094 
Q 2847 2600 2669 2842 
Q 2491 3084 2119 3084 
Q 1678 3084 1418 2786 
Q 1159 2488 1159 1978 
L 1159 0 
L 581 0 
L 581 3500 
L 1159 3500 
L 1159 2956 
Q 1356 3278 1631 3431 
Q 1906 3584 2284 3584 
Q 2666 3584 2933 3390 
Q 3200 3197 3328 2828 
z
" transform="scale(0.015625)"/>
      <path id="DejaVuSans-64" d="M 2906 2969 
L 2906 4863 
L 3481 4863 
L 3481 0 
L 2906 0 
L 2906 525 
Q 2725 213 2448 61 
Q 2172 -91 1784 -91 
Q 1150 -91 751 415 
Q 353 922 353 1747 
Q 353 2572 751 3078 
Q 1150 3584 1784 3584 
Q 2172 3584 2448 3432 
Q 2725 3281 2906 2969 
z
M 947 1747 
Q 947 1113 1208 752 
Q 1469 391 1925 391 
Q 2381 391 2643 752 
Q 2906 1113 2906 1747 
Q 2906 2381 2643 2742 
Q 2381 3103 1925 3103 
Q 1469 3103 1208 2742 
Q 947 2381 947 1747 
z
" transform="scale(0.015625)"/>
     </defs>
     <use xlink:href="#DejaVuSans-41"/>
     <use xlink:href="#DejaVuSans-6c" x="68.408203"/>
     <use xlink:href="#DejaVuSans-6c" x="96.191406"/>
     <use xlink:href="#DejaVuSans-20" x="123.974609"/>
     <use xlink:href="#DejaVuSans-6d" x="155.761719"/>
     <use xlink:href="#DejaVuSans-6f" x="253.173828"/>
     <use xlink:href="#DejaVuSans-64" x="314.355469"/>
     <use xlink:href="#DejaVuSans-65" x="377.832031"/>
     <use xlink:href="#DejaVuSans-6c" x="439.355469"/>
     <use xlink:href="#DejaVuSans-73" x="467.138672"/>
    </g>
   </g>
   <g id="legend_1">
    <g id="patch_7">
     <path d="M 242.333239 107.310625 
L 336.636364 107.310625 
Q 338.636364 107.310625 338.636364 105.310625 
L 338.636364 32.92 
Q 338.636364 30.92 336.636364 30.92 
L 242.333239 30.92 
Q 240.333239 30.92 240.333239 32.92 
L 240.333239 105.310625 
Q 240.333239 107.310625 242.333239 107.310625 
z
" style="fill: #ffffff; opacity: 0.8; stroke: #cccccc; stroke-linejoin: miter"/>
    </g>
    <g id="line2d_16">
     <path d="M 244.333239 39.018438 
L 254.333239 39.018438 
L 264.333239 39.018438 
" style="fill: none; stroke: #1f77b4; stroke-width: 1.5; stroke-linecap: square"/>
    </g>
    <g id="text_14">
     <!-- two clients -->
     <g transform="translate(272.333239 42.518438) scale(0.1 -0.1)">
      <defs>
       <path id="DejaVuSans-77" d="M 269 3500 
L 844 3500 
L 1563 769 
L 2278 3500 
L 2956 3500 
L 3675 769 
L 4391 3500 
L 4966 3500 
L 4050 0 
L 3372 0 
L 2619 2869 
L 1863 0 
L 1184 0 
L 269 3500 
z
" transform="scale(0.015625)"/>
       <path id="DejaVuSans-63" d="M 3122 3366 
L 3122 2828 
Q 2878 2963 2633 3030 
Q 2388 3097 2138 3097 
Q 1578 3097 1268 2742 
Q 959 2388 959 1747 
Q 959 1106 1268 751 
Q 1578 397 2138 397 
Q 2388 397 2633 464 
Q 2878 531 3122 666 
L 3122 134 
Q 2881 22 2623 -34 
Q 2366 -91 2075 -91 
Q 1284 -91 818 406 
Q 353 903 353 1747 
Q 353 2603 823 3093 
Q 1294 3584 2113 3584 
Q 2378 3584 2631 3529 
Q 2884 3475 3122 3366 
z
" transform="scale(0.015625)"/>
      </defs>
      <use xlink:href="#DejaVuSans-74"/>
      <use xlink:href="#DejaVuSans-77" x="39.208984"/>
      <use xlink:href="#DejaVuSans-6f" x="120.996094"/>
      <use xlink:href="#DejaVuSans-20" x="182.177734"/>
      <use xlink:href="#DejaVuSans-63" x="213.964844"/>
      <use xlink:href="#DejaVuSans-6c" x="268.945312"/>
      <use xlink:href="#DejaVuSans-69" x="296.728516"/>
      <use xlink:href="#DejaVuSans-65" x="324.511719"/>
      <use xlink:href="#DejaVuSans-6e" x="386.035156"/>
      <use xlink:href="#DejaVuSans-74" x="449.414062"/>
      <use xlink:href="#DejaVuSans-73" x="488.623047"/>
     </g>
    </g>
    <g id="line2d_17">
     <path d="M 244.333239 53.696562 
L 254.333239 53.696562 
L 264.333239 53.696562 
" style="fill: none; stroke: #ff7f0e; stroke-width: 1.5; stroke-linecap: square"/>
    </g>
    <g id="text_15">
     <!-- three clients -->
     <g transform="translate(272.333239 57.196562) scale(0.1 -0.1)">
      <defs>
       <path id="DejaVuSans-68" d="M 3513 2113 
L 3513 0 
L 2938 0 
L 2938 2094 
Q 2938 2591 2744 2837 
Q 2550 3084 2163 3084 
Q 1697 3084 1428 2787 
Q 1159 2491 1159 1978 
L 1159 0 
L 581 0 
L 581 4863 
L 1159 4863 
L 1159 2956 
Q 1366 3272 1645 3428 
Q 1925 3584 2291 3584 
Q 2894 3584 3203 3211 
Q 3513 2838 3513 2113 
z
" transform="scale(0.015625)"/>
       <path id="DejaVuSans-72" d="M 2631 2963 
Q 2534 3019 2420 3045 
Q 2306 3072 2169 3072 
Q 1681 3072 1420 2755 
Q 1159 2438 1159 1844 
L 1159 0 
L 581 0 
L 581 3500 
L 1159 3500 
L 1159 2956 
Q 1341 3275 1631 3429 
Q 1922 3584 2338 3584 
Q 2397 3584 2469 3576 
Q 2541 3569 2628 3553 
L 2631 2963 
z
" transform="scale(0.015625)"/>
      </defs>
      <use xlink:href="#DejaVuSans-74"/>
      <use xlink:href="#DejaVuSans-68" x="39.208984"/>
      <use xlink:href="#DejaVuSans-72" x="102.587891"/>
      <use xlink:href="#DejaVuSans-65" x="141.451172"/>
      <use xlink:href="#DejaVuSans-65" x="202.974609"/>
      <use xlink:href="#DejaVuSans-20" x="264.498047"/>
      <use xlink:href="#DejaVuSans-63" x="296.285156"/>
      <use xlink:href="#DejaVuSans-6c" x="351.265625"/>
      <use xlink:href="#DejaVuSans-69" x="379.048828"/>
      <use xlink:href="#DejaVuSans-65" x="406.832031"/>
      <use xlink:href="#DejaVuSans-6e" x="468.355469"/>
      <use xlink:href="#DejaVuSans-74" x="531.734375"/>
      <use xlink:href="#DejaVuSans-73" x="570.943359"/>
     </g>
    </g>
    <g id="line2d_18">
     <path d="M 244.333239 68.374687 
L 254.333239 68.374687 
L 264.333239 68.374687 
" style="fill: none; stroke: #2ca02c; stroke-width: 1.5; stroke-linecap: square"/>
    </g>
    <g id="text_16">
     <!-- four clients -->
     <g transform="translate(272.333239 71.874687) scale(0.1 -0.1)">
      <defs>
       <path id="DejaVuSans-66" d="M 2375 4863 
L 2375 4384 
L 1825 4384 
Q 1516 4384 1395 4259 
Q 1275 4134 1275 3809 
L 1275 3500 
L 2222 3500 
L 2222 3053 
L 1275 3053 
L 1275 0 
L 697 0 
L 697 3053 
L 147 3053 
L 147 3500 
L 697 3500 
L 697 3744 
Q 697 4328 969 4595 
Q 1241 4863 1831 4863 
L 2375 4863 
z
" transform="scale(0.015625)"/>
       <path id="DejaVuSans-75" d="M 544 1381 
L 544 3500 
L 1119 3500 
L 1119 1403 
Q 1119 906 1312 657 
Q 1506 409 1894 409 
Q 2359 409 2629 706 
Q 2900 1003 2900 1516 
L 2900 3500 
L 3475 3500 
L 3475 0 
L 2900 0 
L 2900 538 
Q 2691 219 2414 64 
Q 2138 -91 1772 -91 
Q 1169 -91 856 284 
Q 544 659 544 1381 
z
M 1991 3584 
L 1991 3584 
z
" transform="scale(0.015625)"/>
      </defs>
      <use xlink:href="#DejaVuSans-66"/>
      <use xlink:href="#DejaVuSans-6f" x="35.205078"/>
      <use xlink:href="#DejaVuSans-75" x="96.386719"/>
      <use xlink:href="#DejaVuSans-72" x="159.765625"/>
      <use xlink:href="#DejaVuSans-20" x="200.878906"/>
      <use xlink:href="#DejaVuSans-63" x="232.666016"/>
      <use xlink:href="#DejaVuSans-6c" x="287.646484"/>
      <use xlink:href="#DejaVuSans-69" x="315.429688"/>
      <use xlink:href="#DejaVuSans-65" x="343.212891"/>
      <use xlink:href="#DejaVuSans-6e" x="404.736328"/>
      <use xlink:href="#DejaVuSans-74" x="468.115234"/>
      <use xlink:href="#DejaVuSans-73" x="507.324219"/>
     </g>
    </g>
    <g id="line2d_19">
     <path d="M 244.333239 83.052813 
L 254.333239 83.052813 
L 264.333239 83.052813 
" style="fill: none; stroke: #d62728; stroke-width: 1.5; stroke-linecap: square"/>
    </g>
    <g id="text_17">
     <!-- five clients -->
     <g transform="translate(272.333239 86.552813) scale(0.1 -0.1)">
      <defs>
       <path id="DejaVuSans-76" d="M 191 3500 
L 800 3500 
L 1894 563 
L 2988 3500 
L 3597 3500 
L 2284 0 
L 1503 0 
L 191 3500 
z
" transform="scale(0.015625)"/>
      </defs>
      <use xlink:href="#DejaVuSans-66"/>
      <use xlink:href="#DejaVuSans-69" x="35.205078"/>
      <use xlink:href="#DejaVuSans-76" x="62.988281"/>
      <use xlink:href="#DejaVuSans-65" x="122.167969"/>
      <use xlink:href="#DejaVuSans-20" x="183.691406"/>
      <use xlink:href="#DejaVuSans-63" x="215.478516"/>
      <use xlink:href="#DejaVuSans-6c" x="270.458984"/>
      <use xlink:href="#DejaVuSans-69" x="298.242188"/>
      <use xlink:href="#DejaVuSans-65" x="326.025391"/>
      <use xlink:href="#DejaVuSans-6e" x="387.548828"/>
      <use xlink:href="#DejaVuSans-74" x="450.927734"/>
      <use xlink:href="#DejaVuSans-73" x="490.136719"/>
     </g>
    </g>
    <g id="line2d_20">
     <path d="M 244.333239 97.730938 
L 254.333239 97.730938 
L 264.333239 97.730938 
" style="fill: none; stroke: #9467bd; stroke-width: 1.5; stroke-linecap: square"/>
    </g>
    <g id="text_18">
     <!-- ten clients -->
     <g transform="translate(272.333239 101.230938) scale(0.1 -0.1)">
      <use xlink:href="#DejaVuSans-74"/>
      <use xlink:href="#DejaVuSans-65" x="39.208984"/>
      <use xlink:href="#DejaVuSans-6e" x="100.732422"/>
      <use xlink:href="#DejaVuSans-20" x="164.111328"/>
      <use xlink:href="#DejaVuSans-63" x="195.898438"/>
      <use xlink:href="#DejaVuSans-6c" x="250.878906"/>
      <use xlink:href="#DejaVuSans-69" x="278.662109"/>
      <use xlink:href="#DejaVuSans-65" x="306.445312"/>
      <use xlink:href="#DejaVuSans-6e" x="367.96875"/>
      <use xlink:href="#DejaVuSans-74" x="431.347656"/>
      <use xlink:href="#DejaVuSans-73" x="470.556641"/>
     </g>
    </g>
   </g>
  </g>
  <g id="axes_2">
   <g id="patch_8">
    <path d="M 394.363636 192.24 
L 648 192.24 
L 648 25.92 
L 394.363636 25.92 
z
" style="fill: #ffffff"/>
   </g>
   <g id="matplotlib.axis_3">
    <g id="xtick_6">
     <g id="line2d_21">
      <g>
       <use xlink:href="#m903b250602" x="419.564748" y="192.24" style="stroke: #000000; stroke-width: 0.8"/>
      </g>
     </g>
     <g id="text_19">
      <!-- 0.465 -->
      <g transform="translate(405.250685 206.838437) scale(0.1 -0.1)">
       <use xlink:href="#DejaVuSans-30"/>
       <use xlink:href="#DejaVuSans-2e" x="63.623047"/>
       <use xlink:href="#DejaVuSans-34" x="95.410156"/>
       <use xlink:href="#DejaVuSans-36" x="159.033203"/>
       <use xlink:href="#DejaVuSans-35" x="222.65625"/>
      </g>
     </g>
    </g>
    <g id="xtick_7">
     <g id="line2d_22">
      <g>
       <use xlink:href="#m903b250602" x="478.115649" y="192.24" style="stroke: #000000; stroke-width: 0.8"/>
      </g>
     </g>
     <g id="text_20">
      <!-- 0.470 -->
      <g transform="translate(463.801586 206.838437) scale(0.1 -0.1)">
       <defs>
        <path id="DejaVuSans-37" d="M 525 4666 
L 3525 4666 
L 3525 4397 
L 1831 0 
L 1172 0 
L 2766 4134 
L 525 4134 
L 525 4666 
z
" transform="scale(0.015625)"/>
       </defs>
       <use xlink:href="#DejaVuSans-30"/>
       <use xlink:href="#DejaVuSans-2e" x="63.623047"/>
       <use xlink:href="#DejaVuSans-34" x="95.410156"/>
       <use xlink:href="#DejaVuSans-37" x="159.033203"/>
       <use xlink:href="#DejaVuSans-30" x="222.65625"/>
      </g>
     </g>
    </g>
    <g id="xtick_8">
     <g id="line2d_23">
      <g>
       <use xlink:href="#m903b250602" x="536.66655" y="192.24" style="stroke: #000000; stroke-width: 0.8"/>
      </g>
     </g>
     <g id="text_21">
      <!-- 0.475 -->
      <g transform="translate(522.352487 206.838437) scale(0.1 -0.1)">
       <use xlink:href="#DejaVuSans-30"/>
       <use xlink:href="#DejaVuSans-2e" x="63.623047"/>
       <use xlink:href="#DejaVuSans-34" x="95.410156"/>
       <use xlink:href="#DejaVuSans-37" x="159.033203"/>
       <use xlink:href="#DejaVuSans-35" x="222.65625"/>
      </g>
     </g>
    </g>
    <g id="xtick_9">
     <g id="line2d_24">
      <g>
       <use xlink:href="#m903b250602" x="595.217451" y="192.24" style="stroke: #000000; stroke-width: 0.8"/>
      </g>
     </g>
     <g id="text_22">
      <!-- 0.480 -->
      <g transform="translate(580.903388 206.838437) scale(0.1 -0.1)">
       <use xlink:href="#DejaVuSans-30"/>
       <use xlink:href="#DejaVuSans-2e" x="63.623047"/>
       <use xlink:href="#DejaVuSans-34" x="95.410156"/>
       <use xlink:href="#DejaVuSans-38" x="159.033203"/>
       <use xlink:href="#DejaVuSans-30" x="222.65625"/>
      </g>
     </g>
    </g>
    <g id="text_23">
     <!-- Loss -->
     <g transform="translate(510.214631 220.516562) scale(0.1 -0.1)">
      <use xlink:href="#DejaVuSans-4c"/>
      <use xlink:href="#DejaVuSans-6f" x="53.962891"/>
      <use xlink:href="#DejaVuSans-73" x="115.144531"/>
      <use xlink:href="#DejaVuSans-73" x="167.244141"/>
     </g>
    </g>
   </g>
   <g id="matplotlib.axis_4">
    <g id="ytick_6">
     <g id="line2d_25">
      <g>
       <use xlink:href="#m69a4318d9b" x="394.363636" y="192.24" style="stroke: #000000; stroke-width: 0.8"/>
      </g>
     </g>
     <g id="text_24">
      <!-- 0 -->
      <g transform="translate(381.001136 196.039219) scale(0.1 -0.1)">
       <use xlink:href="#DejaVuSans-30"/>
      </g>
     </g>
    </g>
    <g id="ytick_7">
     <g id="line2d_26">
      <g>
       <use xlink:href="#m69a4318d9b" x="394.363636" y="151.81187" style="stroke: #000000; stroke-width: 0.8"/>
      </g>
     </g>
     <g id="text_25">
      <!-- 20 -->
      <g transform="translate(374.638636 155.611089) scale(0.1 -0.1)">
       <use xlink:href="#DejaVuSans-32"/>
       <use xlink:href="#DejaVuSans-30" x="63.623047"/>
      </g>
     </g>
    </g>
    <g id="ytick_8">
     <g id="line2d_27">
      <g>
       <use xlink:href="#m69a4318d9b" x="394.363636" y="111.383741" style="stroke: #000000; stroke-width: 0.8"/>
      </g>
     </g>
     <g id="text_26">
      <!-- 40 -->
      <g transform="translate(374.638636 115.182959) scale(0.1 -0.1)">
       <use xlink:href="#DejaVuSans-34"/>
       <use xlink:href="#DejaVuSans-30" x="63.623047"/>
      </g>
     </g>
    </g>
    <g id="ytick_9">
     <g id="line2d_28">
      <g>
       <use xlink:href="#m69a4318d9b" x="394.363636" y="70.955611" style="stroke: #000000; stroke-width: 0.8"/>
      </g>
     </g>
     <g id="text_27">
      <!-- 60 -->
      <g transform="translate(374.638636 74.75483) scale(0.1 -0.1)">
       <use xlink:href="#DejaVuSans-36"/>
       <use xlink:href="#DejaVuSans-30" x="63.623047"/>
      </g>
     </g>
    </g>
    <g id="ytick_10">
     <g id="line2d_29">
      <g>
       <use xlink:href="#m69a4318d9b" x="394.363636" y="30.527481" style="stroke: #000000; stroke-width: 0.8"/>
      </g>
     </g>
     <g id="text_28">
      <!-- 80 -->
      <g transform="translate(374.638636 34.3267) scale(0.1 -0.1)">
       <use xlink:href="#DejaVuSans-38"/>
       <use xlink:href="#DejaVuSans-30" x="63.623047"/>
      </g>
     </g>
    </g>
    <g id="text_29">
     <!-- Density -->
     <g transform="translate(368.558949 128.088594) rotate(-90) scale(0.1 -0.1)">
      <use xlink:href="#DejaVuSans-44"/>
      <use xlink:href="#DejaVuSans-65" x="77.001953"/>
      <use xlink:href="#DejaVuSans-6e" x="138.525391"/>
      <use xlink:href="#DejaVuSans-73" x="201.904297"/>
      <use xlink:href="#DejaVuSans-69" x="254.003906"/>
      <use xlink:href="#DejaVuSans-74" x="281.787109"/>
      <use xlink:href="#DejaVuSans-79" x="320.996094"/>
     </g>
    </g>
   </g>
   <g id="line2d_30">
    <path d="M 525.592069 190.663576 
L 526.408304 189.962308 
L 527.22454 189.000077 
L 528.040775 187.702743 
L 528.85701 185.984347 
L 529.673246 183.748692 
L 530.489481 180.892452 
L 531.305717 177.310038 
L 532.121952 172.900305 
L 533.210266 165.584222 
L 534.29858 156.501269 
L 535.386894 145.625059 
L 536.747286 129.721282 
L 538.651835 104.438762 
L 541.37262 68.381687 
L 542.733012 53.633955 
L 543.821326 44.563813 
L 544.637561 39.587074 
L 545.453797 36.209235 
L 545.997954 34.809254 
L 546.542111 34.036147 
L 547.086268 33.822648 
L 547.630425 34.086117 
L 548.174581 34.731873 
L 548.990817 36.19126 
L 551.167445 40.494347 
L 551.711602 41.178797 
L 552.255758 41.581184 
L 552.799915 41.672762 
L 553.344072 41.447025 
L 553.888229 40.919994 
L 554.704465 39.652842 
L 556.064857 36.8408 
L 557.153171 34.790883 
L 557.697328 34.119749 
L 558.241485 33.823311 
L 558.513563 33.84585 
L 558.785642 33.997023 
L 559.329799 34.724575 
L 559.873955 36.074515 
L 560.418112 38.097595 
L 560.962269 40.824927 
L 561.778505 46.253698 
L 562.59474 53.234741 
L 563.683054 64.689816 
L 565.043446 81.626905 
L 569.66878 142.170718 
L 571.029173 156.118235 
L 572.117486 165.270346 
L 573.2058 172.652079 
L 574.294114 178.401612 
L 575.382428 182.730634 
L 576.198663 185.19227 
L 577.014899 187.097547 
L 577.831134 188.545868 
L 578.64737 189.627395 
L 579.463605 190.420915 
L 579.735683 190.633285 
L 579.735683 190.633285 
" clip-path="url(#p6c8f95dd4a)" style="fill: none; stroke: #9467bd; stroke-width: 1.5; stroke-linecap: square"/>
   </g>
   <g id="line2d_31">
    <path d="M 492.377995 191.698261 
L 495.998424 191.240091 
L 498.894768 190.657848 
L 501.791111 189.805515 
L 503.963368 188.937676 
L 506.135626 187.830236 
L 508.307883 186.443067 
L 510.480141 184.73806 
L 512.652398 182.682414 
L 514.824656 180.252426 
L 516.996913 177.437498 
L 519.169171 174.243998 
L 521.341428 170.698515 
L 524.237772 165.511597 
L 528.582287 157.13521 
L 532.926801 148.822714 
L 535.823145 143.809087 
L 537.995402 140.5261 
L 540.16766 137.757815 
L 541.615831 136.231171 
L 543.064003 134.972621 
L 544.512175 133.984722 
L 545.960346 133.262116 
L 547.408518 132.79162 
L 548.85669 132.552663 
L 550.304861 132.518042 
L 552.477119 132.776389 
L 554.649376 133.293092 
L 561.166149 135.068233 
L 563.338406 135.364097 
L 565.510664 135.400998 
L 567.682921 135.172332 
L 569.855179 134.714436 
L 573.475608 133.661839 
L 576.371951 132.868786 
L 578.544208 132.510582 
L 579.99238 132.45825 
L 581.440552 132.596416 
L 582.888723 132.95506 
L 584.336895 133.557977 
L 585.785067 134.421865 
L 587.233238 135.555737 
L 588.68141 136.960668 
L 590.129582 138.629884 
L 592.301839 141.596266 
L 594.474097 145.048194 
L 597.37044 150.226786 
L 601.714955 158.63762 
L 606.05947 166.941084 
L 608.955813 172.005444 
L 611.128071 175.433172 
L 613.300328 178.495845 
L 615.472585 181.174503 
L 617.644843 183.469394 
L 619.8171 185.396426 
L 621.989358 186.983185 
L 624.161615 188.264951 
L 626.333873 189.28105 
L 628.50613 190.071774 
L 631.402474 190.842235 
L 634.298817 191.363775 
L 636.471074 191.633923 
L 636.471074 191.633923 
" clip-path="url(#p6c8f95dd4a)" style="fill: none; stroke: #d62728; stroke-width: 1.5; stroke-linecap: square"/>
   </g>
   <g id="line2d_32">
    <path d="M 405.892562 191.875602 
L 412.417982 191.484504 
L 417.855831 190.917868 
L 422.206111 190.235183 
L 426.556391 189.28361 
L 429.819101 188.355516 
L 433.081811 187.215398 
L 436.344521 185.841565 
L 439.60723 184.21844 
L 442.86994 182.339226 
L 446.13265 180.20846 
L 449.39536 177.844169 
L 453.74564 174.387613 
L 460.27106 168.811179 
L 466.796479 163.284516 
L 470.059189 160.747419 
L 473.321899 158.468243 
L 476.584609 156.513987 
L 478.759749 155.416795 
L 480.934889 154.495391 
L 483.110029 153.753906 
L 485.285168 153.191258 
L 487.460308 152.801106 
L 489.635448 152.572034 
L 492.898158 152.494125 
L 496.160868 152.670943 
L 500.511148 153.15595 
L 509.211707 154.200069 
L 513.561987 154.42263 
L 516.824697 154.385208 
L 521.174977 154.073525 
L 526.612827 153.402898 
L 533.138246 152.63011 
L 536.400956 152.462277 
L 539.663666 152.554306 
L 541.838806 152.795233 
L 544.013946 153.198801 
L 546.189086 153.776031 
L 548.364226 154.532832 
L 550.539366 155.46984 
L 552.714505 156.582478 
L 555.977215 158.558675 
L 559.239925 160.857192 
L 562.502635 163.410007 
L 567.940485 168.010967 
L 576.641044 175.421149 
L 580.991324 178.788245 
L 584.254034 181.06697 
L 587.516744 183.102885 
L 590.779454 184.883456 
L 594.042164 186.4089 
L 597.304873 187.689827 
L 600.567583 188.744593 
L 603.830293 189.596655 
L 608.180573 190.462724 
L 612.530853 191.077946 
L 617.968703 191.583099 
L 622.318982 191.836669 
L 622.318982 191.836669 
" clip-path="url(#p6c8f95dd4a)" style="fill: none; stroke: #2ca02c; stroke-width: 1.5; stroke-linecap: square"/>
   </g>
   <g id="line2d_33">
    <path d="M 431.35467 191.352863 
L 433.165886 190.788878 
L 434.524297 190.17919 
L 435.882709 189.358896 
L 437.241121 188.274771 
L 438.599532 186.867602 
L 439.957944 185.074249 
L 441.316356 182.830799 
L 442.674768 180.076834 
L 444.033179 176.760736 
L 445.391591 172.845742 
L 446.750003 168.316341 
L 448.561218 161.346474 
L 450.372434 153.428587 
L 453.089257 140.314586 
L 457.164493 120.459112 
L 458.975708 112.755508 
L 460.33412 107.813058 
L 461.692532 103.737248 
L 462.598139 101.5439 
L 463.503747 99.782381 
L 464.409355 98.449604 
L 465.314963 97.529885 
L 466.220571 96.9954 
L 467.126179 96.807174 
L 468.031786 96.916575 
L 468.937394 97.267277 
L 470.295806 98.110009 
L 473.918237 100.712912 
L 475.276649 101.300123 
L 476.182257 101.474129 
L 477.087864 101.457463 
L 477.993472 101.251129 
L 478.89908 100.869746 
L 480.257492 100.033037 
L 484.332727 97.159523 
L 485.238335 96.835871 
L 486.143943 96.762519 
L 487.04955 96.994899 
L 487.955158 97.580428 
L 488.860766 98.556617 
L 489.766374 99.94963 
L 490.671982 101.773377 
L 491.577589 104.029128 
L 492.936001 108.194992 
L 494.294413 113.218374 
L 496.105629 121.007977 
L 498.369648 131.892898 
L 502.897687 154.013213 
L 504.708903 161.876023 
L 506.520118 168.77684 
L 507.87853 173.250054 
L 509.236942 177.108387 
L 510.595353 180.369779 
L 511.953765 183.072827 
L 513.312177 185.270394 
L 514.670589 187.023587 
L 516.029 188.396535 
L 517.387412 189.452222 
L 518.745824 190.24944 
L 520.557039 191.000281 
L 521.462647 191.271834 
L 521.462647 191.271834 
" clip-path="url(#p6c8f95dd4a)" style="fill: none; stroke: #ff7f0e; stroke-width: 1.5; stroke-linecap: square"/>
   </g>
   <g id="line2d_34">
    <path d="M 443.301313 191.485798 
L 445.517819 191.009926 
L 447.734325 190.288836 
L 449.396704 189.532058 
L 451.059084 188.540074 
L 452.721463 187.263118 
L 454.383843 185.649236 
L 456.046222 183.647242 
L 457.708601 181.210551 
L 459.370981 178.301779 
L 461.03336 174.897821 
L 462.695739 170.995001 
L 464.358119 166.613752 
L 466.574625 160.115304 
L 469.345257 151.228063 
L 474.886521 133.255149 
L 477.103027 127.033634 
L 478.765407 123.059344 
L 480.427786 119.797387 
L 481.536039 118.051216 
L 482.644292 116.656861 
L 483.752545 115.610664 
L 484.860798 114.898763 
L 485.969051 114.49751 
L 487.077303 114.374316 
L 488.185556 114.488909 
L 489.293809 114.794956 
L 490.956189 115.501976 
L 495.3892 117.623557 
L 497.05158 118.088096 
L 498.159833 118.218649 
L 499.268086 118.193416 
L 500.930465 117.870327 
L 502.592844 117.255058 
L 505.363477 115.875392 
L 507.579982 114.859654 
L 508.688235 114.522547 
L 509.796488 114.367853 
L 510.904741 114.442849 
L 512.012994 114.789081 
L 513.121247 115.440689 
L 514.2295 116.423073 
L 515.337753 117.751966 
L 516.446006 119.43294 
L 517.554259 121.461344 
L 519.216638 125.121108 
L 520.879017 129.441456 
L 523.095523 136.011915 
L 526.420282 146.856374 
L 530.299167 159.474943 
L 532.515673 166.037289 
L 534.732179 171.851998 
L 536.394558 175.651908 
L 538.056938 178.95168 
L 539.719317 181.759489 
L 541.381696 184.101889 
L 543.044076 186.018627 
L 544.706455 187.557642 
L 546.368834 188.770599 
L 548.031214 189.709229 
L 549.693593 190.422571 
L 551.910099 191.099334 
L 553.572478 191.450223 
L 553.572478 191.450223 
" clip-path="url(#p6c8f95dd4a)" style="fill: none; stroke: #1f77b4; stroke-width: 1.5; stroke-linecap: square"/>
   </g>
   <g id="patch_9">
    <path d="M 394.363636 192.24 
L 394.363636 25.92 
" style="fill: none; stroke: #000000; stroke-width: 0.8; stroke-linejoin: miter; stroke-linecap: square"/>
   </g>
   <g id="patch_10">
    <path d="M 648 192.24 
L 648 25.92 
" style="fill: none; stroke: #000000; stroke-width: 0.8; stroke-linejoin: miter; stroke-linecap: square"/>
   </g>
   <g id="patch_11">
    <path d="M 394.363636 192.24 
L 648 192.24 
" style="fill: none; stroke: #000000; stroke-width: 0.8; stroke-linejoin: miter; stroke-linecap: square"/>
   </g>
   <g id="patch_12">
    <path d="M 394.363636 25.92 
L 648 25.92 
" style="fill: none; stroke: #000000; stroke-width: 0.8; stroke-linejoin: miter; stroke-linecap: square"/>
   </g>
   <g id="text_30">
    <!-- Linear regression and linearSVR only -->
    <g transform="translate(410.624318 19.92) scale(0.12 -0.12)">
     <defs>
      <path id="DejaVuSans-61" d="M 2194 1759 
Q 1497 1759 1228 1600 
Q 959 1441 959 1056 
Q 959 750 1161 570 
Q 1363 391 1709 391 
Q 2188 391 2477 730 
Q 2766 1069 2766 1631 
L 2766 1759 
L 2194 1759 
z
M 3341 1997 
L 3341 0 
L 2766 0 
L 2766 531 
Q 2569 213 2275 61 
Q 1981 -91 1556 -91 
Q 1019 -91 701 211 
Q 384 513 384 1019 
Q 384 1609 779 1909 
Q 1175 2209 1959 2209 
L 2766 2209 
L 2766 2266 
Q 2766 2663 2505 2880 
Q 2244 3097 1772 3097 
Q 1472 3097 1187 3025 
Q 903 2953 641 2809 
L 641 3341 
Q 956 3463 1253 3523 
Q 1550 3584 1831 3584 
Q 2591 3584 2966 3190 
Q 3341 2797 3341 1997 
z
" transform="scale(0.015625)"/>
      <path id="DejaVuSans-67" d="M 2906 1791 
Q 2906 2416 2648 2759 
Q 2391 3103 1925 3103 
Q 1463 3103 1205 2759 
Q 947 2416 947 1791 
Q 947 1169 1205 825 
Q 1463 481 1925 481 
Q 2391 481 2648 825 
Q 2906 1169 2906 1791 
z
M 3481 434 
Q 3481 -459 3084 -895 
Q 2688 -1331 1869 -1331 
Q 1566 -1331 1297 -1286 
Q 1028 -1241 775 -1147 
L 775 -588 
Q 1028 -725 1275 -790 
Q 1522 -856 1778 -856 
Q 2344 -856 2625 -561 
Q 2906 -266 2906 331 
L 2906 616 
Q 2728 306 2450 153 
Q 2172 0 1784 0 
Q 1141 0 747 490 
Q 353 981 353 1791 
Q 353 2603 747 3093 
Q 1141 3584 1784 3584 
Q 2172 3584 2450 3431 
Q 2728 3278 2906 2969 
L 2906 3500 
L 3481 3500 
L 3481 434 
z
" transform="scale(0.015625)"/>
      <path id="DejaVuSans-53" d="M 3425 4513 
L 3425 3897 
Q 3066 4069 2747 4153 
Q 2428 4238 2131 4238 
Q 1616 4238 1336 4038 
Q 1056 3838 1056 3469 
Q 1056 3159 1242 3001 
Q 1428 2844 1947 2747 
L 2328 2669 
Q 3034 2534 3370 2195 
Q 3706 1856 3706 1288 
Q 3706 609 3251 259 
Q 2797 -91 1919 -91 
Q 1588 -91 1214 -16 
Q 841 59 441 206 
L 441 856 
Q 825 641 1194 531 
Q 1563 422 1919 422 
Q 2459 422 2753 634 
Q 3047 847 3047 1241 
Q 3047 1584 2836 1778 
Q 2625 1972 2144 2069 
L 1759 2144 
Q 1053 2284 737 2584 
Q 422 2884 422 3419 
Q 422 4038 858 4394 
Q 1294 4750 2059 4750 
Q 2388 4750 2728 4690 
Q 3069 4631 3425 4513 
z
" transform="scale(0.015625)"/>
      <path id="DejaVuSans-56" d="M 1831 0 
L 50 4666 
L 709 4666 
L 2188 738 
L 3669 4666 
L 4325 4666 
L 2547 0 
L 1831 0 
z
" transform="scale(0.015625)"/>
      <path id="DejaVuSans-52" d="M 2841 2188 
Q 3044 2119 3236 1894 
Q 3428 1669 3622 1275 
L 4263 0 
L 3584 0 
L 2988 1197 
Q 2756 1666 2539 1819 
Q 2322 1972 1947 1972 
L 1259 1972 
L 1259 0 
L 628 0 
L 628 4666 
L 2053 4666 
Q 2853 4666 3247 4331 
Q 3641 3997 3641 3322 
Q 3641 2881 3436 2590 
Q 3231 2300 2841 2188 
z
M 1259 4147 
L 1259 2491 
L 2053 2491 
Q 2509 2491 2742 2702 
Q 2975 2913 2975 3322 
Q 2975 3731 2742 3939 
Q 2509 4147 2053 4147 
L 1259 4147 
z
" transform="scale(0.015625)"/>
     </defs>
     <use xlink:href="#DejaVuSans-4c"/>
     <use xlink:href="#DejaVuSans-69" x="55.712891"/>
     <use xlink:href="#DejaVuSans-6e" x="83.496094"/>
     <use xlink:href="#DejaVuSans-65" x="146.875"/>
     <use xlink:href="#DejaVuSans-61" x="208.398438"/>
     <use xlink:href="#DejaVuSans-72" x="269.677734"/>
     <use xlink:href="#DejaVuSans-20" x="310.791016"/>
     <use xlink:href="#DejaVuSans-72" x="342.578125"/>
     <use xlink:href="#DejaVuSans-65" x="381.441406"/>
     <use xlink:href="#DejaVuSans-67" x="442.964844"/>
     <use xlink:href="#DejaVuSans-72" x="506.441406"/>
     <use xlink:href="#DejaVuSans-65" x="545.304688"/>
     <use xlink:href="#DejaVuSans-73" x="606.828125"/>
     <use xlink:href="#DejaVuSans-73" x="658.927734"/>
     <use xlink:href="#DejaVuSans-69" x="711.027344"/>
     <use xlink:href="#DejaVuSans-6f" x="738.810547"/>
     <use xlink:href="#DejaVuSans-6e" x="799.992188"/>
     <use xlink:href="#DejaVuSans-20" x="863.371094"/>
     <use xlink:href="#DejaVuSans-61" x="895.158203"/>
     <use xlink:href="#DejaVuSans-6e" x="956.4375"/>
     <use xlink:href="#DejaVuSans-64" x="1019.816406"/>
     <use xlink:href="#DejaVuSans-20" x="1083.292969"/>
     <use xlink:href="#DejaVuSans-6c" x="1115.080078"/>
     <use xlink:href="#DejaVuSans-69" x="1142.863281"/>
     <use xlink:href="#DejaVuSans-6e" x="1170.646484"/>
     <use xlink:href="#DejaVuSans-65" x="1234.025391"/>
     <use xlink:href="#DejaVuSans-61" x="1295.548828"/>
     <use xlink:href="#DejaVuSans-72" x="1356.828125"/>
     <use xlink:href="#DejaVuSans-53" x="1397.941406"/>
     <use xlink:href="#DejaVuSans-56" x="1461.417969"/>
     <use xlink:href="#DejaVuSans-52" x="1529.826172"/>
     <use xlink:href="#DejaVuSans-20" x="1599.308594"/>
     <use xlink:href="#DejaVuSans-6f" x="1631.095703"/>
     <use xlink:href="#DejaVuSans-6e" x="1692.277344"/>
     <use xlink:href="#DejaVuSans-6c" x="1755.65625"/>
     <use xlink:href="#DejaVuSans-79" x="1783.439453"/>
    </g>
   </g>
   <g id="legend_2">
    <g id="patch_13">
     <path d="M 655 107.310625 
L 749.303125 107.310625 
Q 751.303125 107.310625 751.303125 105.310625 
L 751.303125 32.92 
Q 751.303125 30.92 749.303125 30.92 
L 655 30.92 
Q 653 30.92 653 32.92 
L 653 105.310625 
Q 653 107.310625 655 107.310625 
z
" style="fill: #ffffff; opacity: 0.8; stroke: #cccccc; stroke-linejoin: miter"/>
    </g>
    <g id="line2d_35">
     <path d="M 657 39.018438 
L 667 39.018438 
L 677 39.018438 
" style="fill: none; stroke: #1f77b4; stroke-width: 1.5; stroke-linecap: square"/>
    </g>
    <g id="text_31">
     <!-- two clients -->
     <g transform="translate(685 42.518438) scale(0.1 -0.1)">
      <use xlink:href="#DejaVuSans-74"/>
      <use xlink:href="#DejaVuSans-77" x="39.208984"/>
      <use xlink:href="#DejaVuSans-6f" x="120.996094"/>
      <use xlink:href="#DejaVuSans-20" x="182.177734"/>
      <use xlink:href="#DejaVuSans-63" x="213.964844"/>
      <use xlink:href="#DejaVuSans-6c" x="268.945312"/>
      <use xlink:href="#DejaVuSans-69" x="296.728516"/>
      <use xlink:href="#DejaVuSans-65" x="324.511719"/>
      <use xlink:href="#DejaVuSans-6e" x="386.035156"/>
      <use xlink:href="#DejaVuSans-74" x="449.414062"/>
      <use xlink:href="#DejaVuSans-73" x="488.623047"/>
     </g>
    </g>
    <g id="line2d_36">
     <path d="M 657 53.696562 
L 667 53.696562 
L 677 53.696562 
" style="fill: none; stroke: #ff7f0e; stroke-width: 1.5; stroke-linecap: square"/>
    </g>
    <g id="text_32">
     <!-- three clients -->
     <g transform="translate(685 57.196562) scale(0.1 -0.1)">
      <use xlink:href="#DejaVuSans-74"/>
      <use xlink:href="#DejaVuSans-68" x="39.208984"/>
      <use xlink:href="#DejaVuSans-72" x="102.587891"/>
      <use xlink:href="#DejaVuSans-65" x="141.451172"/>
      <use xlink:href="#DejaVuSans-65" x="202.974609"/>
      <use xlink:href="#DejaVuSans-20" x="264.498047"/>
      <use xlink:href="#DejaVuSans-63" x="296.285156"/>
      <use xlink:href="#DejaVuSans-6c" x="351.265625"/>
      <use xlink:href="#DejaVuSans-69" x="379.048828"/>
      <use xlink:href="#DejaVuSans-65" x="406.832031"/>
      <use xlink:href="#DejaVuSans-6e" x="468.355469"/>
      <use xlink:href="#DejaVuSans-74" x="531.734375"/>
      <use xlink:href="#DejaVuSans-73" x="570.943359"/>
     </g>
    </g>
    <g id="line2d_37">
     <path d="M 657 68.374687 
L 667 68.374687 
L 677 68.374687 
" style="fill: none; stroke: #2ca02c; stroke-width: 1.5; stroke-linecap: square"/>
    </g>
    <g id="text_33">
     <!-- four clients -->
     <g transform="translate(685 71.874687) scale(0.1 -0.1)">
      <use xlink:href="#DejaVuSans-66"/>
      <use xlink:href="#DejaVuSans-6f" x="35.205078"/>
      <use xlink:href="#DejaVuSans-75" x="96.386719"/>
      <use xlink:href="#DejaVuSans-72" x="159.765625"/>
      <use xlink:href="#DejaVuSans-20" x="200.878906"/>
      <use xlink:href="#DejaVuSans-63" x="232.666016"/>
      <use xlink:href="#DejaVuSans-6c" x="287.646484"/>
      <use xlink:href="#DejaVuSans-69" x="315.429688"/>
      <use xlink:href="#DejaVuSans-65" x="343.212891"/>
      <use xlink:href="#DejaVuSans-6e" x="404.736328"/>
      <use xlink:href="#DejaVuSans-74" x="468.115234"/>
      <use xlink:href="#DejaVuSans-73" x="507.324219"/>
     </g>
    </g>
    <g id="line2d_38">
     <path d="M 657 83.052813 
L 667 83.052813 
L 677 83.052813 
" style="fill: none; stroke: #d62728; stroke-width: 1.5; stroke-linecap: square"/>
    </g>
    <g id="text_34">
     <!-- five clients -->
     <g transform="translate(685 86.552813) scale(0.1 -0.1)">
      <use xlink:href="#DejaVuSans-66"/>
      <use xlink:href="#DejaVuSans-69" x="35.205078"/>
      <use xlink:href="#DejaVuSans-76" x="62.988281"/>
      <use xlink:href="#DejaVuSans-65" x="122.167969"/>
      <use xlink:href="#DejaVuSans-20" x="183.691406"/>
      <use xlink:href="#DejaVuSans-63" x="215.478516"/>
      <use xlink:href="#DejaVuSans-6c" x="270.458984"/>
      <use xlink:href="#DejaVuSans-69" x="298.242188"/>
      <use xlink:href="#DejaVuSans-65" x="326.025391"/>
      <use xlink:href="#DejaVuSans-6e" x="387.548828"/>
      <use xlink:href="#DejaVuSans-74" x="450.927734"/>
      <use xlink:href="#DejaVuSans-73" x="490.136719"/>
     </g>
    </g>
    <g id="line2d_39">
     <path d="M 657 97.730938 
L 667 97.730938 
L 677 97.730938 
" style="fill: none; stroke: #9467bd; stroke-width: 1.5; stroke-linecap: square"/>
    </g>
    <g id="text_35">
     <!-- ten clients -->
     <g transform="translate(685 101.230938) scale(0.1 -0.1)">
      <use xlink:href="#DejaVuSans-74"/>
      <use xlink:href="#DejaVuSans-65" x="39.208984"/>
      <use xlink:href="#DejaVuSans-6e" x="100.732422"/>
      <use xlink:href="#DejaVuSans-20" x="164.111328"/>
      <use xlink:href="#DejaVuSans-63" x="195.898438"/>
      <use xlink:href="#DejaVuSans-6c" x="250.878906"/>
      <use xlink:href="#DejaVuSans-69" x="278.662109"/>
      <use xlink:href="#DejaVuSans-65" x="306.445312"/>
      <use xlink:href="#DejaVuSans-6e" x="367.96875"/>
      <use xlink:href="#DejaVuSans-74" x="431.347656"/>
      <use xlink:href="#DejaVuSans-73" x="470.556641"/>
     </g>
    </g>
   </g>
  </g>
 </g>
 <defs>
  <clipPath id="p3f7d8b7cfd">
   <rect x="90" y="25.92" width="253.636364" height="166.32"/>
  </clipPath>
  <clipPath id="p6c8f95dd4a">
   <rect x="394.363636" y="25.92" width="253.636364" height="166.32"/>
  </clipPath>
 </defs>
</svg>
