<?xml version="1.0" encoding="utf-8" standalone="no"?>
<!DOCTYPE svg PUBLIC "-//W3C//DTD SVG 1.1//EN"
  "http://www.w3.org/Graphics/SVG/1.1/DTD/svg11.dtd">
<svg xmlns:xlink="http://www.w3.org/1999/xlink" width="460.8pt" height="345.6pt" viewBox="0 0 460.8 345.6" xmlns="http://www.w3.org/2000/svg" version="1.1">
 <metadata>
  <rdf:RDF xmlns:dc="http://purl.org/dc/elements/1.1/" xmlns:cc="http://creativecommons.org/ns#" xmlns:rdf="http://www.w3.org/1999/02/22-rdf-syntax-ns#">
   <cc:Work>
    <dc:type rdf:resource="http://purl.org/dc/dcmitype/StillImage"/>
    <dc:date>2023-02-21T17:29:59.705927</dc:date>
    <dc:format>image/svg+xml</dc:format>
    <dc:creator>
     <cc:Agent>
      <dc:title>Matplotlib v3.6.2, https://matplotlib.org/</dc:title>
     </cc:Agent>
    </dc:creator>
   </cc:Work>
  </rdf:RDF>
 </metadata>
 <defs>
  <style type="text/css">*{stroke-linejoin: round; stroke-linecap: butt}</style>
 </defs>
 <g id="figure_1">
  <g id="patch_1">
   <path d="M 0 345.6 
L 460.8 345.6 
L 460.8 0 
L 0 0 
z
" style="fill: #ffffff"/>
  </g>
  <g id="axes_1">
   <g id="patch_2">
    <path d="M 57.6 307.584 
L 414.72 307.584 
L 414.72 41.472 
L 57.6 41.472 
z
" style="fill: #ffffff"/>
   </g>
   <g id="PolyCollection_1">
    <defs>
     <path id="m08d059bd9c" d="M 109.664539 -39.445838 
L 109.664539 -38.016 
L 110.457874 -38.016 
L 111.251208 -38.016 
L 112.044543 -38.016 
L 112.837878 -38.016 
L 113.631212 -38.016 
L 114.424547 -38.016 
L 115.217882 -38.016 
L 116.011216 -38.016 
L 116.804551 -38.016 
L 117.597886 -38.016 
L 118.39122 -38.016 
L 119.184555 -38.016 
L 119.97789 -38.016 
L 120.771225 -38.016 
L 121.564559 -38.016 
L 122.357894 -38.016 
L 123.151229 -38.016 
L 123.944563 -38.016 
L 124.737898 -38.016 
L 125.531233 -38.016 
L 126.324567 -38.016 
L 127.117902 -38.016 
L 127.911237 -38.016 
L 128.704571 -38.016 
L 129.497906 -38.016 
L 130.291241 -38.016 
L 131.084575 -38.016 
L 131.87791 -38.016 
L 132.671245 -38.016 
L 133.46458 -38.016 
L 134.257914 -38.016 
L 135.051249 -38.016 
L 135.844584 -38.016 
L 136.637918 -38.016 
L 137.431253 -38.016 
L 138.224588 -38.016 
L 139.017922 -38.016 
L 139.811257 -38.016 
L 140.604592 -38.016 
L 141.397926 -38.016 
L 142.191261 -38.016 
L 142.984596 -38.016 
L 143.77793 -38.016 
L 144.571265 -38.016 
L 145.3646 -38.016 
L 146.157935 -38.016 
L 146.951269 -38.016 
L 147.744604 -38.016 
L 148.537939 -38.016 
L 149.331273 -38.016 
L 150.124608 -38.016 
L 150.917943 -38.016 
L 151.711277 -38.016 
L 152.504612 -38.016 
L 153.297947 -38.016 
L 154.091281 -38.016 
L 154.884616 -38.016 
L 155.677951 -38.016 
L 156.471285 -38.016 
L 157.26462 -38.016 
L 158.057955 -38.016 
L 158.85129 -38.016 
L 159.644624 -38.016 
L 160.437959 -38.016 
L 161.231294 -38.016 
L 162.024628 -38.016 
L 162.817963 -38.016 
L 163.611298 -38.016 
L 164.404632 -38.016 
L 165.197967 -38.016 
L 165.991302 -38.016 
L 166.784636 -38.016 
L 167.577971 -38.016 
L 168.371306 -38.016 
L 169.16464 -38.016 
L 169.957975 -38.016 
L 170.75131 -38.016 
L 171.544645 -38.016 
L 172.337979 -38.016 
L 173.131314 -38.016 
L 173.924649 -38.016 
L 174.717983 -38.016 
L 175.511318 -38.016 
L 176.304653 -38.016 
L 177.097987 -38.016 
L 177.891322 -38.016 
L 178.684657 -38.016 
L 179.477991 -38.016 
L 180.271326 -38.016 
L 181.064661 -38.016 
L 181.857995 -38.016 
L 182.65133 -38.016 
L 183.444665 -38.016 
L 184.238 -38.016 
L 185.031334 -38.016 
L 185.824669 -38.016 
L 186.618004 -38.016 
L 187.411338 -38.016 
L 188.204673 -38.016 
L 188.998008 -38.016 
L 189.791342 -38.016 
L 190.584677 -38.016 
L 191.378012 -38.016 
L 192.171346 -38.016 
L 192.964681 -38.016 
L 193.758016 -38.016 
L 194.55135 -38.016 
L 195.344685 -38.016 
L 196.13802 -38.016 
L 196.931355 -38.016 
L 197.724689 -38.016 
L 198.518024 -38.016 
L 199.311359 -38.016 
L 200.104693 -38.016 
L 200.898028 -38.016 
L 201.691363 -38.016 
L 202.484697 -38.016 
L 203.278032 -38.016 
L 204.071367 -38.016 
L 204.864701 -38.016 
L 205.658036 -38.016 
L 206.451371 -38.016 
L 207.244705 -38.016 
L 208.03804 -38.016 
L 208.831375 -38.016 
L 209.62471 -38.016 
L 210.418044 -38.016 
L 211.211379 -38.016 
L 212.004714 -38.016 
L 212.798048 -38.016 
L 213.591383 -38.016 
L 214.384718 -38.016 
L 215.178052 -38.016 
L 215.971387 -38.016 
L 216.764722 -38.016 
L 217.558056 -38.016 
L 218.351391 -38.016 
L 219.144726 -38.016 
L 219.938061 -38.016 
L 220.731395 -38.016 
L 221.52473 -38.016 
L 222.318065 -38.016 
L 223.111399 -38.016 
L 223.904734 -38.016 
L 224.698069 -38.016 
L 225.491403 -38.016 
L 226.284738 -38.016 
L 227.078073 -38.016 
L 227.871407 -38.016 
L 228.664742 -38.016 
L 229.458077 -38.016 
L 230.251411 -38.016 
L 231.044746 -38.016 
L 231.838081 -38.016 
L 232.631416 -38.016 
L 233.42475 -38.016 
L 234.218085 -38.016 
L 235.01142 -38.016 
L 235.804754 -38.016 
L 236.598089 -38.016 
L 237.391424 -38.016 
L 238.184758 -38.016 
L 238.978093 -38.016 
L 239.771428 -38.016 
L 240.564762 -38.016 
L 241.358097 -38.016 
L 242.151432 -38.016 
L 242.944766 -38.016 
L 243.738101 -38.016 
L 244.531436 -38.016 
L 245.324771 -38.016 
L 246.118105 -38.016 
L 246.91144 -38.016 
L 247.704775 -38.016 
L 248.498109 -38.016 
L 249.291444 -38.016 
L 250.084779 -38.016 
L 250.878113 -38.016 
L 251.671448 -38.016 
L 252.464783 -38.016 
L 253.258117 -38.016 
L 254.051452 -38.016 
L 254.844787 -38.016 
L 255.638121 -38.016 
L 256.431456 -38.016 
L 257.224791 -38.016 
L 258.018126 -38.016 
L 258.81146 -38.016 
L 259.604795 -38.016 
L 260.39813 -38.016 
L 261.191464 -38.016 
L 261.984799 -38.016 
L 262.778134 -38.016 
L 263.571468 -38.016 
L 264.364803 -38.016 
L 265.158138 -38.016 
L 265.951472 -38.016 
L 266.744807 -38.016 
L 267.538142 -38.016 
L 267.538142 -38.575597 
L 267.538142 -38.575597 
L 266.744807 -38.683373 
L 265.951472 -38.809518 
L 265.158138 -38.956681 
L 264.364803 -39.127797 
L 263.571468 -39.326111 
L 262.778134 -39.555189 
L 261.984799 -39.818928 
L 261.191464 -40.121568 
L 260.39813 -40.467692 
L 259.604795 -40.862231 
L 258.81146 -41.310459 
L 258.018126 -41.817977 
L 257.224791 -42.390701 
L 256.431456 -43.034834 
L 255.638121 -43.756835 
L 254.844787 -44.563379 
L 254.051452 -45.461304 
L 253.258117 -46.457558 
L 252.464783 -47.559128 
L 251.671448 -48.772963 
L 250.878113 -50.105895 
L 250.084779 -51.564541 
L 249.291444 -53.155208 
L 248.498109 -54.883787 
L 247.704775 -56.755641 
L 246.91144 -58.775499 
L 246.118105 -60.947336 
L 245.324771 -63.274264 
L 244.531436 -65.758426 
L 243.738101 -68.400886 
L 242.944766 -71.201542 
L 242.151432 -74.159035 
L 241.358097 -77.270683 
L 240.564762 -80.532426 
L 239.771428 -83.938784 
L 238.978093 -87.482847 
L 238.184758 -91.156276 
L 237.391424 -94.949334 
L 236.598089 -98.850937 
L 235.804754 -102.848734 
L 235.01142 -106.929209 
L 234.218085 -111.077806 
L 233.42475 -115.279084 
L 232.631416 -119.516883 
L 231.838081 -123.774517 
L 231.044746 -128.034982 
L 230.251411 -132.281173 
L 229.458077 -136.49611 
L 228.664742 -140.663174 
L 227.871407 -144.766337 
L 227.078073 -148.790392 
L 226.284738 -152.721167 
L 225.491403 -156.545733 
L 224.698069 -160.252588 
L 223.904734 -163.831818 
L 223.111399 -167.275238 
L 222.318065 -170.576493 
L 221.52473 -173.731135 
L 220.731395 -176.73666 
L 219.938061 -179.592516 
L 219.144726 -182.300067 
L 218.351391 -184.862528 
L 217.558056 -187.284861 
L 216.764722 -189.573645 
L 215.971387 -191.736908 
L 215.178052 -193.78394 
L 214.384718 -195.725086 
L 213.591383 -197.571509 
L 212.798048 -199.33496 
L 212.004714 -201.027522 
L 211.211379 -202.661367 
L 210.418044 -204.248507 
L 209.62471 -205.800559 
L 208.831375 -207.328523 
L 208.03804 -208.84258 
L 207.244705 -210.351906 
L 206.451371 -211.864524 
L 205.658036 -213.387174 
L 204.864701 -214.925224 
L 204.071367 -216.48261 
L 203.278032 -218.061808 
L 202.484697 -219.66385 
L 201.691363 -221.288362 
L 200.898028 -222.933645 
L 200.104693 -224.59678 
L 199.311359 -226.273766 
L 198.518024 -227.959679 
L 197.724689 -229.648853 
L 196.931355 -231.335082 
L 196.13802 -233.01183 
L 195.344685 -234.672449 
L 194.55135 -236.3104 
L 193.758016 -237.919477 
L 192.964681 -239.49401 
L 192.171346 -241.029071 
L 191.378012 -242.52065 
L 190.584677 -243.965813 
L 189.791342 -245.362835 
L 188.998008 -246.711296 
L 188.204673 -248.012149 
L 187.411338 -249.26775 
L 186.618004 -250.481842 
L 185.824669 -251.659506 
L 185.031334 -252.807071 
L 184.238 -253.931977 
L 183.444665 -255.042604 
L 182.65133 -256.148063 
L 181.857995 -257.257954 
L 181.064661 -258.382093 
L 180.271326 -259.530213 
L 179.477991 -260.711652 
L 178.684657 -261.935025 
L 177.891322 -263.207889 
L 177.097987 -264.536419 
L 176.304653 -265.925088 
L 175.511318 -267.376365 
L 174.717983 -268.890451 
L 173.924649 -270.465034 
L 173.131314 -272.095103 
L 172.337979 -273.772796 
L 171.544645 -275.487316 
L 170.75131 -277.224896 
L 169.957975 -278.968829 
L 169.16464 -280.699571 
L 168.371306 -282.394898 
L 167.577971 -284.030135 
L 166.784636 -285.578444 
L 165.991302 -287.011172 
L 165.197967 -288.298249 
L 164.404632 -289.408631 
L 163.611298 -290.310785 
L 162.817963 -290.973197 
L 162.024628 -291.364898 
L 161.231294 -291.456 
L 160.437959 -291.218225 
L 159.644624 -290.625421 
L 158.85129 -289.654046 
L 158.057955 -288.283626 
L 157.26462 -286.497156 
L 156.471285 -284.281447 
L 155.677951 -281.627419 
L 154.884616 -278.530314 
L 154.091281 -274.989843 
L 153.297947 -271.010253 
L 152.504612 -266.600319 
L 151.711277 -261.773258 
L 150.917943 -256.546568 
L 150.124608 -250.941801 
L 149.331273 -244.984262 
L 148.537939 -238.702661 
L 147.744604 -232.128704 
L 146.951269 -225.296652 
L 146.157935 -218.242839 
L 145.3646 -211.005177 
L 144.571265 -203.62264 
L 143.77793 -196.134752 
L 142.984596 -188.581081 
L 142.191261 -181.00075 
L 141.397926 -173.43197 
L 140.604592 -165.911611 
L 139.811257 -158.474806 
L 139.017922 -151.154609 
L 138.224588 -143.981686 
L 137.431253 -136.984075 
L 136.637918 -130.186987 
L 135.844584 -123.612661 
L 135.051249 -117.280281 
L 134.257914 -111.205932 
L 133.46458 -105.402611 
L 132.671245 -99.880285 
L 131.87791 -94.64598 
L 131.084575 -89.703917 
L 130.291241 -85.055672 
L 129.497906 -80.700362 
L 128.704571 -76.634855 
L 127.911237 -72.853987 
L 127.117902 -69.350802 
L 126.324567 -66.116782 
L 125.531233 -63.142085 
L 124.737898 -60.415783 
L 123.944563 -57.926081 
L 123.151229 -55.660536 
L 122.357894 -53.60626 
L 121.564559 -51.750103 
L 120.771225 -50.078829 
L 119.97789 -48.579262 
L 119.184555 -47.238426 
L 118.39122 -46.043655 
L 117.597886 -44.982699 
L 116.804551 -44.043796 
L 116.011216 -43.21574 
L 115.217882 -42.487927 
L 114.424547 -41.85039 
L 113.631212 -41.293819 
L 112.837878 -40.809569 
L 112.044543 -40.389657 
L 111.251208 -40.026758 
L 110.457874 -39.714177 
L 109.664539 -39.445838 
z
" style="stroke: #1f77b4"/>
    </defs>
    <g clip-path="url(#pc9972bfd71)">
     <use xlink:href="#m08d059bd9c" x="0" y="345.6" style="fill: #1f77b4; fill-opacity: 0.25; stroke: #1f77b4"/>
    </g>
   </g>
   <g id="matplotlib.axis_1">
    <g id="xtick_1">
     <g id="line2d_1">
      <defs>
       <path id="m353e238cbe" d="M 0 0 
L 0 3.5 
" style="stroke: #000000; stroke-width: 0.8"/>
      </defs>
      <g>
       <use xlink:href="#m353e238cbe" x="120.715687" y="307.584" style="stroke: #000000; stroke-width: 0.8"/>
      </g>
     </g>
     <g id="text_1">
      <!-- 0.46 -->
      <g transform="translate(109.582874 322.182437) scale(0.1 -0.1)">
       <defs>
        <path id="DejaVuSans-30" d="M 2034 4250 
Q 1547 4250 1301 3770 
Q 1056 3291 1056 2328 
Q 1056 1369 1301 889 
Q 1547 409 2034 409 
Q 2525 409 2770 889 
Q 3016 1369 3016 2328 
Q 3016 3291 2770 3770 
Q 2525 4250 2034 4250 
z
M 2034 4750 
Q 2819 4750 3233 4129 
Q 3647 3509 3647 2328 
Q 3647 1150 3233 529 
Q 2819 -91 2034 -91 
Q 1250 -91 836 529 
Q 422 1150 422 2328 
Q 422 3509 836 4129 
Q 1250 4750 2034 4750 
z
" transform="scale(0.015625)"/>
        <path id="DejaVuSans-2e" d="M 684 794 
L 1344 794 
L 1344 0 
L 684 0 
L 684 794 
z
" transform="scale(0.015625)"/>
        <path id="DejaVuSans-34" d="M 2419 4116 
L 825 1625 
L 2419 1625 
L 2419 4116 
z
M 2253 4666 
L 3047 4666 
L 3047 1625 
L 3713 1625 
L 3713 1100 
L 3047 1100 
L 3047 0 
L 2419 0 
L 2419 1100 
L 313 1100 
L 313 1709 
L 2253 4666 
z
" transform="scale(0.015625)"/>
        <path id="DejaVuSans-36" d="M 2113 2584 
Q 1688 2584 1439 2293 
Q 1191 2003 1191 1497 
Q 1191 994 1439 701 
Q 1688 409 2113 409 
Q 2538 409 2786 701 
Q 3034 994 3034 1497 
Q 3034 2003 2786 2293 
Q 2538 2584 2113 2584 
z
M 3366 4563 
L 3366 3988 
Q 3128 4100 2886 4159 
Q 2644 4219 2406 4219 
Q 1781 4219 1451 3797 
Q 1122 3375 1075 2522 
Q 1259 2794 1537 2939 
Q 1816 3084 2150 3084 
Q 2853 3084 3261 2657 
Q 3669 2231 3669 1497 
Q 3669 778 3244 343 
Q 2819 -91 2113 -91 
Q 1303 -91 875 529 
Q 447 1150 447 2328 
Q 447 3434 972 4092 
Q 1497 4750 2381 4750 
Q 2619 4750 2861 4703 
Q 3103 4656 3366 4563 
z
" transform="scale(0.015625)"/>
       </defs>
       <use xlink:href="#DejaVuSans-30"/>
       <use xlink:href="#DejaVuSans-2e" x="63.623047"/>
       <use xlink:href="#DejaVuSans-34" x="95.410156"/>
       <use xlink:href="#DejaVuSans-36" x="159.033203"/>
      </g>
     </g>
    </g>
    <g id="xtick_2">
     <g id="line2d_2">
      <g>
       <use xlink:href="#m353e238cbe" x="191.787991" y="307.584" style="stroke: #000000; stroke-width: 0.8"/>
      </g>
     </g>
     <g id="text_2">
      <!-- 0.48 -->
      <g transform="translate(180.655179 322.182437) scale(0.1 -0.1)">
       <defs>
        <path id="DejaVuSans-38" d="M 2034 2216 
Q 1584 2216 1326 1975 
Q 1069 1734 1069 1313 
Q 1069 891 1326 650 
Q 1584 409 2034 409 
Q 2484 409 2743 651 
Q 3003 894 3003 1313 
Q 3003 1734 2745 1975 
Q 2488 2216 2034 2216 
z
M 1403 2484 
Q 997 2584 770 2862 
Q 544 3141 544 3541 
Q 544 4100 942 4425 
Q 1341 4750 2034 4750 
Q 2731 4750 3128 4425 
Q 3525 4100 3525 3541 
Q 3525 3141 3298 2862 
Q 3072 2584 2669 2484 
Q 3125 2378 3379 2068 
Q 3634 1759 3634 1313 
Q 3634 634 3220 271 
Q 2806 -91 2034 -91 
Q 1263 -91 848 271 
Q 434 634 434 1313 
Q 434 1759 690 2068 
Q 947 2378 1403 2484 
z
M 1172 3481 
Q 1172 3119 1398 2916 
Q 1625 2713 2034 2713 
Q 2441 2713 2670 2916 
Q 2900 3119 2900 3481 
Q 2900 3844 2670 4047 
Q 2441 4250 2034 4250 
Q 1625 4250 1398 4047 
Q 1172 3844 1172 3481 
z
" transform="scale(0.015625)"/>
       </defs>
       <use xlink:href="#DejaVuSans-30"/>
       <use xlink:href="#DejaVuSans-2e" x="63.623047"/>
       <use xlink:href="#DejaVuSans-34" x="95.410156"/>
       <use xlink:href="#DejaVuSans-38" x="159.033203"/>
      </g>
     </g>
    </g>
    <g id="xtick_3">
     <g id="line2d_3">
      <g>
       <use xlink:href="#m353e238cbe" x="262.860296" y="307.584" style="stroke: #000000; stroke-width: 0.8"/>
      </g>
     </g>
     <g id="text_3">
      <!-- 0.50 -->
      <g transform="translate(251.727483 322.182437) scale(0.1 -0.1)">
       <defs>
        <path id="DejaVuSans-35" d="M 691 4666 
L 3169 4666 
L 3169 4134 
L 1269 4134 
L 1269 2991 
Q 1406 3038 1543 3061 
Q 1681 3084 1819 3084 
Q 2600 3084 3056 2656 
Q 3513 2228 3513 1497 
Q 3513 744 3044 326 
Q 2575 -91 1722 -91 
Q 1428 -91 1123 -41 
Q 819 9 494 109 
L 494 744 
Q 775 591 1075 516 
Q 1375 441 1709 441 
Q 2250 441 2565 725 
Q 2881 1009 2881 1497 
Q 2881 1984 2565 2268 
Q 2250 2553 1709 2553 
Q 1456 2553 1204 2497 
Q 953 2441 691 2322 
L 691 4666 
z
" transform="scale(0.015625)"/>
       </defs>
       <use xlink:href="#DejaVuSans-30"/>
       <use xlink:href="#DejaVuSans-2e" x="63.623047"/>
       <use xlink:href="#DejaVuSans-35" x="95.410156"/>
       <use xlink:href="#DejaVuSans-30" x="159.033203"/>
      </g>
     </g>
    </g>
    <g id="xtick_4">
     <g id="line2d_4">
      <g>
       <use xlink:href="#m353e238cbe" x="333.9326" y="307.584" style="stroke: #000000; stroke-width: 0.8"/>
      </g>
     </g>
     <g id="text_4">
      <!-- 0.52 -->
      <g transform="translate(322.799787 322.182437) scale(0.1 -0.1)">
       <defs>
        <path id="DejaVuSans-32" d="M 1228 531 
L 3431 531 
L 3431 0 
L 469 0 
L 469 531 
Q 828 903 1448 1529 
Q 2069 2156 2228 2338 
Q 2531 2678 2651 2914 
Q 2772 3150 2772 3378 
Q 2772 3750 2511 3984 
Q 2250 4219 1831 4219 
Q 1534 4219 1204 4116 
Q 875 4013 500 3803 
L 500 4441 
Q 881 4594 1212 4672 
Q 1544 4750 1819 4750 
Q 2544 4750 2975 4387 
Q 3406 4025 3406 3419 
Q 3406 3131 3298 2873 
Q 3191 2616 2906 2266 
Q 2828 2175 2409 1742 
Q 1991 1309 1228 531 
z
" transform="scale(0.015625)"/>
       </defs>
       <use xlink:href="#DejaVuSans-30"/>
       <use xlink:href="#DejaVuSans-2e" x="63.623047"/>
       <use xlink:href="#DejaVuSans-35" x="95.410156"/>
       <use xlink:href="#DejaVuSans-32" x="159.033203"/>
      </g>
     </g>
    </g>
    <g id="xtick_5">
     <g id="line2d_5">
      <g>
       <use xlink:href="#m353e238cbe" x="405.004904" y="307.584" style="stroke: #000000; stroke-width: 0.8"/>
      </g>
     </g>
     <g id="text_5">
      <!-- 0.54 -->
      <g transform="translate(393.872092 322.182437) scale(0.1 -0.1)">
       <use xlink:href="#DejaVuSans-30"/>
       <use xlink:href="#DejaVuSans-2e" x="63.623047"/>
       <use xlink:href="#DejaVuSans-35" x="95.410156"/>
       <use xlink:href="#DejaVuSans-34" x="159.033203"/>
      </g>
     </g>
    </g>
    <g id="text_6">
     <!-- Loss -->
     <g transform="translate(225.192813 335.860562) scale(0.1 -0.1)">
      <defs>
       <path id="DejaVuSans-4c" d="M 628 4666 
L 1259 4666 
L 1259 531 
L 3531 531 
L 3531 0 
L 628 0 
L 628 4666 
z
" transform="scale(0.015625)"/>
       <path id="DejaVuSans-6f" d="M 1959 3097 
Q 1497 3097 1228 2736 
Q 959 2375 959 1747 
Q 959 1119 1226 758 
Q 1494 397 1959 397 
Q 2419 397 2687 759 
Q 2956 1122 2956 1747 
Q 2956 2369 2687 2733 
Q 2419 3097 1959 3097 
z
M 1959 3584 
Q 2709 3584 3137 3096 
Q 3566 2609 3566 1747 
Q 3566 888 3137 398 
Q 2709 -91 1959 -91 
Q 1206 -91 779 398 
Q 353 888 353 1747 
Q 353 2609 779 3096 
Q 1206 3584 1959 3584 
z
" transform="scale(0.015625)"/>
       <path id="DejaVuSans-73" d="M 2834 3397 
L 2834 2853 
Q 2591 2978 2328 3040 
Q 2066 3103 1784 3103 
Q 1356 3103 1142 2972 
Q 928 2841 928 2578 
Q 928 2378 1081 2264 
Q 1234 2150 1697 2047 
L 1894 2003 
Q 2506 1872 2764 1633 
Q 3022 1394 3022 966 
Q 3022 478 2636 193 
Q 2250 -91 1575 -91 
Q 1294 -91 989 -36 
Q 684 19 347 128 
L 347 722 
Q 666 556 975 473 
Q 1284 391 1588 391 
Q 1994 391 2212 530 
Q 2431 669 2431 922 
Q 2431 1156 2273 1281 
Q 2116 1406 1581 1522 
L 1381 1569 
Q 847 1681 609 1914 
Q 372 2147 372 2553 
Q 372 3047 722 3315 
Q 1072 3584 1716 3584 
Q 2034 3584 2315 3537 
Q 2597 3491 2834 3397 
z
" transform="scale(0.015625)"/>
      </defs>
      <use xlink:href="#DejaVuSans-4c"/>
      <use xlink:href="#DejaVuSans-6f" x="53.962891"/>
      <use xlink:href="#DejaVuSans-73" x="115.144531"/>
      <use xlink:href="#DejaVuSans-73" x="167.244141"/>
     </g>
    </g>
   </g>
   <g id="matplotlib.axis_2">
    <g id="ytick_1">
     <g id="line2d_6">
      <defs>
       <path id="m5addd527be" d="M 0 0 
L -3.5 0 
" style="stroke: #000000; stroke-width: 0.8"/>
      </defs>
      <g>
       <use xlink:href="#m5addd527be" x="57.6" y="307.584" style="stroke: #000000; stroke-width: 0.8"/>
      </g>
     </g>
     <g id="text_7">
      <!-- 0 -->
      <g transform="translate(44.2375 311.383219) scale(0.1 -0.1)">
       <use xlink:href="#DejaVuSans-30"/>
      </g>
     </g>
    </g>
    <g id="ytick_2">
     <g id="line2d_7">
      <g>
       <use xlink:href="#m5addd527be" x="57.6" y="252.230552" style="stroke: #000000; stroke-width: 0.8"/>
      </g>
     </g>
     <g id="text_8">
      <!-- 10 -->
      <g transform="translate(37.875 256.029771) scale(0.1 -0.1)">
       <defs>
        <path id="DejaVuSans-31" d="M 794 531 
L 1825 531 
L 1825 4091 
L 703 3866 
L 703 4441 
L 1819 4666 
L 2450 4666 
L 2450 531 
L 3481 531 
L 3481 0 
L 794 0 
L 794 531 
z
" transform="scale(0.015625)"/>
       </defs>
       <use xlink:href="#DejaVuSans-31"/>
       <use xlink:href="#DejaVuSans-30" x="63.623047"/>
      </g>
     </g>
    </g>
    <g id="ytick_3">
     <g id="line2d_8">
      <g>
       <use xlink:href="#m5addd527be" x="57.6" y="196.877105" style="stroke: #000000; stroke-width: 0.8"/>
      </g>
     </g>
     <g id="text_9">
      <!-- 20 -->
      <g transform="translate(37.875 200.676323) scale(0.1 -0.1)">
       <use xlink:href="#DejaVuSans-32"/>
       <use xlink:href="#DejaVuSans-30" x="63.623047"/>
      </g>
     </g>
    </g>
    <g id="ytick_4">
     <g id="line2d_9">
      <g>
       <use xlink:href="#m5addd527be" x="57.6" y="141.523657" style="stroke: #000000; stroke-width: 0.8"/>
      </g>
     </g>
     <g id="text_10">
      <!-- 30 -->
      <g transform="translate(37.875 145.322876) scale(0.1 -0.1)">
       <defs>
        <path id="DejaVuSans-33" d="M 2597 2516 
Q 3050 2419 3304 2112 
Q 3559 1806 3559 1356 
Q 3559 666 3084 287 
Q 2609 -91 1734 -91 
Q 1441 -91 1130 -33 
Q 819 25 488 141 
L 488 750 
Q 750 597 1062 519 
Q 1375 441 1716 441 
Q 2309 441 2620 675 
Q 2931 909 2931 1356 
Q 2931 1769 2642 2001 
Q 2353 2234 1838 2234 
L 1294 2234 
L 1294 2753 
L 1863 2753 
Q 2328 2753 2575 2939 
Q 2822 3125 2822 3475 
Q 2822 3834 2567 4026 
Q 2313 4219 1838 4219 
Q 1578 4219 1281 4162 
Q 984 4106 628 3988 
L 628 4550 
Q 988 4650 1302 4700 
Q 1616 4750 1894 4750 
Q 2613 4750 3031 4423 
Q 3450 4097 3450 3541 
Q 3450 3153 3228 2886 
Q 3006 2619 2597 2516 
z
" transform="scale(0.015625)"/>
       </defs>
       <use xlink:href="#DejaVuSans-33"/>
       <use xlink:href="#DejaVuSans-30" x="63.623047"/>
      </g>
     </g>
    </g>
    <g id="ytick_5">
     <g id="line2d_10">
      <g>
       <use xlink:href="#m5addd527be" x="57.6" y="86.170209" style="stroke: #000000; stroke-width: 0.8"/>
      </g>
     </g>
     <g id="text_11">
      <!-- 40 -->
      <g transform="translate(37.875 89.969428) scale(0.1 -0.1)">
       <use xlink:href="#DejaVuSans-34"/>
       <use xlink:href="#DejaVuSans-30" x="63.623047"/>
      </g>
     </g>
    </g>
    <g id="text_12">
     <!-- Density -->
     <g transform="translate(31.795312 193.536594) rotate(-90) scale(0.1 -0.1)">
      <defs>
       <path id="DejaVuSans-44" d="M 1259 4147 
L 1259 519 
L 2022 519 
Q 2988 519 3436 956 
Q 3884 1394 3884 2338 
Q 3884 3275 3436 3711 
Q 2988 4147 2022 4147 
L 1259 4147 
z
M 628 4666 
L 1925 4666 
Q 3281 4666 3915 4102 
Q 4550 3538 4550 2338 
Q 4550 1131 3912 565 
Q 3275 0 1925 0 
L 628 0 
L 628 4666 
z
" transform="scale(0.015625)"/>
       <path id="DejaVuSans-65" d="M 3597 1894 
L 3597 1613 
L 953 1613 
Q 991 1019 1311 708 
Q 1631 397 2203 397 
Q 2534 397 2845 478 
Q 3156 559 3463 722 
L 3463 178 
Q 3153 47 2828 -22 
Q 2503 -91 2169 -91 
Q 1331 -91 842 396 
Q 353 884 353 1716 
Q 353 2575 817 3079 
Q 1281 3584 2069 3584 
Q 2775 3584 3186 3129 
Q 3597 2675 3597 1894 
z
M 3022 2063 
Q 3016 2534 2758 2815 
Q 2500 3097 2075 3097 
Q 1594 3097 1305 2825 
Q 1016 2553 972 2059 
L 3022 2063 
z
" transform="scale(0.015625)"/>
       <path id="DejaVuSans-6e" d="M 3513 2113 
L 3513 0 
L 2938 0 
L 2938 2094 
Q 2938 2591 2744 2837 
Q 2550 3084 2163 3084 
Q 1697 3084 1428 2787 
Q 1159 2491 1159 1978 
L 1159 0 
L 581 0 
L 581 3500 
L 1159 3500 
L 1159 2956 
Q 1366 3272 1645 3428 
Q 1925 3584 2291 3584 
Q 2894 3584 3203 3211 
Q 3513 2838 3513 2113 
z
" transform="scale(0.015625)"/>
       <path id="DejaVuSans-69" d="M 603 3500 
L 1178 3500 
L 1178 0 
L 603 0 
L 603 3500 
z
M 603 4863 
L 1178 4863 
L 1178 4134 
L 603 4134 
L 603 4863 
z
" transform="scale(0.015625)"/>
       <path id="DejaVuSans-74" d="M 1172 4494 
L 1172 3500 
L 2356 3500 
L 2356 3053 
L 1172 3053 
L 1172 1153 
Q 1172 725 1289 603 
Q 1406 481 1766 481 
L 2356 481 
L 2356 0 
L 1766 0 
Q 1100 0 847 248 
Q 594 497 594 1153 
L 594 3053 
L 172 3053 
L 172 3500 
L 594 3500 
L 594 4494 
L 1172 4494 
z
" transform="scale(0.015625)"/>
       <path id="DejaVuSans-79" d="M 2059 -325 
Q 1816 -950 1584 -1140 
Q 1353 -1331 966 -1331 
L 506 -1331 
L 506 -850 
L 844 -850 
Q 1081 -850 1212 -737 
Q 1344 -625 1503 -206 
L 1606 56 
L 191 3500 
L 800 3500 
L 1894 763 
L 2988 3500 
L 3597 3500 
L 2059 -325 
z
" transform="scale(0.015625)"/>
      </defs>
      <use xlink:href="#DejaVuSans-44"/>
      <use xlink:href="#DejaVuSans-65" x="77.001953"/>
      <use xlink:href="#DejaVuSans-6e" x="138.525391"/>
      <use xlink:href="#DejaVuSans-73" x="201.904297"/>
      <use xlink:href="#DejaVuSans-69" x="254.003906"/>
      <use xlink:href="#DejaVuSans-74" x="281.787109"/>
      <use xlink:href="#DejaVuSans-79" x="320.996094"/>
     </g>
    </g>
   </g>
   <g id="line2d_11">
    <path d="M 89.877667 306.466131 
L 92.320826 305.971739 
L 94.763985 305.290577 
L 97.207144 304.366252 
L 99.650302 303.130974 
L 102.093461 301.505287 
L 104.53662 299.398595 
L 106.979779 296.710691 
L 108.201358 295.115494 
L 109.422937 293.334519 
L 110.644517 291.353989 
L 113.087676 286.740176 
L 115.530834 281.17092 
L 117.973993 274.556495 
L 120.417152 266.828789 
L 122.860311 257.949826 
L 125.303469 247.91991 
L 127.746628 236.784619 
L 130.189787 224.639837 
L 133.854525 204.868863 
L 138.740842 176.778495 
L 143.62716 148.805336 
L 146.070319 135.658487 
L 148.513477 123.490575 
L 150.956636 112.584237 
L 153.399795 103.179054 
L 154.621374 99.099573 
L 155.842954 95.460003 
L 157.064533 92.273675 
L 158.286113 89.549788 
L 159.507692 87.29342 
L 160.729271 85.5056 
L 161.950851 84.183456 
L 163.17243 83.320416 
L 164.394009 82.906469 
L 165.615589 82.928471 
L 166.837168 83.370484 
L 168.058748 84.214148 
L 169.280327 85.439065 
L 170.501906 87.023198 
L 171.723486 88.943257 
L 172.945065 91.175082 
L 174.166644 93.694004 
L 176.609803 99.493878 
L 179.052962 106.147142 
L 181.496121 113.467489 
L 185.160859 125.32769 
L 191.268756 146.240386 
L 197.376653 167.022089 
L 201.041391 178.823306 
L 204.706129 189.803318 
L 207.149288 196.556634 
L 209.592446 202.792046 
L 212.035605 208.466902 
L 214.478764 213.552342 
L 216.921923 218.035353 
L 219.365081 221.920212 
L 221.80824 225.229099 
L 224.251399 228.001712 
L 226.694558 230.293838 
L 229.137716 232.174941 
L 231.580875 233.724915 
L 234.024034 235.030225 
L 237.688772 236.723408 
L 242.57509 238.927615 
L 246.239828 240.852926 
L 248.682986 242.365829 
L 251.126145 244.101618 
L 253.569304 246.077827 
L 256.012463 248.298453 
L 258.455621 250.755455 
L 262.12036 254.842175 
L 265.785098 259.325074 
L 270.671415 265.712716 
L 281.66563 280.301951 
L 285.330368 284.799584 
L 288.995106 288.946581 
L 292.659844 292.671566 
L 295.103003 294.89622 
L 297.546162 296.904533 
L 299.98932 298.694326 
L 302.432479 300.268426 
L 304.875638 301.634222 
L 307.318797 302.803024 
L 309.761955 303.789279 
L 313.426693 304.96334 
L 317.091432 305.82588 
L 320.75617 306.438946 
L 325.642487 306.967204 
L 331.750384 307.320409 
L 332.971964 307.363916 
L 332.971964 307.363916 
" clip-path="url(#pc9972bfd71)" style="fill: none; stroke: #1f77b4; stroke-width: 1.5; stroke-linecap: square"/>
   </g>
   <g id="line2d_12">
    <path d="M 100.001463 306.38178 
L 102.379724 305.853304 
L 104.757985 305.126732 
L 107.136246 304.142954 
L 109.514507 302.831229 
L 111.892768 301.109063 
L 114.271029 298.882945 
L 116.64929 296.050175 
L 117.83842 294.37243 
L 120.216681 290.425051 
L 122.594942 285.59804 
L 124.973203 279.790386 
L 127.351464 272.91676 
L 129.729725 264.916034 
L 132.107986 255.759948 
L 134.486247 245.461194 
L 136.864508 234.080082 
L 139.242769 221.728934 
L 142.810161 201.760012 
L 153.512335 139.666694 
L 155.890596 127.404109 
L 158.268857 116.356173 
L 160.647118 106.764853 
L 161.836249 102.575882 
L 163.025379 98.815699 
L 164.21451 95.497244 
L 165.40364 92.629092 
L 166.592771 90.215441 
L 167.781901 88.25618 
L 168.971032 86.74703 
L 170.160162 85.679762 
L 171.349293 85.042472 
L 172.538423 84.819918 
L 173.727554 84.993901 
L 174.916684 85.543688 
L 176.105815 86.446457 
L 177.294945 87.677765 
L 178.484076 89.212015 
L 179.673206 91.022922 
L 180.862337 93.08396 
L 183.240598 97.851629 
L 185.618859 103.313207 
L 187.99712 109.286099 
L 191.564511 118.870739 
L 197.510163 135.619848 
L 211.779729 175.959031 
L 217.725382 192.027125 
L 221.292773 201.131132 
L 224.860165 209.627407 
L 227.238426 214.871635 
L 229.616687 219.730409 
L 231.994948 224.171856 
L 234.373209 228.176062 
L 236.75147 231.736526 
L 239.129731 234.860723 
L 241.507992 237.569868 
L 243.886253 239.897977 
L 246.264514 241.890364 
L 248.642775 243.601709 
L 252.210166 245.778311 
L 258.155819 248.92687 
L 261.72321 250.893711 
L 265.290602 253.157361 
L 267.668863 254.903799 
L 270.047124 256.873524 
L 272.425385 259.080051 
L 274.803646 261.522839 
L 278.371037 265.5951 
L 281.938429 270.063296 
L 289.073212 279.559658 
L 293.829734 285.724193 
L 297.397125 289.978069 
L 300.964517 293.778145 
L 303.342778 296.021097 
L 305.721039 298.018663 
L 308.0993 299.769609 
L 310.477561 301.280373 
L 312.855822 302.563679 
L 315.234083 303.636983 
L 317.612344 304.520918 
L 321.179735 305.540774 
L 324.747127 306.261008 
L 328.314518 306.752664 
L 333.07104 307.157103 
L 336.638431 307.334068 
L 336.638431 307.334068 
" clip-path="url(#pc9972bfd71)" style="fill: none; stroke: #ff7f0e; stroke-width: 1.5; stroke-linecap: square"/>
   </g>
   <g id="line2d_13">
    <path d="M 73.832727 306.689249 
L 77.095587 306.24974 
L 80.358447 305.626847 
L 83.621307 304.759917 
L 86.884166 303.575117 
L 90.147026 301.98526 
L 91.778456 301.007747 
L 93.409886 299.89077 
L 95.041316 298.620341 
L 96.672746 297.182093 
L 98.304175 295.561451 
L 99.935605 293.743834 
L 101.567035 291.714884 
L 103.198465 289.460725 
L 104.829895 286.968238 
L 106.461325 284.225366 
L 108.092755 281.221423 
L 109.724185 277.947421 
L 111.355614 274.396385 
L 114.618474 266.447303 
L 117.881334 257.370317 
L 121.144194 247.21167 
L 124.407053 236.073148 
L 127.669913 224.113786 
L 132.564203 205.116054 
L 140.721352 172.971827 
L 143.984212 160.856785 
L 147.247072 149.627144 
L 150.509931 139.551925 
L 152.141361 135.01874 
L 153.772791 130.853152 
L 155.404221 127.073984 
L 157.035651 123.696192 
L 158.667081 120.730848 
L 160.298511 118.1852 
L 161.929941 116.062814 
L 163.56137 114.363775 
L 165.1928 113.08495 
L 166.82423 112.220289 
L 168.45566 111.761167 
L 170.08709 111.696736 
L 171.71852 112.014289 
L 173.34995 112.69962 
L 174.98138 113.737359 
L 176.61281 115.111283 
L 178.244239 116.804599 
L 179.875669 118.800174 
L 181.507099 121.08073 
L 183.138529 123.628987 
L 184.769959 126.427766 
L 188.032819 132.708972 
L 191.295678 139.790196 
L 194.558538 147.539203 
L 197.821398 155.823959 
L 202.715688 168.962572 
L 217.398556 209.182937 
L 220.661416 217.443353 
L 223.924276 225.21999 
L 227.187136 232.439195 
L 230.449995 239.052209 
L 233.712855 245.036122 
L 236.975715 250.393042 
L 240.238575 255.147596 
L 243.501434 259.343045 
L 246.764294 263.036427 
L 250.027154 266.293144 
L 253.290014 269.181469 
L 256.552873 271.767354 
L 259.815733 274.10993 
L 264.710023 277.270818 
L 269.604312 280.100784 
L 274.498602 282.641377 
L 279.392892 284.875689 
L 282.655751 286.169576 
L 285.918611 287.285616 
L 289.181471 288.208608 
L 292.444331 288.930413 
L 295.70719 289.453046 
L 298.97005 289.79058 
L 303.86434 290.011246 
L 310.390059 289.995672 
L 316.915779 290.006198 
L 321.810069 290.272044 
L 325.072928 290.642386 
L 328.335788 291.190953 
L 331.598648 291.921913 
L 334.861508 292.825329 
L 339.755797 294.452086 
L 346.281517 296.943118 
L 356.070096 300.718058 
L 360.964386 302.372222 
L 365.858675 303.776139 
L 370.752965 304.906694 
L 375.647254 305.77274 
L 380.541544 306.405056 
L 387.067264 306.957794 
L 393.592983 307.273506 
L 398.487273 307.40864 
L 398.487273 307.40864 
" clip-path="url(#pc9972bfd71)" style="fill: none; stroke: #2ca02c; stroke-width: 1.5; stroke-linecap: square"/>
   </g>
   <g id="line2d_14">
    <path d="M 99.214519 306.608143 
L 102.321957 305.941284 
L 104.393582 305.298288 
L 106.465208 304.446003 
L 108.536833 303.333035 
L 110.608458 301.90119 
L 112.680083 300.086413 
L 114.751709 297.82038 
L 116.823334 295.032766 
L 118.894959 291.654171 
L 120.966584 287.619584 
L 123.03821 282.872214 
L 125.109835 277.367405 
L 127.18146 271.07633 
L 129.253085 263.989106 
L 131.324711 256.117004 
L 133.396336 247.493461 
L 136.503774 233.27567 
L 139.611212 217.764399 
L 143.754462 195.672745 
L 155.148401 133.724996 
L 158.255839 118.210991 
L 161.363277 103.889689 
L 163.434902 95.154422 
L 165.506528 87.176606 
L 167.578153 80.05157 
L 169.649778 73.876433 
L 171.721403 68.74778 
L 172.757216 66.605067 
L 173.793029 64.758106 
L 174.828841 63.217088 
L 175.864654 61.991361 
L 176.900467 61.089276 
L 177.936279 60.518029 
L 178.972092 60.283522 
L 180.007905 60.390226 
L 181.043717 60.841065 
L 182.07953 61.637319 
L 183.115342 62.778537 
L 184.151155 64.262483 
L 185.186968 66.085098 
L 186.22278 68.240488 
L 187.258593 70.720931 
L 189.330218 76.617166 
L 191.401844 83.677219 
L 193.473469 91.779358 
L 195.545094 100.780277 
L 198.652532 115.611915 
L 202.795782 136.940889 
L 209.010658 169.293848 
L 212.118096 184.359485 
L 214.189721 193.639044 
L 216.261347 202.158125 
L 218.332972 209.812106 
L 220.404597 216.520332 
L 222.476223 222.229107 
L 224.547848 226.914457 
L 225.58366 228.874554 
L 226.619473 230.584389 
L 227.655286 232.050192 
L 228.691098 233.280307 
L 229.726911 234.285159 
L 230.762724 235.077203 
L 231.798536 235.67084 
L 232.834349 236.0823 
L 233.870162 236.329503 
L 234.905974 236.43188 
L 236.977599 236.286211 
L 239.049225 235.822645 
L 243.192475 234.685053 
L 245.2641 234.370768 
L 246.299913 234.348345 
L 247.335726 234.43873 
L 248.371538 234.656705 
L 249.407351 235.014841 
L 250.443164 235.523355 
L 251.478976 236.189993 
L 252.514789 237.019971 
L 253.550602 238.015946 
L 255.622227 240.503909 
L 257.693852 243.625927 
L 259.765477 247.31887 
L 261.837103 251.490602 
L 264.944541 258.394188 
L 274.266854 279.806043 
L 276.33848 284.006579 
L 278.410105 287.842363 
L 280.48173 291.27824 
L 282.553355 294.299217 
L 284.624981 296.907929 
L 286.696606 299.121425 
L 288.768231 300.967622 
L 290.839856 302.48178 
L 292.911482 303.703261 
L 294.983107 304.672729 
L 297.054732 305.429924 
L 300.16217 306.248042 
L 303.269608 306.780776 
L 305.341233 307.02161 
L 305.341233 307.02161 
" clip-path="url(#pc9972bfd71)" style="fill: none; stroke: #d62728; stroke-width: 1.5; stroke-linecap: square"/>
   </g>
   <g id="line2d_15">
    <path d="M 108.583661 306.631226 
L 111.839071 305.939591 
L 114.009344 305.261618 
L 116.179618 304.352391 
L 118.349891 303.153026 
L 120.520164 301.596936 
L 122.690437 299.611246 
L 124.86071 297.119091 
L 127.030984 294.042822 
L 129.201257 290.308051 
L 131.37153 285.848315 
L 133.541803 280.610085 
L 135.712076 274.557655 
L 137.882349 267.677468 
L 140.052623 259.981344 
L 142.222896 251.508207 
L 144.393169 242.323977 
L 147.648579 227.419031 
L 151.989125 206.067125 
L 161.755355 157.139428 
L 165.010764 142.067841 
L 168.266174 128.178659 
L 170.436447 119.703274 
L 172.60672 111.931898 
L 174.776994 104.922756 
L 176.947267 98.727873 
L 179.11754 93.392523 
L 181.287813 88.953894 
L 182.37295 87.079837 
L 183.458086 85.439373 
L 184.543223 84.034135 
L 185.62836 82.864978 
L 186.713496 81.931975 
L 187.798633 81.234427 
L 188.883769 80.770893 
L 189.968906 80.539238 
L 191.054043 80.5367 
L 192.139179 80.75997 
L 193.224316 81.205275 
L 194.309452 81.868482 
L 195.394589 82.745185 
L 196.479726 83.830803 
L 197.564862 85.120656 
L 198.649999 86.610038 
L 200.820272 90.168703 
L 202.990545 94.469931 
L 205.160818 99.477243 
L 207.331091 105.152831 
L 209.501365 111.454631 
L 211.671638 118.332704 
L 214.927048 129.592132 
L 218.182457 141.737507 
L 230.11896 187.69402 
L 233.37437 198.784484 
L 235.544643 205.495812 
L 237.714916 211.597414 
L 239.885189 217.065456 
L 242.055462 221.903789 
L 244.225736 226.1423 
L 246.396009 229.833836 
L 248.566282 233.050022 
L 250.736555 235.876345 
L 252.906828 238.406832 
L 256.162238 241.859972 
L 262.673058 248.634821 
L 265.928468 252.422127 
L 269.183877 256.649181 
L 272.439287 261.329564 
L 275.694697 266.389963 
L 287.631199 285.533937 
L 290.886609 290.094456 
L 293.056882 292.831203 
L 295.227156 295.298596 
L 297.397429 297.486183 
L 299.567702 299.393651 
L 301.737975 301.029545 
L 303.908248 302.409596 
L 306.078522 303.554875 
L 308.248795 304.489926 
L 310.419068 305.241021 
L 313.674478 306.080444 
L 316.929887 306.649584 
L 321.270434 307.112783 
L 324.525844 307.312553 
L 324.525844 307.312553 
" clip-path="url(#pc9972bfd71)" style="fill: none; stroke: #9467bd; stroke-width: 1.5; stroke-linecap: square"/>
   </g>
   <g id="line2d_16">
    <path d="M 98.512918 306.677969 
L 101.876955 306.047236 
L 104.119646 305.43533 
L 106.362338 304.620264 
L 108.605029 303.550752 
L 110.84772 302.168242 
L 113.090411 300.407686 
L 115.333102 298.198945 
L 117.575794 295.468873 
L 119.818485 292.144082 
L 122.061176 288.154283 
L 124.303867 283.436065 
L 126.546559 277.936867 
L 128.78925 271.618866 
L 131.031941 264.462464 
L 133.274632 256.469074 
L 135.517324 247.662945 
L 137.760015 238.09187 
L 141.124052 222.461951 
L 144.488088 205.60278 
L 150.094817 175.93223 
L 155.701545 146.303488 
L 159.065581 129.579709 
L 161.308273 119.205894 
L 163.550964 109.637236 
L 165.793655 101.026211 
L 168.036346 93.516442 
L 170.279038 87.238569 
L 171.400383 84.597673 
L 172.521729 82.305347 
L 173.643074 80.372008 
L 174.76442 78.806279 
L 175.885766 77.614828 
L 177.007111 76.802228 
L 178.128457 76.370825 
L 179.249802 76.320641 
L 180.371148 76.649298 
L 181.492494 77.351976 
L 182.613839 78.421409 
L 183.735185 79.847912 
L 184.856531 81.61945 
L 185.977876 83.721743 
L 187.099222 86.138405 
L 189.341913 91.839837 
L 191.584604 98.557883 
L 193.827295 106.106855 
L 197.191332 118.556608 
L 202.79806 140.68539 
L 207.283443 158.081124 
L 210.64748 170.252277 
L 214.011517 181.346321 
L 216.254208 188.05698 
L 218.496899 194.18811 
L 220.73959 199.732298 
L 222.982281 204.696501 
L 225.224973 209.099731 
L 227.467664 212.971093 
L 229.710355 216.348187 
L 231.953046 219.275842 
L 234.195738 221.805108 
L 236.438429 223.992393 
L 238.68112 225.898674 
L 242.045157 228.373544 
L 253.258613 236.054973 
L 255.501304 237.969265 
L 257.743995 240.131324 
L 259.986687 242.572908 
L 262.229378 245.311717 
L 264.472069 248.350022 
L 266.71476 251.674116 
L 270.078797 257.128031 
L 274.56418 265.013814 
L 282.413599 279.03949 
L 285.777636 284.552908 
L 288.020327 287.924792 
L 290.263018 291.010891 
L 292.505709 293.788559 
L 294.748401 296.247486 
L 296.991092 298.38872 
L 299.233783 300.223116 
L 301.476474 301.769387 
L 303.719166 303.051992 
L 305.961857 304.099032 
L 308.204548 304.940313 
L 310.447239 305.605693 
L 313.811276 306.335905 
L 317.175313 306.820639 
L 321.660695 307.206444 
L 321.660695 307.206444 
" clip-path="url(#pc9972bfd71)" style="fill: none; stroke: #8c564b; stroke-width: 1.5; stroke-linecap: square"/>
   </g>
   <g id="patch_3">
    <path d="M 57.6 307.584 
L 57.6 41.472 
" style="fill: none; stroke: #000000; stroke-width: 0.8; stroke-linejoin: miter; stroke-linecap: square"/>
   </g>
   <g id="patch_4">
    <path d="M 414.72 307.584 
L 414.72 41.472 
" style="fill: none; stroke: #000000; stroke-width: 0.8; stroke-linejoin: miter; stroke-linecap: square"/>
   </g>
   <g id="patch_5">
    <path d="M 57.6 307.584 
L 414.72 307.584 
" style="fill: none; stroke: #000000; stroke-width: 0.8; stroke-linejoin: miter; stroke-linecap: square"/>
   </g>
   <g id="patch_6">
    <path d="M 57.6 41.472 
L 414.72 41.472 
" style="fill: none; stroke: #000000; stroke-width: 0.8; stroke-linejoin: miter; stroke-linecap: square"/>
   </g>
   <g id="legend_1">
    <g id="patch_7">
     <path d="M 421.72 174.179037 
L 637.5825 174.179037 
Q 639.5825 174.179037 639.5825 172.179037 
L 639.5825 70.432163 
Q 639.5825 68.432163 637.5825 68.432163 
L 421.72 68.432163 
Q 419.72 68.432163 419.72 70.432163 
L 419.72 172.179037 
Q 419.72 174.179037 421.72 174.179037 
z
" style="fill: #ffffff; opacity: 0.8; stroke: #cccccc; stroke-linejoin: miter"/>
    </g>
    <g id="line2d_17">
     <path d="M 423.72 76.5306 
L 433.72 76.5306 
L 443.72 76.5306 
" style="fill: none; stroke: #1f77b4; stroke-width: 1.5; stroke-linecap: square"/>
    </g>
    <g id="text_13">
     <!-- centralized training with 1 dataset -->
     <g transform="translate(451.72 80.0306) scale(0.1 -0.1)">
      <defs>
       <path id="DejaVuSans-63" d="M 3122 3366 
L 3122 2828 
Q 2878 2963 2633 3030 
Q 2388 3097 2138 3097 
Q 1578 3097 1268 2742 
Q 959 2388 959 1747 
Q 959 1106 1268 751 
Q 1578 397 2138 397 
Q 2388 397 2633 464 
Q 2878 531 3122 666 
L 3122 134 
Q 2881 22 2623 -34 
Q 2366 -91 2075 -91 
Q 1284 -91 818 406 
Q 353 903 353 1747 
Q 353 2603 823 3093 
Q 1294 3584 2113 3584 
Q 2378 3584 2631 3529 
Q 2884 3475 3122 3366 
z
" transform="scale(0.015625)"/>
       <path id="DejaVuSans-72" d="M 2631 2963 
Q 2534 3019 2420 3045 
Q 2306 3072 2169 3072 
Q 1681 3072 1420 2755 
Q 1159 2438 1159 1844 
L 1159 0 
L 581 0 
L 581 3500 
L 1159 3500 
L 1159 2956 
Q 1341 3275 1631 3429 
Q 1922 3584 2338 3584 
Q 2397 3584 2469 3576 
Q 2541 3569 2628 3553 
L 2631 2963 
z
" transform="scale(0.015625)"/>
       <path id="DejaVuSans-61" d="M 2194 1759 
Q 1497 1759 1228 1600 
Q 959 1441 959 1056 
Q 959 750 1161 570 
Q 1363 391 1709 391 
Q 2188 391 2477 730 
Q 2766 1069 2766 1631 
L 2766 1759 
L 2194 1759 
z
M 3341 1997 
L 3341 0 
L 2766 0 
L 2766 531 
Q 2569 213 2275 61 
Q 1981 -91 1556 -91 
Q 1019 -91 701 211 
Q 384 513 384 1019 
Q 384 1609 779 1909 
Q 1175 2209 1959 2209 
L 2766 2209 
L 2766 2266 
Q 2766 2663 2505 2880 
Q 2244 3097 1772 3097 
Q 1472 3097 1187 3025 
Q 903 2953 641 2809 
L 641 3341 
Q 956 3463 1253 3523 
Q 1550 3584 1831 3584 
Q 2591 3584 2966 3190 
Q 3341 2797 3341 1997 
z
" transform="scale(0.015625)"/>
       <path id="DejaVuSans-6c" d="M 603 4863 
L 1178 4863 
L 1178 0 
L 603 0 
L 603 4863 
z
" transform="scale(0.015625)"/>
       <path id="DejaVuSans-7a" d="M 353 3500 
L 3084 3500 
L 3084 2975 
L 922 459 
L 3084 459 
L 3084 0 
L 275 0 
L 275 525 
L 2438 3041 
L 353 3041 
L 353 3500 
z
" transform="scale(0.015625)"/>
       <path id="DejaVuSans-64" d="M 2906 2969 
L 2906 4863 
L 3481 4863 
L 3481 0 
L 2906 0 
L 2906 525 
Q 2725 213 2448 61 
Q 2172 -91 1784 -91 
Q 1150 -91 751 415 
Q 353 922 353 1747 
Q 353 2572 751 3078 
Q 1150 3584 1784 3584 
Q 2172 3584 2448 3432 
Q 2725 3281 2906 2969 
z
M 947 1747 
Q 947 1113 1208 752 
Q 1469 391 1925 391 
Q 2381 391 2643 752 
Q 2906 1113 2906 1747 
Q 2906 2381 2643 2742 
Q 2381 3103 1925 3103 
Q 1469 3103 1208 2742 
Q 947 2381 947 1747 
z
" transform="scale(0.015625)"/>
       <path id="DejaVuSans-20" transform="scale(0.015625)"/>
       <path id="DejaVuSans-67" d="M 2906 1791 
Q 2906 2416 2648 2759 
Q 2391 3103 1925 3103 
Q 1463 3103 1205 2759 
Q 947 2416 947 1791 
Q 947 1169 1205 825 
Q 1463 481 1925 481 
Q 2391 481 2648 825 
Q 2906 1169 2906 1791 
z
M 3481 434 
Q 3481 -459 3084 -895 
Q 2688 -1331 1869 -1331 
Q 1566 -1331 1297 -1286 
Q 1028 -1241 775 -1147 
L 775 -588 
Q 1028 -725 1275 -790 
Q 1522 -856 1778 -856 
Q 2344 -856 2625 -561 
Q 2906 -266 2906 331 
L 2906 616 
Q 2728 306 2450 153 
Q 2172 0 1784 0 
Q 1141 0 747 490 
Q 353 981 353 1791 
Q 353 2603 747 3093 
Q 1141 3584 1784 3584 
Q 2172 3584 2450 3431 
Q 2728 3278 2906 2969 
L 2906 3500 
L 3481 3500 
L 3481 434 
z
" transform="scale(0.015625)"/>
       <path id="DejaVuSans-77" d="M 269 3500 
L 844 3500 
L 1563 769 
L 2278 3500 
L 2956 3500 
L 3675 769 
L 4391 3500 
L 4966 3500 
L 4050 0 
L 3372 0 
L 2619 2869 
L 1863 0 
L 1184 0 
L 269 3500 
z
" transform="scale(0.015625)"/>
       <path id="DejaVuSans-68" d="M 3513 2113 
L 3513 0 
L 2938 0 
L 2938 2094 
Q 2938 2591 2744 2837 
Q 2550 3084 2163 3084 
Q 1697 3084 1428 2787 
Q 1159 2491 1159 1978 
L 1159 0 
L 581 0 
L 581 4863 
L 1159 4863 
L 1159 2956 
Q 1366 3272 1645 3428 
Q 1925 3584 2291 3584 
Q 2894 3584 3203 3211 
Q 3513 2838 3513 2113 
z
" transform="scale(0.015625)"/>
      </defs>
      <use xlink:href="#DejaVuSans-63"/>
      <use xlink:href="#DejaVuSans-65" x="54.980469"/>
      <use xlink:href="#DejaVuSans-6e" x="116.503906"/>
      <use xlink:href="#DejaVuSans-74" x="179.882812"/>
      <use xlink:href="#DejaVuSans-72" x="219.091797"/>
      <use xlink:href="#DejaVuSans-61" x="260.205078"/>
      <use xlink:href="#DejaVuSans-6c" x="321.484375"/>
      <use xlink:href="#DejaVuSans-69" x="349.267578"/>
      <use xlink:href="#DejaVuSans-7a" x="377.050781"/>
      <use xlink:href="#DejaVuSans-65" x="429.541016"/>
      <use xlink:href="#DejaVuSans-64" x="491.064453"/>
      <use xlink:href="#DejaVuSans-20" x="554.541016"/>
      <use xlink:href="#DejaVuSans-74" x="586.328125"/>
      <use xlink:href="#DejaVuSans-72" x="625.537109"/>
      <use xlink:href="#DejaVuSans-61" x="666.650391"/>
      <use xlink:href="#DejaVuSans-69" x="727.929688"/>
      <use xlink:href="#DejaVuSans-6e" x="755.712891"/>
      <use xlink:href="#DejaVuSans-69" x="819.091797"/>
      <use xlink:href="#DejaVuSans-6e" x="846.875"/>
      <use xlink:href="#DejaVuSans-67" x="910.253906"/>
      <use xlink:href="#DejaVuSans-20" x="973.730469"/>
      <use xlink:href="#DejaVuSans-77" x="1005.517578"/>
      <use xlink:href="#DejaVuSans-69" x="1087.304688"/>
      <use xlink:href="#DejaVuSans-74" x="1115.087891"/>
      <use xlink:href="#DejaVuSans-68" x="1154.296875"/>
      <use xlink:href="#DejaVuSans-20" x="1217.675781"/>
      <use xlink:href="#DejaVuSans-31" x="1249.462891"/>
      <use xlink:href="#DejaVuSans-20" x="1313.085938"/>
      <use xlink:href="#DejaVuSans-64" x="1344.873047"/>
      <use xlink:href="#DejaVuSans-61" x="1408.349609"/>
      <use xlink:href="#DejaVuSans-74" x="1469.628906"/>
      <use xlink:href="#DejaVuSans-61" x="1508.837891"/>
      <use xlink:href="#DejaVuSans-73" x="1570.117188"/>
      <use xlink:href="#DejaVuSans-65" x="1622.216797"/>
      <use xlink:href="#DejaVuSans-74" x="1683.740234"/>
     </g>
    </g>
    <g id="line2d_18">
     <path d="M 423.72 91.208725 
L 433.72 91.208725 
L 443.72 91.208725 
" style="fill: none; stroke: #ff7f0e; stroke-width: 1.5; stroke-linecap: square"/>
    </g>
    <g id="text_14">
     <!-- centralized training with 2 datasets -->
     <g transform="translate(451.72 94.708725) scale(0.1 -0.1)">
      <use xlink:href="#DejaVuSans-63"/>
      <use xlink:href="#DejaVuSans-65" x="54.980469"/>
      <use xlink:href="#DejaVuSans-6e" x="116.503906"/>
      <use xlink:href="#DejaVuSans-74" x="179.882812"/>
      <use xlink:href="#DejaVuSans-72" x="219.091797"/>
      <use xlink:href="#DejaVuSans-61" x="260.205078"/>
      <use xlink:href="#DejaVuSans-6c" x="321.484375"/>
      <use xlink:href="#DejaVuSans-69" x="349.267578"/>
      <use xlink:href="#DejaVuSans-7a" x="377.050781"/>
      <use xlink:href="#DejaVuSans-65" x="429.541016"/>
      <use xlink:href="#DejaVuSans-64" x="491.064453"/>
      <use xlink:href="#DejaVuSans-20" x="554.541016"/>
      <use xlink:href="#DejaVuSans-74" x="586.328125"/>
      <use xlink:href="#DejaVuSans-72" x="625.537109"/>
      <use xlink:href="#DejaVuSans-61" x="666.650391"/>
      <use xlink:href="#DejaVuSans-69" x="727.929688"/>
      <use xlink:href="#DejaVuSans-6e" x="755.712891"/>
      <use xlink:href="#DejaVuSans-69" x="819.091797"/>
      <use xlink:href="#DejaVuSans-6e" x="846.875"/>
      <use xlink:href="#DejaVuSans-67" x="910.253906"/>
      <use xlink:href="#DejaVuSans-20" x="973.730469"/>
      <use xlink:href="#DejaVuSans-77" x="1005.517578"/>
      <use xlink:href="#DejaVuSans-69" x="1087.304688"/>
      <use xlink:href="#DejaVuSans-74" x="1115.087891"/>
      <use xlink:href="#DejaVuSans-68" x="1154.296875"/>
      <use xlink:href="#DejaVuSans-20" x="1217.675781"/>
      <use xlink:href="#DejaVuSans-32" x="1249.462891"/>
      <use xlink:href="#DejaVuSans-20" x="1313.085938"/>
      <use xlink:href="#DejaVuSans-64" x="1344.873047"/>
      <use xlink:href="#DejaVuSans-61" x="1408.349609"/>
      <use xlink:href="#DejaVuSans-74" x="1469.628906"/>
      <use xlink:href="#DejaVuSans-61" x="1508.837891"/>
      <use xlink:href="#DejaVuSans-73" x="1570.117188"/>
      <use xlink:href="#DejaVuSans-65" x="1622.216797"/>
      <use xlink:href="#DejaVuSans-74" x="1683.740234"/>
      <use xlink:href="#DejaVuSans-73" x="1722.949219"/>
     </g>
    </g>
    <g id="line2d_19">
     <path d="M 423.72 105.88685 
L 433.72 105.88685 
L 443.72 105.88685 
" style="fill: none; stroke: #2ca02c; stroke-width: 1.5; stroke-linecap: square"/>
    </g>
    <g id="text_15">
     <!-- centralized training with 3 datasets -->
     <g transform="translate(451.72 109.38685) scale(0.1 -0.1)">
      <use xlink:href="#DejaVuSans-63"/>
      <use xlink:href="#DejaVuSans-65" x="54.980469"/>
      <use xlink:href="#DejaVuSans-6e" x="116.503906"/>
      <use xlink:href="#DejaVuSans-74" x="179.882812"/>
      <use xlink:href="#DejaVuSans-72" x="219.091797"/>
      <use xlink:href="#DejaVuSans-61" x="260.205078"/>
      <use xlink:href="#DejaVuSans-6c" x="321.484375"/>
      <use xlink:href="#DejaVuSans-69" x="349.267578"/>
      <use xlink:href="#DejaVuSans-7a" x="377.050781"/>
      <use xlink:href="#DejaVuSans-65" x="429.541016"/>
      <use xlink:href="#DejaVuSans-64" x="491.064453"/>
      <use xlink:href="#DejaVuSans-20" x="554.541016"/>
      <use xlink:href="#DejaVuSans-74" x="586.328125"/>
      <use xlink:href="#DejaVuSans-72" x="625.537109"/>
      <use xlink:href="#DejaVuSans-61" x="666.650391"/>
      <use xlink:href="#DejaVuSans-69" x="727.929688"/>
      <use xlink:href="#DejaVuSans-6e" x="755.712891"/>
      <use xlink:href="#DejaVuSans-69" x="819.091797"/>
      <use xlink:href="#DejaVuSans-6e" x="846.875"/>
      <use xlink:href="#DejaVuSans-67" x="910.253906"/>
      <use xlink:href="#DejaVuSans-20" x="973.730469"/>
      <use xlink:href="#DejaVuSans-77" x="1005.517578"/>
      <use xlink:href="#DejaVuSans-69" x="1087.304688"/>
      <use xlink:href="#DejaVuSans-74" x="1115.087891"/>
      <use xlink:href="#DejaVuSans-68" x="1154.296875"/>
      <use xlink:href="#DejaVuSans-20" x="1217.675781"/>
      <use xlink:href="#DejaVuSans-33" x="1249.462891"/>
      <use xlink:href="#DejaVuSans-20" x="1313.085938"/>
      <use xlink:href="#DejaVuSans-64" x="1344.873047"/>
      <use xlink:href="#DejaVuSans-61" x="1408.349609"/>
      <use xlink:href="#DejaVuSans-74" x="1469.628906"/>
      <use xlink:href="#DejaVuSans-61" x="1508.837891"/>
      <use xlink:href="#DejaVuSans-73" x="1570.117188"/>
      <use xlink:href="#DejaVuSans-65" x="1622.216797"/>
      <use xlink:href="#DejaVuSans-74" x="1683.740234"/>
      <use xlink:href="#DejaVuSans-73" x="1722.949219"/>
     </g>
    </g>
    <g id="line2d_20">
     <path d="M 423.72 120.564975 
L 433.72 120.564975 
L 443.72 120.564975 
" style="fill: none; stroke: #d62728; stroke-width: 1.5; stroke-linecap: square"/>
    </g>
    <g id="text_16">
     <!-- centralized training with 4 datasets -->
     <g transform="translate(451.72 124.064975) scale(0.1 -0.1)">
      <use xlink:href="#DejaVuSans-63"/>
      <use xlink:href="#DejaVuSans-65" x="54.980469"/>
      <use xlink:href="#DejaVuSans-6e" x="116.503906"/>
      <use xlink:href="#DejaVuSans-74" x="179.882812"/>
      <use xlink:href="#DejaVuSans-72" x="219.091797"/>
      <use xlink:href="#DejaVuSans-61" x="260.205078"/>
      <use xlink:href="#DejaVuSans-6c" x="321.484375"/>
      <use xlink:href="#DejaVuSans-69" x="349.267578"/>
      <use xlink:href="#DejaVuSans-7a" x="377.050781"/>
      <use xlink:href="#DejaVuSans-65" x="429.541016"/>
      <use xlink:href="#DejaVuSans-64" x="491.064453"/>
      <use xlink:href="#DejaVuSans-20" x="554.541016"/>
      <use xlink:href="#DejaVuSans-74" x="586.328125"/>
      <use xlink:href="#DejaVuSans-72" x="625.537109"/>
      <use xlink:href="#DejaVuSans-61" x="666.650391"/>
      <use xlink:href="#DejaVuSans-69" x="727.929688"/>
      <use xlink:href="#DejaVuSans-6e" x="755.712891"/>
      <use xlink:href="#DejaVuSans-69" x="819.091797"/>
      <use xlink:href="#DejaVuSans-6e" x="846.875"/>
      <use xlink:href="#DejaVuSans-67" x="910.253906"/>
      <use xlink:href="#DejaVuSans-20" x="973.730469"/>
      <use xlink:href="#DejaVuSans-77" x="1005.517578"/>
      <use xlink:href="#DejaVuSans-69" x="1087.304688"/>
      <use xlink:href="#DejaVuSans-74" x="1115.087891"/>
      <use xlink:href="#DejaVuSans-68" x="1154.296875"/>
      <use xlink:href="#DejaVuSans-20" x="1217.675781"/>
      <use xlink:href="#DejaVuSans-34" x="1249.462891"/>
      <use xlink:href="#DejaVuSans-20" x="1313.085938"/>
      <use xlink:href="#DejaVuSans-64" x="1344.873047"/>
      <use xlink:href="#DejaVuSans-61" x="1408.349609"/>
      <use xlink:href="#DejaVuSans-74" x="1469.628906"/>
      <use xlink:href="#DejaVuSans-61" x="1508.837891"/>
      <use xlink:href="#DejaVuSans-73" x="1570.117188"/>
      <use xlink:href="#DejaVuSans-65" x="1622.216797"/>
      <use xlink:href="#DejaVuSans-74" x="1683.740234"/>
      <use xlink:href="#DejaVuSans-73" x="1722.949219"/>
     </g>
    </g>
    <g id="line2d_21">
     <path d="M 423.72 135.2431 
L 433.72 135.2431 
L 443.72 135.2431 
" style="fill: none; stroke: #9467bd; stroke-width: 1.5; stroke-linecap: square"/>
    </g>
    <g id="text_17">
     <!-- centralized training with 5 datasets -->
     <g transform="translate(451.72 138.7431) scale(0.1 -0.1)">
      <use xlink:href="#DejaVuSans-63"/>
      <use xlink:href="#DejaVuSans-65" x="54.980469"/>
      <use xlink:href="#DejaVuSans-6e" x="116.503906"/>
      <use xlink:href="#DejaVuSans-74" x="179.882812"/>
      <use xlink:href="#DejaVuSans-72" x="219.091797"/>
      <use xlink:href="#DejaVuSans-61" x="260.205078"/>
      <use xlink:href="#DejaVuSans-6c" x="321.484375"/>
      <use xlink:href="#DejaVuSans-69" x="349.267578"/>
      <use xlink:href="#DejaVuSans-7a" x="377.050781"/>
      <use xlink:href="#DejaVuSans-65" x="429.541016"/>
      <use xlink:href="#DejaVuSans-64" x="491.064453"/>
      <use xlink:href="#DejaVuSans-20" x="554.541016"/>
      <use xlink:href="#DejaVuSans-74" x="586.328125"/>
      <use xlink:href="#DejaVuSans-72" x="625.537109"/>
      <use xlink:href="#DejaVuSans-61" x="666.650391"/>
      <use xlink:href="#DejaVuSans-69" x="727.929688"/>
      <use xlink:href="#DejaVuSans-6e" x="755.712891"/>
      <use xlink:href="#DejaVuSans-69" x="819.091797"/>
      <use xlink:href="#DejaVuSans-6e" x="846.875"/>
      <use xlink:href="#DejaVuSans-67" x="910.253906"/>
      <use xlink:href="#DejaVuSans-20" x="973.730469"/>
      <use xlink:href="#DejaVuSans-77" x="1005.517578"/>
      <use xlink:href="#DejaVuSans-69" x="1087.304688"/>
      <use xlink:href="#DejaVuSans-74" x="1115.087891"/>
      <use xlink:href="#DejaVuSans-68" x="1154.296875"/>
      <use xlink:href="#DejaVuSans-20" x="1217.675781"/>
      <use xlink:href="#DejaVuSans-35" x="1249.462891"/>
      <use xlink:href="#DejaVuSans-20" x="1313.085938"/>
      <use xlink:href="#DejaVuSans-64" x="1344.873047"/>
      <use xlink:href="#DejaVuSans-61" x="1408.349609"/>
      <use xlink:href="#DejaVuSans-74" x="1469.628906"/>
      <use xlink:href="#DejaVuSans-61" x="1508.837891"/>
      <use xlink:href="#DejaVuSans-73" x="1570.117188"/>
      <use xlink:href="#DejaVuSans-65" x="1622.216797"/>
      <use xlink:href="#DejaVuSans-74" x="1683.740234"/>
      <use xlink:href="#DejaVuSans-73" x="1722.949219"/>
     </g>
    </g>
    <g id="line2d_22">
     <path d="M 423.72 149.921225 
L 433.72 149.921225 
L 443.72 149.921225 
" style="fill: none; stroke: #8c564b; stroke-width: 1.5; stroke-linecap: square"/>
    </g>
    <g id="text_18">
     <!-- centralized training with 10 datasets -->
     <g transform="translate(451.72 153.421225) scale(0.1 -0.1)">
      <use xlink:href="#DejaVuSans-63"/>
      <use xlink:href="#DejaVuSans-65" x="54.980469"/>
      <use xlink:href="#DejaVuSans-6e" x="116.503906"/>
      <use xlink:href="#DejaVuSans-74" x="179.882812"/>
      <use xlink:href="#DejaVuSans-72" x="219.091797"/>
      <use xlink:href="#DejaVuSans-61" x="260.205078"/>
      <use xlink:href="#DejaVuSans-6c" x="321.484375"/>
      <use xlink:href="#DejaVuSans-69" x="349.267578"/>
      <use xlink:href="#DejaVuSans-7a" x="377.050781"/>
      <use xlink:href="#DejaVuSans-65" x="429.541016"/>
      <use xlink:href="#DejaVuSans-64" x="491.064453"/>
      <use xlink:href="#DejaVuSans-20" x="554.541016"/>
      <use xlink:href="#DejaVuSans-74" x="586.328125"/>
      <use xlink:href="#DejaVuSans-72" x="625.537109"/>
      <use xlink:href="#DejaVuSans-61" x="666.650391"/>
      <use xlink:href="#DejaVuSans-69" x="727.929688"/>
      <use xlink:href="#DejaVuSans-6e" x="755.712891"/>
      <use xlink:href="#DejaVuSans-69" x="819.091797"/>
      <use xlink:href="#DejaVuSans-6e" x="846.875"/>
      <use xlink:href="#DejaVuSans-67" x="910.253906"/>
      <use xlink:href="#DejaVuSans-20" x="973.730469"/>
      <use xlink:href="#DejaVuSans-77" x="1005.517578"/>
      <use xlink:href="#DejaVuSans-69" x="1087.304688"/>
      <use xlink:href="#DejaVuSans-74" x="1115.087891"/>
      <use xlink:href="#DejaVuSans-68" x="1154.296875"/>
      <use xlink:href="#DejaVuSans-20" x="1217.675781"/>
      <use xlink:href="#DejaVuSans-31" x="1249.462891"/>
      <use xlink:href="#DejaVuSans-30" x="1313.085938"/>
      <use xlink:href="#DejaVuSans-20" x="1376.708984"/>
      <use xlink:href="#DejaVuSans-64" x="1408.496094"/>
      <use xlink:href="#DejaVuSans-61" x="1471.972656"/>
      <use xlink:href="#DejaVuSans-74" x="1533.251953"/>
      <use xlink:href="#DejaVuSans-61" x="1572.460938"/>
      <use xlink:href="#DejaVuSans-73" x="1633.740234"/>
      <use xlink:href="#DejaVuSans-65" x="1685.839844"/>
      <use xlink:href="#DejaVuSans-74" x="1747.363281"/>
      <use xlink:href="#DejaVuSans-73" x="1786.572266"/>
     </g>
    </g>
    <g id="patch_8">
     <path d="M 423.72 168.09935 
L 443.72 168.09935 
L 443.72 161.09935 
L 423.72 161.09935 
z
" style="fill: #1f77b4; fill-opacity: 0.25; stroke: #1f77b4; stroke-linejoin: miter"/>
    </g>
    <g id="text_19">
     <!-- FL with best parameters -->
     <g transform="translate(451.72 168.09935) scale(0.1 -0.1)">
      <defs>
       <path id="DejaVuSans-46" d="M 628 4666 
L 3309 4666 
L 3309 4134 
L 1259 4134 
L 1259 2759 
L 3109 2759 
L 3109 2228 
L 1259 2228 
L 1259 0 
L 628 0 
L 628 4666 
z
" transform="scale(0.015625)"/>
       <path id="DejaVuSans-62" d="M 3116 1747 
Q 3116 2381 2855 2742 
Q 2594 3103 2138 3103 
Q 1681 3103 1420 2742 
Q 1159 2381 1159 1747 
Q 1159 1113 1420 752 
Q 1681 391 2138 391 
Q 2594 391 2855 752 
Q 3116 1113 3116 1747 
z
M 1159 2969 
Q 1341 3281 1617 3432 
Q 1894 3584 2278 3584 
Q 2916 3584 3314 3078 
Q 3713 2572 3713 1747 
Q 3713 922 3314 415 
Q 2916 -91 2278 -91 
Q 1894 -91 1617 61 
Q 1341 213 1159 525 
L 1159 0 
L 581 0 
L 581 4863 
L 1159 4863 
L 1159 2969 
z
" transform="scale(0.015625)"/>
       <path id="DejaVuSans-70" d="M 1159 525 
L 1159 -1331 
L 581 -1331 
L 581 3500 
L 1159 3500 
L 1159 2969 
Q 1341 3281 1617 3432 
Q 1894 3584 2278 3584 
Q 2916 3584 3314 3078 
Q 3713 2572 3713 1747 
Q 3713 922 3314 415 
Q 2916 -91 2278 -91 
Q 1894 -91 1617 61 
Q 1341 213 1159 525 
z
M 3116 1747 
Q 3116 2381 2855 2742 
Q 2594 3103 2138 3103 
Q 1681 3103 1420 2742 
Q 1159 2381 1159 1747 
Q 1159 1113 1420 752 
Q 1681 391 2138 391 
Q 2594 391 2855 752 
Q 3116 1113 3116 1747 
z
" transform="scale(0.015625)"/>
       <path id="DejaVuSans-6d" d="M 3328 2828 
Q 3544 3216 3844 3400 
Q 4144 3584 4550 3584 
Q 5097 3584 5394 3201 
Q 5691 2819 5691 2113 
L 5691 0 
L 5113 0 
L 5113 2094 
Q 5113 2597 4934 2840 
Q 4756 3084 4391 3084 
Q 3944 3084 3684 2787 
Q 3425 2491 3425 1978 
L 3425 0 
L 2847 0 
L 2847 2094 
Q 2847 2600 2669 2842 
Q 2491 3084 2119 3084 
Q 1678 3084 1418 2786 
Q 1159 2488 1159 1978 
L 1159 0 
L 581 0 
L 581 3500 
L 1159 3500 
L 1159 2956 
Q 1356 3278 1631 3431 
Q 1906 3584 2284 3584 
Q 2666 3584 2933 3390 
Q 3200 3197 3328 2828 
z
" transform="scale(0.015625)"/>
      </defs>
      <use xlink:href="#DejaVuSans-46"/>
      <use xlink:href="#DejaVuSans-4c" x="57.519531"/>
      <use xlink:href="#DejaVuSans-20" x="113.232422"/>
      <use xlink:href="#DejaVuSans-77" x="145.019531"/>
      <use xlink:href="#DejaVuSans-69" x="226.806641"/>
      <use xlink:href="#DejaVuSans-74" x="254.589844"/>
      <use xlink:href="#DejaVuSans-68" x="293.798828"/>
      <use xlink:href="#DejaVuSans-20" x="357.177734"/>
      <use xlink:href="#DejaVuSans-62" x="388.964844"/>
      <use xlink:href="#DejaVuSans-65" x="452.441406"/>
      <use xlink:href="#DejaVuSans-73" x="513.964844"/>
      <use xlink:href="#DejaVuSans-74" x="566.064453"/>
      <use xlink:href="#DejaVuSans-20" x="605.273438"/>
      <use xlink:href="#DejaVuSans-70" x="637.060547"/>
      <use xlink:href="#DejaVuSans-61" x="700.537109"/>
      <use xlink:href="#DejaVuSans-72" x="761.816406"/>
      <use xlink:href="#DejaVuSans-61" x="802.929688"/>
      <use xlink:href="#DejaVuSans-6d" x="864.208984"/>
      <use xlink:href="#DejaVuSans-65" x="961.621094"/>
      <use xlink:href="#DejaVuSans-74" x="1023.144531"/>
      <use xlink:href="#DejaVuSans-65" x="1062.353516"/>
      <use xlink:href="#DejaVuSans-72" x="1123.876953"/>
      <use xlink:href="#DejaVuSans-73" x="1164.990234"/>
     </g>
    </g>
   </g>
  </g>
 </g>
 <defs>
  <clipPath id="pc9972bfd71">
   <rect x="57.6" y="41.472" width="357.12" height="266.112"/>
  </clipPath>
 </defs>
</svg>
