<?xml version="1.0" encoding="utf-8" standalone="no"?>
<!DOCTYPE svg PUBLIC "-//W3C//DTD SVG 1.1//EN"
  "http://www.w3.org/Graphics/SVG/1.1/DTD/svg11.dtd">
<svg xmlns:xlink="http://www.w3.org/1999/xlink" width="460.8pt" height="345.6pt" viewBox="0 0 460.8 345.6" xmlns="http://www.w3.org/2000/svg" version="1.1">
 <metadata>
  <rdf:RDF xmlns:dc="http://purl.org/dc/elements/1.1/" xmlns:cc="http://creativecommons.org/ns#" xmlns:rdf="http://www.w3.org/1999/02/22-rdf-syntax-ns#">
   <cc:Work>
    <dc:type rdf:resource="http://purl.org/dc/dcmitype/StillImage"/>
    <dc:date>2023-02-21T18:55:31.648885</dc:date>
    <dc:format>image/svg+xml</dc:format>
    <dc:creator>
     <cc:Agent>
      <dc:title>Matplotlib v3.6.2, https://matplotlib.org/</dc:title>
     </cc:Agent>
    </dc:creator>
   </cc:Work>
  </rdf:RDF>
 </metadata>
 <defs>
  <style type="text/css">*{stroke-linejoin: round; stroke-linecap: butt}</style>
 </defs>
 <g id="figure_1">
  <g id="patch_1">
   <path d="M 0 345.6 
L 460.8 345.6 
L 460.8 0 
L 0 0 
z
" style="fill: #ffffff"/>
  </g>
  <g id="axes_1">
   <g id="patch_2">
    <path d="M 57.6 307.584 
L 414.72 307.584 
L 414.72 41.472 
L 57.6 41.472 
z
" style="fill: #ffffff"/>
   </g>
   <g id="PolyCollection_1">
    <defs>
     <path id="m2bdabfa194" d="M 160.599293 -38.295075 
L 160.599293 -38.016 
L 160.678635 -38.016 
L 160.757978 -38.016 
L 160.83732 -38.016 
L 160.916663 -38.016 
L 160.996005 -38.016 
L 161.075348 -38.016 
L 161.15469 -38.016 
L 161.234032 -38.016 
L 161.313375 -38.016 
L 161.392717 -38.016 
L 161.47206 -38.016 
L 161.551402 -38.016 
L 161.630745 -38.016 
L 161.710087 -38.016 
L 161.789429 -38.016 
L 161.868772 -38.016 
L 161.948114 -38.016 
L 162.027457 -38.016 
L 162.106799 -38.016 
L 162.186142 -38.016 
L 162.265484 -38.016 
L 162.344827 -38.016 
L 162.424169 -38.016 
L 162.503511 -38.016 
L 162.582854 -38.016 
L 162.662196 -38.016 
L 162.741539 -38.016 
L 162.820881 -38.016 
L 162.900224 -38.016 
L 162.979566 -38.016 
L 163.058908 -38.016 
L 163.138251 -38.016 
L 163.217593 -38.016 
L 163.296936 -38.016 
L 163.376278 -38.016 
L 163.455621 -38.016 
L 163.534963 -38.016 
L 163.614305 -38.016 
L 163.693648 -38.016 
L 163.77299 -38.016 
L 163.852333 -38.016 
L 163.931675 -38.016 
L 164.011018 -38.016 
L 164.09036 -38.016 
L 164.169702 -38.016 
L 164.249045 -38.016 
L 164.328387 -38.016 
L 164.40773 -38.016 
L 164.487072 -38.016 
L 164.566415 -38.016 
L 164.645757 -38.016 
L 164.7251 -38.016 
L 164.804442 -38.016 
L 164.883784 -38.016 
L 164.963127 -38.016 
L 165.042469 -38.016 
L 165.121812 -38.016 
L 165.201154 -38.016 
L 165.280497 -38.016 
L 165.359839 -38.016 
L 165.439181 -38.016 
L 165.518524 -38.016 
L 165.597866 -38.016 
L 165.677209 -38.016 
L 165.756551 -38.016 
L 165.835894 -38.016 
L 165.915236 -38.016 
L 165.994578 -38.016 
L 166.073921 -38.016 
L 166.153263 -38.016 
L 166.232606 -38.016 
L 166.311948 -38.016 
L 166.391291 -38.016 
L 166.470633 -38.016 
L 166.549975 -38.016 
L 166.629318 -38.016 
L 166.70866 -38.016 
L 166.788003 -38.016 
L 166.867345 -38.016 
L 166.946688 -38.016 
L 167.02603 -38.016 
L 167.105373 -38.016 
L 167.184715 -38.016 
L 167.264057 -38.016 
L 167.3434 -38.016 
L 167.422742 -38.016 
L 167.502085 -38.016 
L 167.581427 -38.016 
L 167.66077 -38.016 
L 167.740112 -38.016 
L 167.819454 -38.016 
L 167.898797 -38.016 
L 167.978139 -38.016 
L 168.057482 -38.016 
L 168.136824 -38.016 
L 168.216167 -38.016 
L 168.295509 -38.016 
L 168.374851 -38.016 
L 168.454194 -38.016 
L 168.533536 -38.016 
L 168.612879 -38.016 
L 168.692221 -38.016 
L 168.771564 -38.016 
L 168.850906 -38.016 
L 168.930248 -38.016 
L 169.009591 -38.016 
L 169.088933 -38.016 
L 169.168276 -38.016 
L 169.247618 -38.016 
L 169.326961 -38.016 
L 169.406303 -38.016 
L 169.485646 -38.016 
L 169.564988 -38.016 
L 169.64433 -38.016 
L 169.723673 -38.016 
L 169.803015 -38.016 
L 169.882358 -38.016 
L 169.9617 -38.016 
L 170.041043 -38.016 
L 170.120385 -38.016 
L 170.199727 -38.016 
L 170.27907 -38.016 
L 170.358412 -38.016 
L 170.437755 -38.016 
L 170.517097 -38.016 
L 170.59644 -38.016 
L 170.675782 -38.016 
L 170.755124 -38.016 
L 170.834467 -38.016 
L 170.913809 -38.016 
L 170.993152 -38.016 
L 171.072494 -38.016 
L 171.151837 -38.016 
L 171.231179 -38.016 
L 171.310521 -38.016 
L 171.389864 -38.016 
L 171.469206 -38.016 
L 171.548549 -38.016 
L 171.627891 -38.016 
L 171.707234 -38.016 
L 171.786576 -38.016 
L 171.865919 -38.016 
L 171.945261 -38.016 
L 172.024603 -38.016 
L 172.103946 -38.016 
L 172.183288 -38.016 
L 172.262631 -38.016 
L 172.341973 -38.016 
L 172.421316 -38.016 
L 172.500658 -38.016 
L 172.58 -38.016 
L 172.659343 -38.016 
L 172.738685 -38.016 
L 172.818028 -38.016 
L 172.89737 -38.016 
L 172.976713 -38.016 
L 173.056055 -38.016 
L 173.135397 -38.016 
L 173.21474 -38.016 
L 173.294082 -38.016 
L 173.373425 -38.016 
L 173.452767 -38.016 
L 173.53211 -38.016 
L 173.611452 -38.016 
L 173.690794 -38.016 
L 173.770137 -38.016 
L 173.849479 -38.016 
L 173.928822 -38.016 
L 174.008164 -38.016 
L 174.087507 -38.016 
L 174.166849 -38.016 
L 174.246192 -38.016 
L 174.325534 -38.016 
L 174.404876 -38.016 
L 174.484219 -38.016 
L 174.563561 -38.016 
L 174.642904 -38.016 
L 174.722246 -38.016 
L 174.801589 -38.016 
L 174.880931 -38.016 
L 174.960273 -38.016 
L 175.039616 -38.016 
L 175.118958 -38.016 
L 175.198301 -38.016 
L 175.277643 -38.016 
L 175.356986 -38.016 
L 175.436328 -38.016 
L 175.51567 -38.016 
L 175.595013 -38.016 
L 175.674355 -38.016 
L 175.753698 -38.016 
L 175.83304 -38.016 
L 175.912383 -38.016 
L 175.991725 -38.016 
L 176.071067 -38.016 
L 176.15041 -38.016 
L 176.229752 -38.016 
L 176.309095 -38.016 
L 176.388437 -38.016 
L 176.388437 -38.309016 
L 176.388437 -38.309016 
L 176.309095 -38.374935 
L 176.229752 -38.453797 
L 176.15041 -38.547704 
L 176.071067 -38.659005 
L 175.991725 -38.790306 
L 175.912383 -38.944484 
L 175.83304 -39.124684 
L 175.753698 -39.334326 
L 175.674355 -39.577097 
L 175.595013 -39.856942 
L 175.51567 -40.17805 
L 175.436328 -40.544829 
L 175.356986 -40.961883 
L 175.277643 -41.433975 
L 175.198301 -41.965987 
L 175.118958 -42.562879 
L 175.039616 -43.229635 
L 174.960273 -43.971216 
L 174.880931 -44.792504 
L 174.801589 -45.698247 
L 174.722246 -46.693008 
L 174.642904 -47.781116 
L 174.563561 -48.966621 
L 174.484219 -50.253261 
L 174.404876 -51.644432 
L 174.325534 -53.143176 
L 174.246192 -54.752171 
L 174.166849 -56.473747 
L 174.087507 -58.309904 
L 174.008164 -60.262349 
L 173.928822 -62.332543 
L 173.849479 -64.521759 
L 173.770137 -66.83115 
L 173.690794 -69.261821 
L 173.611452 -71.814899 
L 173.53211 -74.491612 
L 173.452767 -77.293347 
L 173.373425 -80.221711 
L 173.294082 -83.278569 
L 173.21474 -86.466061 
L 173.135397 -89.786603 
L 173.056055 -93.242856 
L 172.976713 -96.837668 
L 172.89737 -100.573987 
L 172.818028 -104.454739 
L 172.738685 -108.482692 
L 172.659343 -112.660273 
L 172.58 -116.989387 
L 172.500658 -121.471201 
L 172.421316 -126.105931 
L 172.341973 -130.892623 
L 172.262631 -135.828945 
L 172.183288 -140.910987 
L 172.103946 -146.133097 
L 172.024603 -151.487743 
L 171.945261 -156.965414 
L 171.865919 -162.554577 
L 171.786576 -168.241679 
L 171.707234 -174.011204 
L 171.627891 -179.845794 
L 171.548549 -185.726413 
L 171.469206 -191.632576 
L 171.389864 -197.542609 
L 171.310521 -203.433959 
L 171.231179 -209.283522 
L 171.151837 -215.06799 
L 171.072494 -220.764205 
L 170.993152 -226.349496 
L 170.913809 -231.802004 
L 170.834467 -237.100959 
L 170.755124 -242.226928 
L 170.675782 -247.161997 
L 170.59644 -251.889897 
L 170.517097 -256.396071 
L 170.437755 -260.667667 
L 170.358412 -264.693476 
L 170.27907 -268.463813 
L 170.199727 -271.970347 
L 170.120385 -275.205892 
L 170.041043 -278.164181 
L 169.9617 -280.839624 
L 169.882358 -283.227071 
L 169.803015 -285.321601 
L 169.723673 -287.118337 
L 169.64433 -288.612316 
L 169.564988 -289.798412 
L 169.485646 -290.671328 
L 169.406303 -291.225654 
L 169.326961 -291.456 
L 169.247618 -291.35719 
L 169.168276 -290.924522 
L 169.088933 -290.154076 
L 169.009591 -289.04306 
L 168.930248 -287.59017 
L 168.850906 -285.795967 
L 168.771564 -283.663224 
L 168.692221 -281.197245 
L 168.612879 -278.406133 
L 168.533536 -275.30099 
L 168.454194 -271.896027 
L 168.374851 -268.208594 
L 168.295509 -264.259096 
L 168.216167 -260.070821 
L 168.136824 -255.669654 
L 168.057482 -251.083708 
L 167.978139 -246.342863 
L 167.898797 -241.478234 
L 167.819454 -236.521597 
L 167.740112 -231.504762 
L 167.66077 -226.45895 
L 167.581427 -221.414176 
L 167.502085 -216.398653 
L 167.422742 -211.438262 
L 167.3434 -206.556085 
L 167.264057 -201.772023 
L 167.184715 -197.102518 
L 167.105373 -192.560381 
L 167.02603 -188.154726 
L 166.946688 -183.891025 
L 166.867345 -179.771261 
L 166.788003 -175.794181 
L 166.70866 -171.955644 
L 166.629318 -168.249022 
L 166.549975 -164.66567 
L 166.470633 -161.195423 
L 166.391291 -157.827107 
L 166.311948 -154.549043 
L 166.232606 -151.349531 
L 166.153263 -148.21729 
L 166.073921 -145.141844 
L 165.994578 -142.113841 
L 165.915236 -139.125295 
L 165.835894 -136.169753 
L 165.756551 -133.242383 
L 165.677209 -130.339979 
L 165.597866 -127.460898 
L 165.518524 -124.604938 
L 165.439181 -121.773158 
L 165.359839 -118.967661 
L 165.280497 -116.191351 
L 165.201154 -113.447678 
L 165.121812 -110.74038 
L 165.042469 -108.073242 
L 164.963127 -105.449871 
L 164.883784 -102.873518 
L 164.804442 -100.346917 
L 164.7251 -97.872187 
L 164.645757 -95.450767 
L 164.566415 -93.083399 
L 164.487072 -90.770152 
L 164.40773 -88.510484 
L 164.328387 -86.303329 
L 164.249045 -84.14722 
L 164.169702 -82.040416 
L 164.09036 -79.981039 
L 164.011018 -77.96722 
L 163.931675 -75.997223 
L 163.852333 -74.06957 
L 163.77299 -72.183134 
L 163.693648 -70.337219 
L 163.614305 -68.53161 
L 163.534963 -66.766593 
L 163.455621 -65.042957 
L 163.376278 -63.361959 
L 163.296936 -61.725282 
L 163.217593 -60.134959 
L 163.138251 -58.593292 
L 163.058908 -57.102755 
L 162.979566 -55.665894 
L 162.900224 -54.285229 
L 162.820881 -52.96315 
L 162.741539 -51.70183 
L 162.662196 -50.503141 
L 162.582854 -49.368586 
L 162.503511 -48.299246 
L 162.424169 -47.29574 
L 162.344827 -46.358203 
L 162.265484 -45.486278 
L 162.186142 -44.679125 
L 162.106799 -43.935442 
L 162.027457 -43.253494 
L 161.948114 -42.63116 
L 161.868772 -42.065977 
L 161.789429 -41.555196 
L 161.710087 -41.095842 
L 161.630745 -40.684768 
L 161.551402 -40.318711 
L 161.47206 -39.994352 
L 161.392717 -39.708362 
L 161.313375 -39.457451 
L 161.234032 -39.238405 
L 161.15469 -39.048125 
L 161.075348 -38.883649 
L 160.996005 -38.742182 
L 160.916663 -38.621104 
L 160.83732 -38.517989 
L 160.757978 -38.430604 
L 160.678635 -38.356913 
L 160.599293 -38.295075 
z
" style="stroke: #1f77b4"/>
    </defs>
    <g clip-path="url(#pcb3b8fba68)">
     <use xlink:href="#m2bdabfa194" x="0" y="345.6" style="fill: #1f77b4; fill-opacity: 0.25; stroke: #1f77b4"/>
    </g>
   </g>
   <g id="matplotlib.axis_1">
    <g id="xtick_1">
     <g id="line2d_1">
      <defs>
       <path id="m2e5cc1e747" d="M 0 0 
L 0 3.5 
" style="stroke: #000000; stroke-width: 0.8"/>
      </defs>
      <g>
       <use xlink:href="#m2e5cc1e747" x="61.433886" y="307.584" style="stroke: #000000; stroke-width: 0.8"/>
      </g>
     </g>
     <g id="text_1">
      <!-- 0.4675 -->
      <g transform="translate(43.938574 322.182437) scale(0.1 -0.1)">
       <defs>
        <path id="DejaVuSans-30" d="M 2034 4250 
Q 1547 4250 1301 3770 
Q 1056 3291 1056 2328 
Q 1056 1369 1301 889 
Q 1547 409 2034 409 
Q 2525 409 2770 889 
Q 3016 1369 3016 2328 
Q 3016 3291 2770 3770 
Q 2525 4250 2034 4250 
z
M 2034 4750 
Q 2819 4750 3233 4129 
Q 3647 3509 3647 2328 
Q 3647 1150 3233 529 
Q 2819 -91 2034 -91 
Q 1250 -91 836 529 
Q 422 1150 422 2328 
Q 422 3509 836 4129 
Q 1250 4750 2034 4750 
z
" transform="scale(0.015625)"/>
        <path id="DejaVuSans-2e" d="M 684 794 
L 1344 794 
L 1344 0 
L 684 0 
L 684 794 
z
" transform="scale(0.015625)"/>
        <path id="DejaVuSans-34" d="M 2419 4116 
L 825 1625 
L 2419 1625 
L 2419 4116 
z
M 2253 4666 
L 3047 4666 
L 3047 1625 
L 3713 1625 
L 3713 1100 
L 3047 1100 
L 3047 0 
L 2419 0 
L 2419 1100 
L 313 1100 
L 313 1709 
L 2253 4666 
z
" transform="scale(0.015625)"/>
        <path id="DejaVuSans-36" d="M 2113 2584 
Q 1688 2584 1439 2293 
Q 1191 2003 1191 1497 
Q 1191 994 1439 701 
Q 1688 409 2113 409 
Q 2538 409 2786 701 
Q 3034 994 3034 1497 
Q 3034 2003 2786 2293 
Q 2538 2584 2113 2584 
z
M 3366 4563 
L 3366 3988 
Q 3128 4100 2886 4159 
Q 2644 4219 2406 4219 
Q 1781 4219 1451 3797 
Q 1122 3375 1075 2522 
Q 1259 2794 1537 2939 
Q 1816 3084 2150 3084 
Q 2853 3084 3261 2657 
Q 3669 2231 3669 1497 
Q 3669 778 3244 343 
Q 2819 -91 2113 -91 
Q 1303 -91 875 529 
Q 447 1150 447 2328 
Q 447 3434 972 4092 
Q 1497 4750 2381 4750 
Q 2619 4750 2861 4703 
Q 3103 4656 3366 4563 
z
" transform="scale(0.015625)"/>
        <path id="DejaVuSans-37" d="M 525 4666 
L 3525 4666 
L 3525 4397 
L 1831 0 
L 1172 0 
L 2766 4134 
L 525 4134 
L 525 4666 
z
" transform="scale(0.015625)"/>
        <path id="DejaVuSans-35" d="M 691 4666 
L 3169 4666 
L 3169 4134 
L 1269 4134 
L 1269 2991 
Q 1406 3038 1543 3061 
Q 1681 3084 1819 3084 
Q 2600 3084 3056 2656 
Q 3513 2228 3513 1497 
Q 3513 744 3044 326 
Q 2575 -91 1722 -91 
Q 1428 -91 1123 -41 
Q 819 9 494 109 
L 494 744 
Q 775 591 1075 516 
Q 1375 441 1709 441 
Q 2250 441 2565 725 
Q 2881 1009 2881 1497 
Q 2881 1984 2565 2268 
Q 2250 2553 1709 2553 
Q 1456 2553 1204 2497 
Q 953 2441 691 2322 
L 691 4666 
z
" transform="scale(0.015625)"/>
       </defs>
       <use xlink:href="#DejaVuSans-30"/>
       <use xlink:href="#DejaVuSans-2e" x="63.623047"/>
       <use xlink:href="#DejaVuSans-34" x="95.410156"/>
       <use xlink:href="#DejaVuSans-36" x="159.033203"/>
       <use xlink:href="#DejaVuSans-37" x="222.65625"/>
       <use xlink:href="#DejaVuSans-35" x="286.279297"/>
      </g>
     </g>
    </g>
    <g id="xtick_2">
     <g id="line2d_2">
      <g>
       <use xlink:href="#m2e5cc1e747" x="101.789822" y="307.584" style="stroke: #000000; stroke-width: 0.8"/>
      </g>
     </g>
     <g id="text_2">
      <!-- 0.4680 -->
      <g transform="translate(84.294509 322.182437) scale(0.1 -0.1)">
       <defs>
        <path id="DejaVuSans-38" d="M 2034 2216 
Q 1584 2216 1326 1975 
Q 1069 1734 1069 1313 
Q 1069 891 1326 650 
Q 1584 409 2034 409 
Q 2484 409 2743 651 
Q 3003 894 3003 1313 
Q 3003 1734 2745 1975 
Q 2488 2216 2034 2216 
z
M 1403 2484 
Q 997 2584 770 2862 
Q 544 3141 544 3541 
Q 544 4100 942 4425 
Q 1341 4750 2034 4750 
Q 2731 4750 3128 4425 
Q 3525 4100 3525 3541 
Q 3525 3141 3298 2862 
Q 3072 2584 2669 2484 
Q 3125 2378 3379 2068 
Q 3634 1759 3634 1313 
Q 3634 634 3220 271 
Q 2806 -91 2034 -91 
Q 1263 -91 848 271 
Q 434 634 434 1313 
Q 434 1759 690 2068 
Q 947 2378 1403 2484 
z
M 1172 3481 
Q 1172 3119 1398 2916 
Q 1625 2713 2034 2713 
Q 2441 2713 2670 2916 
Q 2900 3119 2900 3481 
Q 2900 3844 2670 4047 
Q 2441 4250 2034 4250 
Q 1625 4250 1398 4047 
Q 1172 3844 1172 3481 
z
" transform="scale(0.015625)"/>
       </defs>
       <use xlink:href="#DejaVuSans-30"/>
       <use xlink:href="#DejaVuSans-2e" x="63.623047"/>
       <use xlink:href="#DejaVuSans-34" x="95.410156"/>
       <use xlink:href="#DejaVuSans-36" x="159.033203"/>
       <use xlink:href="#DejaVuSans-38" x="222.65625"/>
       <use xlink:href="#DejaVuSans-30" x="286.279297"/>
      </g>
     </g>
    </g>
    <g id="xtick_3">
     <g id="line2d_3">
      <g>
       <use xlink:href="#m2e5cc1e747" x="142.145757" y="307.584" style="stroke: #000000; stroke-width: 0.8"/>
      </g>
     </g>
     <g id="text_3">
      <!-- 0.4685 -->
      <g transform="translate(124.650445 322.182437) scale(0.1 -0.1)">
       <use xlink:href="#DejaVuSans-30"/>
       <use xlink:href="#DejaVuSans-2e" x="63.623047"/>
       <use xlink:href="#DejaVuSans-34" x="95.410156"/>
       <use xlink:href="#DejaVuSans-36" x="159.033203"/>
       <use xlink:href="#DejaVuSans-38" x="222.65625"/>
       <use xlink:href="#DejaVuSans-35" x="286.279297"/>
      </g>
     </g>
    </g>
    <g id="xtick_4">
     <g id="line2d_4">
      <g>
       <use xlink:href="#m2e5cc1e747" x="182.501693" y="307.584" style="stroke: #000000; stroke-width: 0.8"/>
      </g>
     </g>
     <g id="text_4">
      <!-- 0.4690 -->
      <g transform="translate(165.00638 322.182437) scale(0.1 -0.1)">
       <defs>
        <path id="DejaVuSans-39" d="M 703 97 
L 703 672 
Q 941 559 1184 500 
Q 1428 441 1663 441 
Q 2288 441 2617 861 
Q 2947 1281 2994 2138 
Q 2813 1869 2534 1725 
Q 2256 1581 1919 1581 
Q 1219 1581 811 2004 
Q 403 2428 403 3163 
Q 403 3881 828 4315 
Q 1253 4750 1959 4750 
Q 2769 4750 3195 4129 
Q 3622 3509 3622 2328 
Q 3622 1225 3098 567 
Q 2575 -91 1691 -91 
Q 1453 -91 1209 -44 
Q 966 3 703 97 
z
M 1959 2075 
Q 2384 2075 2632 2365 
Q 2881 2656 2881 3163 
Q 2881 3666 2632 3958 
Q 2384 4250 1959 4250 
Q 1534 4250 1286 3958 
Q 1038 3666 1038 3163 
Q 1038 2656 1286 2365 
Q 1534 2075 1959 2075 
z
" transform="scale(0.015625)"/>
       </defs>
       <use xlink:href="#DejaVuSans-30"/>
       <use xlink:href="#DejaVuSans-2e" x="63.623047"/>
       <use xlink:href="#DejaVuSans-34" x="95.410156"/>
       <use xlink:href="#DejaVuSans-36" x="159.033203"/>
       <use xlink:href="#DejaVuSans-39" x="222.65625"/>
       <use xlink:href="#DejaVuSans-30" x="286.279297"/>
      </g>
     </g>
    </g>
    <g id="xtick_5">
     <g id="line2d_5">
      <g>
       <use xlink:href="#m2e5cc1e747" x="222.857628" y="307.584" style="stroke: #000000; stroke-width: 0.8"/>
      </g>
     </g>
     <g id="text_5">
      <!-- 0.4695 -->
      <g transform="translate(205.362316 322.182437) scale(0.1 -0.1)">
       <use xlink:href="#DejaVuSans-30"/>
       <use xlink:href="#DejaVuSans-2e" x="63.623047"/>
       <use xlink:href="#DejaVuSans-34" x="95.410156"/>
       <use xlink:href="#DejaVuSans-36" x="159.033203"/>
       <use xlink:href="#DejaVuSans-39" x="222.65625"/>
       <use xlink:href="#DejaVuSans-35" x="286.279297"/>
      </g>
     </g>
    </g>
    <g id="xtick_6">
     <g id="line2d_6">
      <g>
       <use xlink:href="#m2e5cc1e747" x="263.213564" y="307.584" style="stroke: #000000; stroke-width: 0.8"/>
      </g>
     </g>
     <g id="text_6">
      <!-- 0.4700 -->
      <g transform="translate(245.718251 322.182437) scale(0.1 -0.1)">
       <use xlink:href="#DejaVuSans-30"/>
       <use xlink:href="#DejaVuSans-2e" x="63.623047"/>
       <use xlink:href="#DejaVuSans-34" x="95.410156"/>
       <use xlink:href="#DejaVuSans-37" x="159.033203"/>
       <use xlink:href="#DejaVuSans-30" x="222.65625"/>
       <use xlink:href="#DejaVuSans-30" x="286.279297"/>
      </g>
     </g>
    </g>
    <g id="xtick_7">
     <g id="line2d_7">
      <g>
       <use xlink:href="#m2e5cc1e747" x="303.569499" y="307.584" style="stroke: #000000; stroke-width: 0.8"/>
      </g>
     </g>
     <g id="text_7">
      <!-- 0.4705 -->
      <g transform="translate(286.074187 322.182437) scale(0.1 -0.1)">
       <use xlink:href="#DejaVuSans-30"/>
       <use xlink:href="#DejaVuSans-2e" x="63.623047"/>
       <use xlink:href="#DejaVuSans-34" x="95.410156"/>
       <use xlink:href="#DejaVuSans-37" x="159.033203"/>
       <use xlink:href="#DejaVuSans-30" x="222.65625"/>
       <use xlink:href="#DejaVuSans-35" x="286.279297"/>
      </g>
     </g>
    </g>
    <g id="xtick_8">
     <g id="line2d_8">
      <g>
       <use xlink:href="#m2e5cc1e747" x="343.925434" y="307.584" style="stroke: #000000; stroke-width: 0.8"/>
      </g>
     </g>
     <g id="text_8">
      <!-- 0.4710 -->
      <g transform="translate(326.430122 322.182437) scale(0.1 -0.1)">
       <defs>
        <path id="DejaVuSans-31" d="M 794 531 
L 1825 531 
L 1825 4091 
L 703 3866 
L 703 4441 
L 1819 4666 
L 2450 4666 
L 2450 531 
L 3481 531 
L 3481 0 
L 794 0 
L 794 531 
z
" transform="scale(0.015625)"/>
       </defs>
       <use xlink:href="#DejaVuSans-30"/>
       <use xlink:href="#DejaVuSans-2e" x="63.623047"/>
       <use xlink:href="#DejaVuSans-34" x="95.410156"/>
       <use xlink:href="#DejaVuSans-37" x="159.033203"/>
       <use xlink:href="#DejaVuSans-31" x="222.65625"/>
       <use xlink:href="#DejaVuSans-30" x="286.279297"/>
      </g>
     </g>
    </g>
    <g id="xtick_9">
     <g id="line2d_9">
      <g>
       <use xlink:href="#m2e5cc1e747" x="384.28137" y="307.584" style="stroke: #000000; stroke-width: 0.8"/>
      </g>
     </g>
     <g id="text_9">
      <!-- 0.4715 -->
      <g transform="translate(366.786057 322.182437) scale(0.1 -0.1)">
       <use xlink:href="#DejaVuSans-30"/>
       <use xlink:href="#DejaVuSans-2e" x="63.623047"/>
       <use xlink:href="#DejaVuSans-34" x="95.410156"/>
       <use xlink:href="#DejaVuSans-37" x="159.033203"/>
       <use xlink:href="#DejaVuSans-31" x="222.65625"/>
       <use xlink:href="#DejaVuSans-35" x="286.279297"/>
      </g>
     </g>
    </g>
    <g id="text_10">
     <!-- Loss -->
     <g transform="translate(225.192813 335.860562) scale(0.1 -0.1)">
      <defs>
       <path id="DejaVuSans-4c" d="M 628 4666 
L 1259 4666 
L 1259 531 
L 3531 531 
L 3531 0 
L 628 0 
L 628 4666 
z
" transform="scale(0.015625)"/>
       <path id="DejaVuSans-6f" d="M 1959 3097 
Q 1497 3097 1228 2736 
Q 959 2375 959 1747 
Q 959 1119 1226 758 
Q 1494 397 1959 397 
Q 2419 397 2687 759 
Q 2956 1122 2956 1747 
Q 2956 2369 2687 2733 
Q 2419 3097 1959 3097 
z
M 1959 3584 
Q 2709 3584 3137 3096 
Q 3566 2609 3566 1747 
Q 3566 888 3137 398 
Q 2709 -91 1959 -91 
Q 1206 -91 779 398 
Q 353 888 353 1747 
Q 353 2609 779 3096 
Q 1206 3584 1959 3584 
z
" transform="scale(0.015625)"/>
       <path id="DejaVuSans-73" d="M 2834 3397 
L 2834 2853 
Q 2591 2978 2328 3040 
Q 2066 3103 1784 3103 
Q 1356 3103 1142 2972 
Q 928 2841 928 2578 
Q 928 2378 1081 2264 
Q 1234 2150 1697 2047 
L 1894 2003 
Q 2506 1872 2764 1633 
Q 3022 1394 3022 966 
Q 3022 478 2636 193 
Q 2250 -91 1575 -91 
Q 1294 -91 989 -36 
Q 684 19 347 128 
L 347 722 
Q 666 556 975 473 
Q 1284 391 1588 391 
Q 1994 391 2212 530 
Q 2431 669 2431 922 
Q 2431 1156 2273 1281 
Q 2116 1406 1581 1522 
L 1381 1569 
Q 847 1681 609 1914 
Q 372 2147 372 2553 
Q 372 3047 722 3315 
Q 1072 3584 1716 3584 
Q 2034 3584 2315 3537 
Q 2597 3491 2834 3397 
z
" transform="scale(0.015625)"/>
      </defs>
      <use xlink:href="#DejaVuSans-4c"/>
      <use xlink:href="#DejaVuSans-6f" x="53.962891"/>
      <use xlink:href="#DejaVuSans-73" x="115.144531"/>
      <use xlink:href="#DejaVuSans-73" x="167.244141"/>
     </g>
    </g>
   </g>
   <g id="matplotlib.axis_2">
    <g id="ytick_1">
     <g id="line2d_10">
      <defs>
       <path id="mc722cfe200" d="M 0 0 
L -3.5 0 
" style="stroke: #000000; stroke-width: 0.8"/>
      </defs>
      <g>
       <use xlink:href="#mc722cfe200" x="57.6" y="307.584" style="stroke: #000000; stroke-width: 0.8"/>
      </g>
     </g>
     <g id="text_11">
      <!-- 0 -->
      <g transform="translate(44.2375 311.383219) scale(0.1 -0.1)">
       <use xlink:href="#DejaVuSans-30"/>
      </g>
     </g>
    </g>
    <g id="ytick_2">
     <g id="line2d_11">
      <g>
       <use xlink:href="#mc722cfe200" x="57.6" y="270.988119" style="stroke: #000000; stroke-width: 0.8"/>
      </g>
     </g>
     <g id="text_12">
      <!-- 2000 -->
      <g transform="translate(25.15 274.787338) scale(0.1 -0.1)">
       <defs>
        <path id="DejaVuSans-32" d="M 1228 531 
L 3431 531 
L 3431 0 
L 469 0 
L 469 531 
Q 828 903 1448 1529 
Q 2069 2156 2228 2338 
Q 2531 2678 2651 2914 
Q 2772 3150 2772 3378 
Q 2772 3750 2511 3984 
Q 2250 4219 1831 4219 
Q 1534 4219 1204 4116 
Q 875 4013 500 3803 
L 500 4441 
Q 881 4594 1212 4672 
Q 1544 4750 1819 4750 
Q 2544 4750 2975 4387 
Q 3406 4025 3406 3419 
Q 3406 3131 3298 2873 
Q 3191 2616 2906 2266 
Q 2828 2175 2409 1742 
Q 1991 1309 1228 531 
z
" transform="scale(0.015625)"/>
       </defs>
       <use xlink:href="#DejaVuSans-32"/>
       <use xlink:href="#DejaVuSans-30" x="63.623047"/>
       <use xlink:href="#DejaVuSans-30" x="127.246094"/>
       <use xlink:href="#DejaVuSans-30" x="190.869141"/>
      </g>
     </g>
    </g>
    <g id="ytick_3">
     <g id="line2d_12">
      <g>
       <use xlink:href="#mc722cfe200" x="57.6" y="234.392239" style="stroke: #000000; stroke-width: 0.8"/>
      </g>
     </g>
     <g id="text_13">
      <!-- 4000 -->
      <g transform="translate(25.15 238.191457) scale(0.1 -0.1)">
       <use xlink:href="#DejaVuSans-34"/>
       <use xlink:href="#DejaVuSans-30" x="63.623047"/>
       <use xlink:href="#DejaVuSans-30" x="127.246094"/>
       <use xlink:href="#DejaVuSans-30" x="190.869141"/>
      </g>
     </g>
    </g>
    <g id="ytick_4">
     <g id="line2d_13">
      <g>
       <use xlink:href="#mc722cfe200" x="57.6" y="197.796358" style="stroke: #000000; stroke-width: 0.8"/>
      </g>
     </g>
     <g id="text_14">
      <!-- 6000 -->
      <g transform="translate(25.15 201.595577) scale(0.1 -0.1)">
       <use xlink:href="#DejaVuSans-36"/>
       <use xlink:href="#DejaVuSans-30" x="63.623047"/>
       <use xlink:href="#DejaVuSans-30" x="127.246094"/>
       <use xlink:href="#DejaVuSans-30" x="190.869141"/>
      </g>
     </g>
    </g>
    <g id="ytick_5">
     <g id="line2d_14">
      <g>
       <use xlink:href="#mc722cfe200" x="57.6" y="161.200477" style="stroke: #000000; stroke-width: 0.8"/>
      </g>
     </g>
     <g id="text_15">
      <!-- 8000 -->
      <g transform="translate(25.15 164.999696) scale(0.1 -0.1)">
       <use xlink:href="#DejaVuSans-38"/>
       <use xlink:href="#DejaVuSans-30" x="63.623047"/>
       <use xlink:href="#DejaVuSans-30" x="127.246094"/>
       <use xlink:href="#DejaVuSans-30" x="190.869141"/>
      </g>
     </g>
    </g>
    <g id="ytick_6">
     <g id="line2d_15">
      <g>
       <use xlink:href="#mc722cfe200" x="57.6" y="124.604597" style="stroke: #000000; stroke-width: 0.8"/>
      </g>
     </g>
     <g id="text_16">
      <!-- 10000 -->
      <g transform="translate(18.7875 128.403815) scale(0.1 -0.1)">
       <use xlink:href="#DejaVuSans-31"/>
       <use xlink:href="#DejaVuSans-30" x="63.623047"/>
       <use xlink:href="#DejaVuSans-30" x="127.246094"/>
       <use xlink:href="#DejaVuSans-30" x="190.869141"/>
       <use xlink:href="#DejaVuSans-30" x="254.492188"/>
      </g>
     </g>
    </g>
    <g id="ytick_7">
     <g id="line2d_16">
      <g>
       <use xlink:href="#mc722cfe200" x="57.6" y="88.008716" style="stroke: #000000; stroke-width: 0.8"/>
      </g>
     </g>
     <g id="text_17">
      <!-- 12000 -->
      <g transform="translate(18.7875 91.807935) scale(0.1 -0.1)">
       <use xlink:href="#DejaVuSans-31"/>
       <use xlink:href="#DejaVuSans-32" x="63.623047"/>
       <use xlink:href="#DejaVuSans-30" x="127.246094"/>
       <use xlink:href="#DejaVuSans-30" x="190.869141"/>
       <use xlink:href="#DejaVuSans-30" x="254.492188"/>
      </g>
     </g>
    </g>
    <g id="ytick_8">
     <g id="line2d_17">
      <g>
       <use xlink:href="#mc722cfe200" x="57.6" y="51.412835" style="stroke: #000000; stroke-width: 0.8"/>
      </g>
     </g>
     <g id="text_18">
      <!-- 14000 -->
      <g transform="translate(18.7875 55.212054) scale(0.1 -0.1)">
       <use xlink:href="#DejaVuSans-31"/>
       <use xlink:href="#DejaVuSans-34" x="63.623047"/>
       <use xlink:href="#DejaVuSans-30" x="127.246094"/>
       <use xlink:href="#DejaVuSans-30" x="190.869141"/>
       <use xlink:href="#DejaVuSans-30" x="254.492188"/>
      </g>
     </g>
    </g>
    <g id="text_19">
     <!-- Density -->
     <g transform="translate(12.707812 193.536594) rotate(-90) scale(0.1 -0.1)">
      <defs>
       <path id="DejaVuSans-44" d="M 1259 4147 
L 1259 519 
L 2022 519 
Q 2988 519 3436 956 
Q 3884 1394 3884 2338 
Q 3884 3275 3436 3711 
Q 2988 4147 2022 4147 
L 1259 4147 
z
M 628 4666 
L 1925 4666 
Q 3281 4666 3915 4102 
Q 4550 3538 4550 2338 
Q 4550 1131 3912 565 
Q 3275 0 1925 0 
L 628 0 
L 628 4666 
z
" transform="scale(0.015625)"/>
       <path id="DejaVuSans-65" d="M 3597 1894 
L 3597 1613 
L 953 1613 
Q 991 1019 1311 708 
Q 1631 397 2203 397 
Q 2534 397 2845 478 
Q 3156 559 3463 722 
L 3463 178 
Q 3153 47 2828 -22 
Q 2503 -91 2169 -91 
Q 1331 -91 842 396 
Q 353 884 353 1716 
Q 353 2575 817 3079 
Q 1281 3584 2069 3584 
Q 2775 3584 3186 3129 
Q 3597 2675 3597 1894 
z
M 3022 2063 
Q 3016 2534 2758 2815 
Q 2500 3097 2075 3097 
Q 1594 3097 1305 2825 
Q 1016 2553 972 2059 
L 3022 2063 
z
" transform="scale(0.015625)"/>
       <path id="DejaVuSans-6e" d="M 3513 2113 
L 3513 0 
L 2938 0 
L 2938 2094 
Q 2938 2591 2744 2837 
Q 2550 3084 2163 3084 
Q 1697 3084 1428 2787 
Q 1159 2491 1159 1978 
L 1159 0 
L 581 0 
L 581 3500 
L 1159 3500 
L 1159 2956 
Q 1366 3272 1645 3428 
Q 1925 3584 2291 3584 
Q 2894 3584 3203 3211 
Q 3513 2838 3513 2113 
z
" transform="scale(0.015625)"/>
       <path id="DejaVuSans-69" d="M 603 3500 
L 1178 3500 
L 1178 0 
L 603 0 
L 603 3500 
z
M 603 4863 
L 1178 4863 
L 1178 4134 
L 603 4134 
L 603 4863 
z
" transform="scale(0.015625)"/>
       <path id="DejaVuSans-74" d="M 1172 4494 
L 1172 3500 
L 2356 3500 
L 2356 3053 
L 1172 3053 
L 1172 1153 
Q 1172 725 1289 603 
Q 1406 481 1766 481 
L 2356 481 
L 2356 0 
L 1766 0 
Q 1100 0 847 248 
Q 594 497 594 1153 
L 594 3053 
L 172 3053 
L 172 3500 
L 594 3500 
L 594 4494 
L 1172 4494 
z
" transform="scale(0.015625)"/>
       <path id="DejaVuSans-79" d="M 2059 -325 
Q 1816 -950 1584 -1140 
Q 1353 -1331 966 -1331 
L 506 -1331 
L 506 -850 
L 844 -850 
Q 1081 -850 1212 -737 
Q 1344 -625 1503 -206 
L 1606 56 
L 191 3500 
L 800 3500 
L 1894 763 
L 2988 3500 
L 3597 3500 
L 2059 -325 
z
" transform="scale(0.015625)"/>
      </defs>
      <use xlink:href="#DejaVuSans-44"/>
      <use xlink:href="#DejaVuSans-65" x="77.001953"/>
      <use xlink:href="#DejaVuSans-6e" x="138.525391"/>
      <use xlink:href="#DejaVuSans-73" x="201.904297"/>
      <use xlink:href="#DejaVuSans-69" x="254.003906"/>
      <use xlink:href="#DejaVuSans-74" x="281.787109"/>
      <use xlink:href="#DejaVuSans-79" x="320.996094"/>
     </g>
    </g>
   </g>
   <g id="line2d_18">
    <path d="M 292.984921 307.49064 
L 294.678625 307.240919 
L 295.888413 306.816231 
L 296.856243 306.224684 
L 297.824074 305.326171 
L 298.791904 304.060717 
L 299.759735 302.409922 
L 300.969523 299.879134 
L 304.35693 292.394455 
L 305.32476 290.874435 
L 306.292591 289.776459 
L 307.260421 289.027709 
L 309.679997 287.441374 
L 310.40587 286.593038 
L 311.131743 285.350485 
L 311.857616 283.58715 
L 312.583489 281.185138 
L 313.309362 278.045198 
L 314.277192 272.599627 
L 315.245023 265.697951 
L 316.454811 255.300541 
L 319.842218 224.255831 
L 320.810048 218.083255 
L 321.535921 215.052746 
L 322.019836 213.900163 
L 322.261794 213.597364 
L 322.503752 213.480017 
L 322.745709 213.548969 
L 322.987667 213.803879 
L 323.471582 214.864353 
L 323.955497 216.635787 
L 324.68137 220.528927 
L 325.407243 225.719389 
L 326.375073 234.206683 
L 328.068777 251.41153 
L 330.246395 273.116893 
L 331.456184 283.209432 
L 332.665972 291.33583 
L 333.633802 296.370622 
L 334.601633 300.18456 
L 335.569463 302.930997 
L 336.295336 304.40673 
L 337.021209 305.478942 
L 337.747082 306.232363 
L 338.714912 306.87218 
L 339.682743 307.230858 
L 341.134489 307.474092 
L 341.134489 307.474092 
" clip-path="url(#pcb3b8fba68)" style="fill: none; stroke: #1f77b4; stroke-width: 1.5; stroke-linecap: square"/>
   </g>
   <g id="line2d_19">
    <path d="M 332.800426 307.455516 
L 334.249616 307.170301 
L 335.215742 306.757833 
L 335.940337 306.258156 
L 336.664932 305.537251 
L 337.389527 304.543114 
L 338.114121 303.232973 
L 339.080248 300.956803 
L 340.046374 298.097931 
L 341.495564 292.97208 
L 343.91088 283.401283 
L 345.601601 275.933127 
L 346.809259 269.624334 
L 348.258449 260.78342 
L 350.432233 247.24154 
L 351.39836 242.5068 
L 352.122955 239.809165 
L 352.84755 237.831384 
L 353.572144 236.429373 
L 354.779802 234.734954 
L 355.98746 232.946791 
L 358.161245 229.301675 
L 358.644308 228.966322 
L 358.88584 228.952508 
L 359.127371 229.061661 
L 359.610435 229.703593 
L 360.093498 230.984755 
L 360.576561 232.96387 
L 361.301156 237.266989 
L 362.025751 243.039995 
L 363.233409 254.946636 
L 365.407193 276.819006 
L 366.37332 284.231013 
L 367.097914 288.471357 
L 367.822509 291.65418 
L 368.547104 293.965591 
L 369.271699 295.645449 
L 370.237825 297.314398 
L 374.826926 304.085842 
L 376.034584 305.474501 
L 377.00071 306.283784 
L 377.966837 306.837978 
L 379.174495 307.247403 
L 380.623685 307.472453 
L 380.865216 307.492668 
L 380.865216 307.492668 
" clip-path="url(#pcb3b8fba68)" style="fill: none; stroke: #ff7f0e; stroke-width: 1.5; stroke-linecap: square"/>
   </g>
   <g id="line2d_20">
    <path d="M 73.832727 307.372249 
L 74.605908 307.049668 
L 75.224453 306.531621 
L 75.688362 305.896681 
L 76.152271 304.960704 
L 76.770816 303.077809 
L 77.38936 300.245042 
L 78.007905 296.237926 
L 78.781086 289.360779 
L 79.708904 278.412777 
L 80.945994 260.533104 
L 83.420173 224.204488 
L 84.502627 211.631341 
L 85.275808 205.064142 
L 85.739716 202.43408 
L 86.203625 200.956723 
L 86.512898 200.653378 
L 86.667534 200.708725 
L 86.976806 201.225603 
L 87.286079 202.258192 
L 87.749987 204.659824 
L 88.523168 210.270495 
L 89.914894 220.944106 
L 90.533439 224.241048 
L 91.151984 226.273069 
L 91.615893 227.124158 
L 92.852983 228.796331 
L 93.316891 230.132409 
L 93.7808 232.283689 
L 94.399345 236.652833 
L 95.01789 242.728245 
L 95.945707 254.269477 
L 98.265251 284.278715 
L 99.193068 292.996967 
L 99.966249 298.323171 
L 100.73943 302.060077 
L 101.357975 304.101995 
L 101.97652 305.486755 
L 102.595065 306.379894 
L 103.21361 306.926439 
L 103.986791 307.29711 
L 104.605336 307.444917 
L 104.605336 307.444917 
" clip-path="url(#pcb3b8fba68)" style="fill: none; stroke: #2ca02c; stroke-width: 1.5; stroke-linecap: square"/>
   </g>
   <g id="line2d_21">
    <path d="M 157.967504 307.353669 
L 158.896323 307.048534 
L 159.592937 306.620195 
L 160.289551 305.914407 
L 160.986165 304.799814 
L 161.682779 303.113349 
L 162.379393 300.669412 
L 163.076008 297.27897 
L 163.772622 292.77867 
L 164.701441 284.889713 
L 165.63026 274.902153 
L 167.023488 257.079279 
L 169.11333 230.313038 
L 170.042149 220.971802 
L 170.738763 215.556029 
L 171.435377 211.591075 
L 172.131992 209.061218 
L 172.596401 208.145799 
L 173.060811 207.828327 
L 173.293015 207.889926 
L 173.757425 208.448752 
L 174.221834 209.584403 
L 174.686244 211.292485 
L 175.382858 214.906872 
L 176.079472 219.712856 
L 177.008291 227.686452 
L 178.865928 246.368776 
L 180.259157 259.580301 
L 181.42018 268.632566 
L 182.581204 275.902796 
L 183.974432 283.102495 
L 185.599865 290.404129 
L 186.760889 294.820623 
L 187.689708 297.562731 
L 188.386322 299.029426 
L 189.082936 299.95527 
L 189.547346 300.284006 
L 190.011755 300.406798 
L 190.708369 300.278171 
L 191.637188 299.74721 
L 193.030416 298.931344 
L 193.72703 298.802121 
L 194.423645 298.964033 
L 195.120259 299.431439 
L 195.816873 300.169699 
L 196.977897 301.798163 
L 199.067739 304.808132 
L 199.996558 305.807114 
L 200.925377 306.52749 
L 201.854196 307.000518 
L 203.015219 307.333604 
L 204.176243 307.488254 
L 204.176243 307.488254 
" clip-path="url(#pcb3b8fba68)" style="fill: none; stroke: #d62728; stroke-width: 1.5; stroke-linecap: square"/>
   </g>
   <g id="line2d_22">
    <path d="M 360.868359 307.462484 
L 362.002597 307.190595 
L 362.758756 306.803828 
L 363.514915 306.154052 
L 364.271074 305.161588 
L 365.027233 303.79073 
L 366.161472 301.167034 
L 367.48475 298.075485 
L 368.24091 296.839818 
L 368.808029 296.327391 
L 369.375148 296.177876 
L 369.942267 296.310675 
L 371.076506 296.704515 
L 371.454586 296.602263 
L 371.832665 296.242682 
L 372.210745 295.540757 
L 372.588824 294.416148 
L 373.155944 291.780378 
L 373.723063 287.831132 
L 374.290182 282.430284 
L 375.046341 272.870948 
L 375.99154 257.310567 
L 377.314818 230.761836 
L 378.827137 201.24587 
L 379.583296 190.784206 
L 380.150415 186.032266 
L 380.528495 184.515144 
L 380.717534 184.257597 
L 380.906574 184.326663 
L 381.095614 184.71158 
L 381.473693 186.36667 
L 382.040813 190.744006 
L 382.796972 199.007387 
L 385.065449 225.631416 
L 386.199688 235.809021 
L 389.602404 264.535744 
L 392.24896 288.336825 
L 393.194159 295.07922 
L 394.139358 300.183658 
L 394.895517 303.061432 
L 395.651676 305.002385 
L 396.407835 306.210874 
L 397.163994 306.904722 
L 397.920153 307.271885 
L 398.487273 307.418155 
L 398.487273 307.418155 
" clip-path="url(#pcb3b8fba68)" style="fill: none; stroke: #9467bd; stroke-width: 1.5; stroke-linecap: square"/>
   </g>
   <g id="line2d_23">
    <path d="M 221.833758 307.47548 
L 223.069606 307.247959 
L 224.099478 306.812913 
L 224.923377 306.186999 
L 225.747275 305.199084 
L 226.571173 303.733751 
L 227.395071 301.679232 
L 228.21897 298.935139 
L 229.042868 295.411757 
L 229.866766 291.023341 
L 230.896639 284.195321 
L 231.926512 275.777098 
L 233.162359 263.713618 
L 236.457952 229.787283 
L 237.281851 223.828643 
L 237.899774 220.555937 
L 238.517698 218.345137 
L 238.929647 217.438333 
L 239.341596 216.950341 
L 239.753545 216.841191 
L 240.165495 217.066345 
L 240.577444 217.580959 
L 241.195367 218.807588 
L 242.019266 221.138891 
L 242.843164 224.172591 
L 243.667062 227.93868 
L 244.696935 233.797053 
L 245.932782 242.451638 
L 249.43435 268.426182 
L 250.670197 275.329824 
L 252.112019 282.068987 
L 254.995663 294.215316 
L 256.437485 299.448274 
L 257.467358 302.394519 
L 258.291256 304.183127 
L 259.115155 305.483266 
L 259.939053 306.363735 
L 260.762951 306.918662 
L 261.792824 307.299441 
L 262.822697 307.474241 
L 262.822697 307.474241 
" clip-path="url(#pcb3b8fba68)" style="fill: none; stroke: #8c564b; stroke-width: 1.5; stroke-linecap: square"/>
   </g>
   <g id="patch_3">
    <path d="M 57.6 307.584 
L 57.6 41.472 
" style="fill: none; stroke: #000000; stroke-width: 0.8; stroke-linejoin: miter; stroke-linecap: square"/>
   </g>
   <g id="patch_4">
    <path d="M 414.72 307.584 
L 414.72 41.472 
" style="fill: none; stroke: #000000; stroke-width: 0.8; stroke-linejoin: miter; stroke-linecap: square"/>
   </g>
   <g id="patch_5">
    <path d="M 57.6 307.584 
L 414.72 307.584 
" style="fill: none; stroke: #000000; stroke-width: 0.8; stroke-linejoin: miter; stroke-linecap: square"/>
   </g>
   <g id="patch_6">
    <path d="M 57.6 41.472 
L 414.72 41.472 
" style="fill: none; stroke: #000000; stroke-width: 0.8; stroke-linejoin: miter; stroke-linecap: square"/>
   </g>
   <g id="legend_1">
    <g id="patch_7">
     <path d="M 421.72 174.179037 
L 689.184062 174.179037 
Q 691.184062 174.179037 691.184062 172.179037 
L 691.184062 70.432163 
Q 691.184062 68.432163 689.184062 68.432163 
L 421.72 68.432163 
Q 419.72 68.432163 419.72 70.432163 
L 419.72 172.179037 
Q 419.72 174.179037 421.72 174.179037 
z
" style="fill: #ffffff; opacity: 0.8; stroke: #cccccc; stroke-linejoin: miter"/>
    </g>
    <g id="line2d_24">
     <path d="M 423.72 76.5306 
L 433.72 76.5306 
L 443.72 76.5306 
" style="fill: none; stroke: #1f77b4; stroke-width: 1.5; stroke-linecap: square"/>
    </g>
    <g id="text_20">
     <!-- centralized linearSVR with 1 training dataset -->
     <g transform="translate(451.72 80.0306) scale(0.1 -0.1)">
      <defs>
       <path id="DejaVuSans-63" d="M 3122 3366 
L 3122 2828 
Q 2878 2963 2633 3030 
Q 2388 3097 2138 3097 
Q 1578 3097 1268 2742 
Q 959 2388 959 1747 
Q 959 1106 1268 751 
Q 1578 397 2138 397 
Q 2388 397 2633 464 
Q 2878 531 3122 666 
L 3122 134 
Q 2881 22 2623 -34 
Q 2366 -91 2075 -91 
Q 1284 -91 818 406 
Q 353 903 353 1747 
Q 353 2603 823 3093 
Q 1294 3584 2113 3584 
Q 2378 3584 2631 3529 
Q 2884 3475 3122 3366 
z
" transform="scale(0.015625)"/>
       <path id="DejaVuSans-72" d="M 2631 2963 
Q 2534 3019 2420 3045 
Q 2306 3072 2169 3072 
Q 1681 3072 1420 2755 
Q 1159 2438 1159 1844 
L 1159 0 
L 581 0 
L 581 3500 
L 1159 3500 
L 1159 2956 
Q 1341 3275 1631 3429 
Q 1922 3584 2338 3584 
Q 2397 3584 2469 3576 
Q 2541 3569 2628 3553 
L 2631 2963 
z
" transform="scale(0.015625)"/>
       <path id="DejaVuSans-61" d="M 2194 1759 
Q 1497 1759 1228 1600 
Q 959 1441 959 1056 
Q 959 750 1161 570 
Q 1363 391 1709 391 
Q 2188 391 2477 730 
Q 2766 1069 2766 1631 
L 2766 1759 
L 2194 1759 
z
M 3341 1997 
L 3341 0 
L 2766 0 
L 2766 531 
Q 2569 213 2275 61 
Q 1981 -91 1556 -91 
Q 1019 -91 701 211 
Q 384 513 384 1019 
Q 384 1609 779 1909 
Q 1175 2209 1959 2209 
L 2766 2209 
L 2766 2266 
Q 2766 2663 2505 2880 
Q 2244 3097 1772 3097 
Q 1472 3097 1187 3025 
Q 903 2953 641 2809 
L 641 3341 
Q 956 3463 1253 3523 
Q 1550 3584 1831 3584 
Q 2591 3584 2966 3190 
Q 3341 2797 3341 1997 
z
" transform="scale(0.015625)"/>
       <path id="DejaVuSans-6c" d="M 603 4863 
L 1178 4863 
L 1178 0 
L 603 0 
L 603 4863 
z
" transform="scale(0.015625)"/>
       <path id="DejaVuSans-7a" d="M 353 3500 
L 3084 3500 
L 3084 2975 
L 922 459 
L 3084 459 
L 3084 0 
L 275 0 
L 275 525 
L 2438 3041 
L 353 3041 
L 353 3500 
z
" transform="scale(0.015625)"/>
       <path id="DejaVuSans-64" d="M 2906 2969 
L 2906 4863 
L 3481 4863 
L 3481 0 
L 2906 0 
L 2906 525 
Q 2725 213 2448 61 
Q 2172 -91 1784 -91 
Q 1150 -91 751 415 
Q 353 922 353 1747 
Q 353 2572 751 3078 
Q 1150 3584 1784 3584 
Q 2172 3584 2448 3432 
Q 2725 3281 2906 2969 
z
M 947 1747 
Q 947 1113 1208 752 
Q 1469 391 1925 391 
Q 2381 391 2643 752 
Q 2906 1113 2906 1747 
Q 2906 2381 2643 2742 
Q 2381 3103 1925 3103 
Q 1469 3103 1208 2742 
Q 947 2381 947 1747 
z
" transform="scale(0.015625)"/>
       <path id="DejaVuSans-20" transform="scale(0.015625)"/>
       <path id="DejaVuSans-53" d="M 3425 4513 
L 3425 3897 
Q 3066 4069 2747 4153 
Q 2428 4238 2131 4238 
Q 1616 4238 1336 4038 
Q 1056 3838 1056 3469 
Q 1056 3159 1242 3001 
Q 1428 2844 1947 2747 
L 2328 2669 
Q 3034 2534 3370 2195 
Q 3706 1856 3706 1288 
Q 3706 609 3251 259 
Q 2797 -91 1919 -91 
Q 1588 -91 1214 -16 
Q 841 59 441 206 
L 441 856 
Q 825 641 1194 531 
Q 1563 422 1919 422 
Q 2459 422 2753 634 
Q 3047 847 3047 1241 
Q 3047 1584 2836 1778 
Q 2625 1972 2144 2069 
L 1759 2144 
Q 1053 2284 737 2584 
Q 422 2884 422 3419 
Q 422 4038 858 4394 
Q 1294 4750 2059 4750 
Q 2388 4750 2728 4690 
Q 3069 4631 3425 4513 
z
" transform="scale(0.015625)"/>
       <path id="DejaVuSans-56" d="M 1831 0 
L 50 4666 
L 709 4666 
L 2188 738 
L 3669 4666 
L 4325 4666 
L 2547 0 
L 1831 0 
z
" transform="scale(0.015625)"/>
       <path id="DejaVuSans-52" d="M 2841 2188 
Q 3044 2119 3236 1894 
Q 3428 1669 3622 1275 
L 4263 0 
L 3584 0 
L 2988 1197 
Q 2756 1666 2539 1819 
Q 2322 1972 1947 1972 
L 1259 1972 
L 1259 0 
L 628 0 
L 628 4666 
L 2053 4666 
Q 2853 4666 3247 4331 
Q 3641 3997 3641 3322 
Q 3641 2881 3436 2590 
Q 3231 2300 2841 2188 
z
M 1259 4147 
L 1259 2491 
L 2053 2491 
Q 2509 2491 2742 2702 
Q 2975 2913 2975 3322 
Q 2975 3731 2742 3939 
Q 2509 4147 2053 4147 
L 1259 4147 
z
" transform="scale(0.015625)"/>
       <path id="DejaVuSans-77" d="M 269 3500 
L 844 3500 
L 1563 769 
L 2278 3500 
L 2956 3500 
L 3675 769 
L 4391 3500 
L 4966 3500 
L 4050 0 
L 3372 0 
L 2619 2869 
L 1863 0 
L 1184 0 
L 269 3500 
z
" transform="scale(0.015625)"/>
       <path id="DejaVuSans-68" d="M 3513 2113 
L 3513 0 
L 2938 0 
L 2938 2094 
Q 2938 2591 2744 2837 
Q 2550 3084 2163 3084 
Q 1697 3084 1428 2787 
Q 1159 2491 1159 1978 
L 1159 0 
L 581 0 
L 581 4863 
L 1159 4863 
L 1159 2956 
Q 1366 3272 1645 3428 
Q 1925 3584 2291 3584 
Q 2894 3584 3203 3211 
Q 3513 2838 3513 2113 
z
" transform="scale(0.015625)"/>
       <path id="DejaVuSans-67" d="M 2906 1791 
Q 2906 2416 2648 2759 
Q 2391 3103 1925 3103 
Q 1463 3103 1205 2759 
Q 947 2416 947 1791 
Q 947 1169 1205 825 
Q 1463 481 1925 481 
Q 2391 481 2648 825 
Q 2906 1169 2906 1791 
z
M 3481 434 
Q 3481 -459 3084 -895 
Q 2688 -1331 1869 -1331 
Q 1566 -1331 1297 -1286 
Q 1028 -1241 775 -1147 
L 775 -588 
Q 1028 -725 1275 -790 
Q 1522 -856 1778 -856 
Q 2344 -856 2625 -561 
Q 2906 -266 2906 331 
L 2906 616 
Q 2728 306 2450 153 
Q 2172 0 1784 0 
Q 1141 0 747 490 
Q 353 981 353 1791 
Q 353 2603 747 3093 
Q 1141 3584 1784 3584 
Q 2172 3584 2450 3431 
Q 2728 3278 2906 2969 
L 2906 3500 
L 3481 3500 
L 3481 434 
z
" transform="scale(0.015625)"/>
      </defs>
      <use xlink:href="#DejaVuSans-63"/>
      <use xlink:href="#DejaVuSans-65" x="54.980469"/>
      <use xlink:href="#DejaVuSans-6e" x="116.503906"/>
      <use xlink:href="#DejaVuSans-74" x="179.882812"/>
      <use xlink:href="#DejaVuSans-72" x="219.091797"/>
      <use xlink:href="#DejaVuSans-61" x="260.205078"/>
      <use xlink:href="#DejaVuSans-6c" x="321.484375"/>
      <use xlink:href="#DejaVuSans-69" x="349.267578"/>
      <use xlink:href="#DejaVuSans-7a" x="377.050781"/>
      <use xlink:href="#DejaVuSans-65" x="429.541016"/>
      <use xlink:href="#DejaVuSans-64" x="491.064453"/>
      <use xlink:href="#DejaVuSans-20" x="554.541016"/>
      <use xlink:href="#DejaVuSans-6c" x="586.328125"/>
      <use xlink:href="#DejaVuSans-69" x="614.111328"/>
      <use xlink:href="#DejaVuSans-6e" x="641.894531"/>
      <use xlink:href="#DejaVuSans-65" x="705.273438"/>
      <use xlink:href="#DejaVuSans-61" x="766.796875"/>
      <use xlink:href="#DejaVuSans-72" x="828.076172"/>
      <use xlink:href="#DejaVuSans-53" x="869.189453"/>
      <use xlink:href="#DejaVuSans-56" x="932.666016"/>
      <use xlink:href="#DejaVuSans-52" x="1001.074219"/>
      <use xlink:href="#DejaVuSans-20" x="1070.556641"/>
      <use xlink:href="#DejaVuSans-77" x="1102.34375"/>
      <use xlink:href="#DejaVuSans-69" x="1184.130859"/>
      <use xlink:href="#DejaVuSans-74" x="1211.914062"/>
      <use xlink:href="#DejaVuSans-68" x="1251.123047"/>
      <use xlink:href="#DejaVuSans-20" x="1314.501953"/>
      <use xlink:href="#DejaVuSans-31" x="1346.289062"/>
      <use xlink:href="#DejaVuSans-20" x="1409.912109"/>
      <use xlink:href="#DejaVuSans-74" x="1441.699219"/>
      <use xlink:href="#DejaVuSans-72" x="1480.908203"/>
      <use xlink:href="#DejaVuSans-61" x="1522.021484"/>
      <use xlink:href="#DejaVuSans-69" x="1583.300781"/>
      <use xlink:href="#DejaVuSans-6e" x="1611.083984"/>
      <use xlink:href="#DejaVuSans-69" x="1674.462891"/>
      <use xlink:href="#DejaVuSans-6e" x="1702.246094"/>
      <use xlink:href="#DejaVuSans-67" x="1765.625"/>
      <use xlink:href="#DejaVuSans-20" x="1829.101562"/>
      <use xlink:href="#DejaVuSans-64" x="1860.888672"/>
      <use xlink:href="#DejaVuSans-61" x="1924.365234"/>
      <use xlink:href="#DejaVuSans-74" x="1985.644531"/>
      <use xlink:href="#DejaVuSans-61" x="2024.853516"/>
      <use xlink:href="#DejaVuSans-73" x="2086.132812"/>
      <use xlink:href="#DejaVuSans-65" x="2138.232422"/>
      <use xlink:href="#DejaVuSans-74" x="2199.755859"/>
     </g>
    </g>
    <g id="line2d_25">
     <path d="M 423.72 91.208725 
L 433.72 91.208725 
L 443.72 91.208725 
" style="fill: none; stroke: #ff7f0e; stroke-width: 1.5; stroke-linecap: square"/>
    </g>
    <g id="text_21">
     <!-- centralized linearSVR with 2 training datasets -->
     <g transform="translate(451.72 94.708725) scale(0.1 -0.1)">
      <use xlink:href="#DejaVuSans-63"/>
      <use xlink:href="#DejaVuSans-65" x="54.980469"/>
      <use xlink:href="#DejaVuSans-6e" x="116.503906"/>
      <use xlink:href="#DejaVuSans-74" x="179.882812"/>
      <use xlink:href="#DejaVuSans-72" x="219.091797"/>
      <use xlink:href="#DejaVuSans-61" x="260.205078"/>
      <use xlink:href="#DejaVuSans-6c" x="321.484375"/>
      <use xlink:href="#DejaVuSans-69" x="349.267578"/>
      <use xlink:href="#DejaVuSans-7a" x="377.050781"/>
      <use xlink:href="#DejaVuSans-65" x="429.541016"/>
      <use xlink:href="#DejaVuSans-64" x="491.064453"/>
      <use xlink:href="#DejaVuSans-20" x="554.541016"/>
      <use xlink:href="#DejaVuSans-6c" x="586.328125"/>
      <use xlink:href="#DejaVuSans-69" x="614.111328"/>
      <use xlink:href="#DejaVuSans-6e" x="641.894531"/>
      <use xlink:href="#DejaVuSans-65" x="705.273438"/>
      <use xlink:href="#DejaVuSans-61" x="766.796875"/>
      <use xlink:href="#DejaVuSans-72" x="828.076172"/>
      <use xlink:href="#DejaVuSans-53" x="869.189453"/>
      <use xlink:href="#DejaVuSans-56" x="932.666016"/>
      <use xlink:href="#DejaVuSans-52" x="1001.074219"/>
      <use xlink:href="#DejaVuSans-20" x="1070.556641"/>
      <use xlink:href="#DejaVuSans-77" x="1102.34375"/>
      <use xlink:href="#DejaVuSans-69" x="1184.130859"/>
      <use xlink:href="#DejaVuSans-74" x="1211.914062"/>
      <use xlink:href="#DejaVuSans-68" x="1251.123047"/>
      <use xlink:href="#DejaVuSans-20" x="1314.501953"/>
      <use xlink:href="#DejaVuSans-32" x="1346.289062"/>
      <use xlink:href="#DejaVuSans-20" x="1409.912109"/>
      <use xlink:href="#DejaVuSans-74" x="1441.699219"/>
      <use xlink:href="#DejaVuSans-72" x="1480.908203"/>
      <use xlink:href="#DejaVuSans-61" x="1522.021484"/>
      <use xlink:href="#DejaVuSans-69" x="1583.300781"/>
      <use xlink:href="#DejaVuSans-6e" x="1611.083984"/>
      <use xlink:href="#DejaVuSans-69" x="1674.462891"/>
      <use xlink:href="#DejaVuSans-6e" x="1702.246094"/>
      <use xlink:href="#DejaVuSans-67" x="1765.625"/>
      <use xlink:href="#DejaVuSans-20" x="1829.101562"/>
      <use xlink:href="#DejaVuSans-64" x="1860.888672"/>
      <use xlink:href="#DejaVuSans-61" x="1924.365234"/>
      <use xlink:href="#DejaVuSans-74" x="1985.644531"/>
      <use xlink:href="#DejaVuSans-61" x="2024.853516"/>
      <use xlink:href="#DejaVuSans-73" x="2086.132812"/>
      <use xlink:href="#DejaVuSans-65" x="2138.232422"/>
      <use xlink:href="#DejaVuSans-74" x="2199.755859"/>
      <use xlink:href="#DejaVuSans-73" x="2238.964844"/>
     </g>
    </g>
    <g id="line2d_26">
     <path d="M 423.72 105.88685 
L 433.72 105.88685 
L 443.72 105.88685 
" style="fill: none; stroke: #2ca02c; stroke-width: 1.5; stroke-linecap: square"/>
    </g>
    <g id="text_22">
     <!-- centralized linearSVR with 3 training datasets -->
     <g transform="translate(451.72 109.38685) scale(0.1 -0.1)">
      <defs>
       <path id="DejaVuSans-33" d="M 2597 2516 
Q 3050 2419 3304 2112 
Q 3559 1806 3559 1356 
Q 3559 666 3084 287 
Q 2609 -91 1734 -91 
Q 1441 -91 1130 -33 
Q 819 25 488 141 
L 488 750 
Q 750 597 1062 519 
Q 1375 441 1716 441 
Q 2309 441 2620 675 
Q 2931 909 2931 1356 
Q 2931 1769 2642 2001 
Q 2353 2234 1838 2234 
L 1294 2234 
L 1294 2753 
L 1863 2753 
Q 2328 2753 2575 2939 
Q 2822 3125 2822 3475 
Q 2822 3834 2567 4026 
Q 2313 4219 1838 4219 
Q 1578 4219 1281 4162 
Q 984 4106 628 3988 
L 628 4550 
Q 988 4650 1302 4700 
Q 1616 4750 1894 4750 
Q 2613 4750 3031 4423 
Q 3450 4097 3450 3541 
Q 3450 3153 3228 2886 
Q 3006 2619 2597 2516 
z
" transform="scale(0.015625)"/>
      </defs>
      <use xlink:href="#DejaVuSans-63"/>
      <use xlink:href="#DejaVuSans-65" x="54.980469"/>
      <use xlink:href="#DejaVuSans-6e" x="116.503906"/>
      <use xlink:href="#DejaVuSans-74" x="179.882812"/>
      <use xlink:href="#DejaVuSans-72" x="219.091797"/>
      <use xlink:href="#DejaVuSans-61" x="260.205078"/>
      <use xlink:href="#DejaVuSans-6c" x="321.484375"/>
      <use xlink:href="#DejaVuSans-69" x="349.267578"/>
      <use xlink:href="#DejaVuSans-7a" x="377.050781"/>
      <use xlink:href="#DejaVuSans-65" x="429.541016"/>
      <use xlink:href="#DejaVuSans-64" x="491.064453"/>
      <use xlink:href="#DejaVuSans-20" x="554.541016"/>
      <use xlink:href="#DejaVuSans-6c" x="586.328125"/>
      <use xlink:href="#DejaVuSans-69" x="614.111328"/>
      <use xlink:href="#DejaVuSans-6e" x="641.894531"/>
      <use xlink:href="#DejaVuSans-65" x="705.273438"/>
      <use xlink:href="#DejaVuSans-61" x="766.796875"/>
      <use xlink:href="#DejaVuSans-72" x="828.076172"/>
      <use xlink:href="#DejaVuSans-53" x="869.189453"/>
      <use xlink:href="#DejaVuSans-56" x="932.666016"/>
      <use xlink:href="#DejaVuSans-52" x="1001.074219"/>
      <use xlink:href="#DejaVuSans-20" x="1070.556641"/>
      <use xlink:href="#DejaVuSans-77" x="1102.34375"/>
      <use xlink:href="#DejaVuSans-69" x="1184.130859"/>
      <use xlink:href="#DejaVuSans-74" x="1211.914062"/>
      <use xlink:href="#DejaVuSans-68" x="1251.123047"/>
      <use xlink:href="#DejaVuSans-20" x="1314.501953"/>
      <use xlink:href="#DejaVuSans-33" x="1346.289062"/>
      <use xlink:href="#DejaVuSans-20" x="1409.912109"/>
      <use xlink:href="#DejaVuSans-74" x="1441.699219"/>
      <use xlink:href="#DejaVuSans-72" x="1480.908203"/>
      <use xlink:href="#DejaVuSans-61" x="1522.021484"/>
      <use xlink:href="#DejaVuSans-69" x="1583.300781"/>
      <use xlink:href="#DejaVuSans-6e" x="1611.083984"/>
      <use xlink:href="#DejaVuSans-69" x="1674.462891"/>
      <use xlink:href="#DejaVuSans-6e" x="1702.246094"/>
      <use xlink:href="#DejaVuSans-67" x="1765.625"/>
      <use xlink:href="#DejaVuSans-20" x="1829.101562"/>
      <use xlink:href="#DejaVuSans-64" x="1860.888672"/>
      <use xlink:href="#DejaVuSans-61" x="1924.365234"/>
      <use xlink:href="#DejaVuSans-74" x="1985.644531"/>
      <use xlink:href="#DejaVuSans-61" x="2024.853516"/>
      <use xlink:href="#DejaVuSans-73" x="2086.132812"/>
      <use xlink:href="#DejaVuSans-65" x="2138.232422"/>
      <use xlink:href="#DejaVuSans-74" x="2199.755859"/>
      <use xlink:href="#DejaVuSans-73" x="2238.964844"/>
     </g>
    </g>
    <g id="line2d_27">
     <path d="M 423.72 120.564975 
L 433.72 120.564975 
L 443.72 120.564975 
" style="fill: none; stroke: #d62728; stroke-width: 1.5; stroke-linecap: square"/>
    </g>
    <g id="text_23">
     <!-- centralized linearSVR with 4 training datasets -->
     <g transform="translate(451.72 124.064975) scale(0.1 -0.1)">
      <use xlink:href="#DejaVuSans-63"/>
      <use xlink:href="#DejaVuSans-65" x="54.980469"/>
      <use xlink:href="#DejaVuSans-6e" x="116.503906"/>
      <use xlink:href="#DejaVuSans-74" x="179.882812"/>
      <use xlink:href="#DejaVuSans-72" x="219.091797"/>
      <use xlink:href="#DejaVuSans-61" x="260.205078"/>
      <use xlink:href="#DejaVuSans-6c" x="321.484375"/>
      <use xlink:href="#DejaVuSans-69" x="349.267578"/>
      <use xlink:href="#DejaVuSans-7a" x="377.050781"/>
      <use xlink:href="#DejaVuSans-65" x="429.541016"/>
      <use xlink:href="#DejaVuSans-64" x="491.064453"/>
      <use xlink:href="#DejaVuSans-20" x="554.541016"/>
      <use xlink:href="#DejaVuSans-6c" x="586.328125"/>
      <use xlink:href="#DejaVuSans-69" x="614.111328"/>
      <use xlink:href="#DejaVuSans-6e" x="641.894531"/>
      <use xlink:href="#DejaVuSans-65" x="705.273438"/>
      <use xlink:href="#DejaVuSans-61" x="766.796875"/>
      <use xlink:href="#DejaVuSans-72" x="828.076172"/>
      <use xlink:href="#DejaVuSans-53" x="869.189453"/>
      <use xlink:href="#DejaVuSans-56" x="932.666016"/>
      <use xlink:href="#DejaVuSans-52" x="1001.074219"/>
      <use xlink:href="#DejaVuSans-20" x="1070.556641"/>
      <use xlink:href="#DejaVuSans-77" x="1102.34375"/>
      <use xlink:href="#DejaVuSans-69" x="1184.130859"/>
      <use xlink:href="#DejaVuSans-74" x="1211.914062"/>
      <use xlink:href="#DejaVuSans-68" x="1251.123047"/>
      <use xlink:href="#DejaVuSans-20" x="1314.501953"/>
      <use xlink:href="#DejaVuSans-34" x="1346.289062"/>
      <use xlink:href="#DejaVuSans-20" x="1409.912109"/>
      <use xlink:href="#DejaVuSans-74" x="1441.699219"/>
      <use xlink:href="#DejaVuSans-72" x="1480.908203"/>
      <use xlink:href="#DejaVuSans-61" x="1522.021484"/>
      <use xlink:href="#DejaVuSans-69" x="1583.300781"/>
      <use xlink:href="#DejaVuSans-6e" x="1611.083984"/>
      <use xlink:href="#DejaVuSans-69" x="1674.462891"/>
      <use xlink:href="#DejaVuSans-6e" x="1702.246094"/>
      <use xlink:href="#DejaVuSans-67" x="1765.625"/>
      <use xlink:href="#DejaVuSans-20" x="1829.101562"/>
      <use xlink:href="#DejaVuSans-64" x="1860.888672"/>
      <use xlink:href="#DejaVuSans-61" x="1924.365234"/>
      <use xlink:href="#DejaVuSans-74" x="1985.644531"/>
      <use xlink:href="#DejaVuSans-61" x="2024.853516"/>
      <use xlink:href="#DejaVuSans-73" x="2086.132812"/>
      <use xlink:href="#DejaVuSans-65" x="2138.232422"/>
      <use xlink:href="#DejaVuSans-74" x="2199.755859"/>
      <use xlink:href="#DejaVuSans-73" x="2238.964844"/>
     </g>
    </g>
    <g id="line2d_28">
     <path d="M 423.72 135.2431 
L 433.72 135.2431 
L 443.72 135.2431 
" style="fill: none; stroke: #9467bd; stroke-width: 1.5; stroke-linecap: square"/>
    </g>
    <g id="text_24">
     <!-- centralized linearSVR with 5 training datasets -->
     <g transform="translate(451.72 138.7431) scale(0.1 -0.1)">
      <use xlink:href="#DejaVuSans-63"/>
      <use xlink:href="#DejaVuSans-65" x="54.980469"/>
      <use xlink:href="#DejaVuSans-6e" x="116.503906"/>
      <use xlink:href="#DejaVuSans-74" x="179.882812"/>
      <use xlink:href="#DejaVuSans-72" x="219.091797"/>
      <use xlink:href="#DejaVuSans-61" x="260.205078"/>
      <use xlink:href="#DejaVuSans-6c" x="321.484375"/>
      <use xlink:href="#DejaVuSans-69" x="349.267578"/>
      <use xlink:href="#DejaVuSans-7a" x="377.050781"/>
      <use xlink:href="#DejaVuSans-65" x="429.541016"/>
      <use xlink:href="#DejaVuSans-64" x="491.064453"/>
      <use xlink:href="#DejaVuSans-20" x="554.541016"/>
      <use xlink:href="#DejaVuSans-6c" x="586.328125"/>
      <use xlink:href="#DejaVuSans-69" x="614.111328"/>
      <use xlink:href="#DejaVuSans-6e" x="641.894531"/>
      <use xlink:href="#DejaVuSans-65" x="705.273438"/>
      <use xlink:href="#DejaVuSans-61" x="766.796875"/>
      <use xlink:href="#DejaVuSans-72" x="828.076172"/>
      <use xlink:href="#DejaVuSans-53" x="869.189453"/>
      <use xlink:href="#DejaVuSans-56" x="932.666016"/>
      <use xlink:href="#DejaVuSans-52" x="1001.074219"/>
      <use xlink:href="#DejaVuSans-20" x="1070.556641"/>
      <use xlink:href="#DejaVuSans-77" x="1102.34375"/>
      <use xlink:href="#DejaVuSans-69" x="1184.130859"/>
      <use xlink:href="#DejaVuSans-74" x="1211.914062"/>
      <use xlink:href="#DejaVuSans-68" x="1251.123047"/>
      <use xlink:href="#DejaVuSans-20" x="1314.501953"/>
      <use xlink:href="#DejaVuSans-35" x="1346.289062"/>
      <use xlink:href="#DejaVuSans-20" x="1409.912109"/>
      <use xlink:href="#DejaVuSans-74" x="1441.699219"/>
      <use xlink:href="#DejaVuSans-72" x="1480.908203"/>
      <use xlink:href="#DejaVuSans-61" x="1522.021484"/>
      <use xlink:href="#DejaVuSans-69" x="1583.300781"/>
      <use xlink:href="#DejaVuSans-6e" x="1611.083984"/>
      <use xlink:href="#DejaVuSans-69" x="1674.462891"/>
      <use xlink:href="#DejaVuSans-6e" x="1702.246094"/>
      <use xlink:href="#DejaVuSans-67" x="1765.625"/>
      <use xlink:href="#DejaVuSans-20" x="1829.101562"/>
      <use xlink:href="#DejaVuSans-64" x="1860.888672"/>
      <use xlink:href="#DejaVuSans-61" x="1924.365234"/>
      <use xlink:href="#DejaVuSans-74" x="1985.644531"/>
      <use xlink:href="#DejaVuSans-61" x="2024.853516"/>
      <use xlink:href="#DejaVuSans-73" x="2086.132812"/>
      <use xlink:href="#DejaVuSans-65" x="2138.232422"/>
      <use xlink:href="#DejaVuSans-74" x="2199.755859"/>
      <use xlink:href="#DejaVuSans-73" x="2238.964844"/>
     </g>
    </g>
    <g id="line2d_29">
     <path d="M 423.72 149.921225 
L 433.72 149.921225 
L 443.72 149.921225 
" style="fill: none; stroke: #8c564b; stroke-width: 1.5; stroke-linecap: square"/>
    </g>
    <g id="text_25">
     <!-- centralized linearSVR with 10 training datasets -->
     <g transform="translate(451.72 153.421225) scale(0.1 -0.1)">
      <use xlink:href="#DejaVuSans-63"/>
      <use xlink:href="#DejaVuSans-65" x="54.980469"/>
      <use xlink:href="#DejaVuSans-6e" x="116.503906"/>
      <use xlink:href="#DejaVuSans-74" x="179.882812"/>
      <use xlink:href="#DejaVuSans-72" x="219.091797"/>
      <use xlink:href="#DejaVuSans-61" x="260.205078"/>
      <use xlink:href="#DejaVuSans-6c" x="321.484375"/>
      <use xlink:href="#DejaVuSans-69" x="349.267578"/>
      <use xlink:href="#DejaVuSans-7a" x="377.050781"/>
      <use xlink:href="#DejaVuSans-65" x="429.541016"/>
      <use xlink:href="#DejaVuSans-64" x="491.064453"/>
      <use xlink:href="#DejaVuSans-20" x="554.541016"/>
      <use xlink:href="#DejaVuSans-6c" x="586.328125"/>
      <use xlink:href="#DejaVuSans-69" x="614.111328"/>
      <use xlink:href="#DejaVuSans-6e" x="641.894531"/>
      <use xlink:href="#DejaVuSans-65" x="705.273438"/>
      <use xlink:href="#DejaVuSans-61" x="766.796875"/>
      <use xlink:href="#DejaVuSans-72" x="828.076172"/>
      <use xlink:href="#DejaVuSans-53" x="869.189453"/>
      <use xlink:href="#DejaVuSans-56" x="932.666016"/>
      <use xlink:href="#DejaVuSans-52" x="1001.074219"/>
      <use xlink:href="#DejaVuSans-20" x="1070.556641"/>
      <use xlink:href="#DejaVuSans-77" x="1102.34375"/>
      <use xlink:href="#DejaVuSans-69" x="1184.130859"/>
      <use xlink:href="#DejaVuSans-74" x="1211.914062"/>
      <use xlink:href="#DejaVuSans-68" x="1251.123047"/>
      <use xlink:href="#DejaVuSans-20" x="1314.501953"/>
      <use xlink:href="#DejaVuSans-31" x="1346.289062"/>
      <use xlink:href="#DejaVuSans-30" x="1409.912109"/>
      <use xlink:href="#DejaVuSans-20" x="1473.535156"/>
      <use xlink:href="#DejaVuSans-74" x="1505.322266"/>
      <use xlink:href="#DejaVuSans-72" x="1544.53125"/>
      <use xlink:href="#DejaVuSans-61" x="1585.644531"/>
      <use xlink:href="#DejaVuSans-69" x="1646.923828"/>
      <use xlink:href="#DejaVuSans-6e" x="1674.707031"/>
      <use xlink:href="#DejaVuSans-69" x="1738.085938"/>
      <use xlink:href="#DejaVuSans-6e" x="1765.869141"/>
      <use xlink:href="#DejaVuSans-67" x="1829.248047"/>
      <use xlink:href="#DejaVuSans-20" x="1892.724609"/>
      <use xlink:href="#DejaVuSans-64" x="1924.511719"/>
      <use xlink:href="#DejaVuSans-61" x="1987.988281"/>
      <use xlink:href="#DejaVuSans-74" x="2049.267578"/>
      <use xlink:href="#DejaVuSans-61" x="2088.476562"/>
      <use xlink:href="#DejaVuSans-73" x="2149.755859"/>
      <use xlink:href="#DejaVuSans-65" x="2201.855469"/>
      <use xlink:href="#DejaVuSans-74" x="2263.378906"/>
      <use xlink:href="#DejaVuSans-73" x="2302.587891"/>
     </g>
    </g>
    <g id="patch_8">
     <path d="M 423.72 168.09935 
L 443.72 168.09935 
L 443.72 161.09935 
L 423.72 161.09935 
z
" style="fill: #1f77b4; fill-opacity: 0.25; stroke: #1f77b4; stroke-linejoin: miter"/>
    </g>
    <g id="text_26">
     <!-- FL linearSVR with 3 clients -->
     <g transform="translate(451.72 168.09935) scale(0.1 -0.1)">
      <defs>
       <path id="DejaVuSans-46" d="M 628 4666 
L 3309 4666 
L 3309 4134 
L 1259 4134 
L 1259 2759 
L 3109 2759 
L 3109 2228 
L 1259 2228 
L 1259 0 
L 628 0 
L 628 4666 
z
" transform="scale(0.015625)"/>
      </defs>
      <use xlink:href="#DejaVuSans-46"/>
      <use xlink:href="#DejaVuSans-4c" x="57.519531"/>
      <use xlink:href="#DejaVuSans-20" x="113.232422"/>
      <use xlink:href="#DejaVuSans-6c" x="145.019531"/>
      <use xlink:href="#DejaVuSans-69" x="172.802734"/>
      <use xlink:href="#DejaVuSans-6e" x="200.585938"/>
      <use xlink:href="#DejaVuSans-65" x="263.964844"/>
      <use xlink:href="#DejaVuSans-61" x="325.488281"/>
      <use xlink:href="#DejaVuSans-72" x="386.767578"/>
      <use xlink:href="#DejaVuSans-53" x="427.880859"/>
      <use xlink:href="#DejaVuSans-56" x="491.357422"/>
      <use xlink:href="#DejaVuSans-52" x="559.765625"/>
      <use xlink:href="#DejaVuSans-20" x="629.248047"/>
      <use xlink:href="#DejaVuSans-77" x="661.035156"/>
      <use xlink:href="#DejaVuSans-69" x="742.822266"/>
      <use xlink:href="#DejaVuSans-74" x="770.605469"/>
      <use xlink:href="#DejaVuSans-68" x="809.814453"/>
      <use xlink:href="#DejaVuSans-20" x="873.193359"/>
      <use xlink:href="#DejaVuSans-33" x="904.980469"/>
      <use xlink:href="#DejaVuSans-20" x="968.603516"/>
      <use xlink:href="#DejaVuSans-63" x="1000.390625"/>
      <use xlink:href="#DejaVuSans-6c" x="1055.371094"/>
      <use xlink:href="#DejaVuSans-69" x="1083.154297"/>
      <use xlink:href="#DejaVuSans-65" x="1110.9375"/>
      <use xlink:href="#DejaVuSans-6e" x="1172.460938"/>
      <use xlink:href="#DejaVuSans-74" x="1235.839844"/>
      <use xlink:href="#DejaVuSans-73" x="1275.048828"/>
     </g>
    </g>
   </g>
  </g>
 </g>
 <defs>
  <clipPath id="pcb3b8fba68">
   <rect x="57.6" y="41.472" width="357.12" height="266.112"/>
  </clipPath>
 </defs>
</svg>
