<?xml version="1.0" encoding="utf-8" standalone="no"?>
<!DOCTYPE svg PUBLIC "-//W3C//DTD SVG 1.1//EN"
  "http://www.w3.org/Graphics/SVG/1.1/DTD/svg11.dtd">
<svg xmlns:xlink="http://www.w3.org/1999/xlink" width="460.8pt" height="345.6pt" viewBox="0 0 460.8 345.6" xmlns="http://www.w3.org/2000/svg" version="1.1">
 <metadata>
  <rdf:RDF xmlns:dc="http://purl.org/dc/elements/1.1/" xmlns:cc="http://creativecommons.org/ns#" xmlns:rdf="http://www.w3.org/1999/02/22-rdf-syntax-ns#">
   <cc:Work>
    <dc:type rdf:resource="http://purl.org/dc/dcmitype/StillImage"/>
    <dc:date>2023-02-21T17:29:39.602554</dc:date>
    <dc:format>image/svg+xml</dc:format>
    <dc:creator>
     <cc:Agent>
      <dc:title>Matplotlib v3.6.2, https://matplotlib.org/</dc:title>
     </cc:Agent>
    </dc:creator>
   </cc:Work>
  </rdf:RDF>
 </metadata>
 <defs>
  <style type="text/css">*{stroke-linejoin: round; stroke-linecap: butt}</style>
 </defs>
 <g id="figure_1">
  <g id="patch_1">
   <path d="M 0 345.6 
L 460.8 345.6 
L 460.8 0 
L 0 0 
z
" style="fill: #ffffff"/>
  </g>
  <g id="axes_1">
   <g id="patch_2">
    <path d="M 57.6 307.584 
L 414.72 307.584 
L 414.72 41.472 
L 57.6 41.472 
z
" style="fill: #ffffff"/>
   </g>
   <g id="PolyCollection_1">
    <defs>
     <path id="m4a276ddd15" d="M 90.778532 -38.099925 
L 90.778532 -38.016 
L 91.712653 -38.016 
L 92.646774 -38.016 
L 93.580894 -38.016 
L 94.515015 -38.016 
L 95.449136 -38.016 
L 96.383257 -38.016 
L 97.317378 -38.016 
L 98.251499 -38.016 
L 99.18562 -38.016 
L 100.11974 -38.016 
L 101.053861 -38.016 
L 101.987982 -38.016 
L 102.922103 -38.016 
L 103.856224 -38.016 
L 104.790345 -38.016 
L 105.724465 -38.016 
L 106.658586 -38.016 
L 107.592707 -38.016 
L 108.526828 -38.016 
L 109.460949 -38.016 
L 110.39507 -38.016 
L 111.329191 -38.016 
L 112.263311 -38.016 
L 113.197432 -38.016 
L 114.131553 -38.016 
L 115.065674 -38.016 
L 115.999795 -38.016 
L 116.933916 -38.016 
L 117.868036 -38.016 
L 118.802157 -38.016 
L 119.736278 -38.016 
L 120.670399 -38.016 
L 121.60452 -38.016 
L 122.538641 -38.016 
L 123.472761 -38.016 
L 124.406882 -38.016 
L 125.341003 -38.016 
L 126.275124 -38.016 
L 127.209245 -38.016 
L 128.143366 -38.016 
L 129.077487 -38.016 
L 130.011607 -38.016 
L 130.945728 -38.016 
L 131.879849 -38.016 
L 132.81397 -38.016 
L 133.748091 -38.016 
L 134.682212 -38.016 
L 135.616332 -38.016 
L 136.550453 -38.016 
L 137.484574 -38.016 
L 138.418695 -38.016 
L 139.352816 -38.016 
L 140.286937 -38.016 
L 141.221057 -38.016 
L 142.155178 -38.016 
L 143.089299 -38.016 
L 144.02342 -38.016 
L 144.957541 -38.016 
L 145.891662 -38.016 
L 146.825783 -38.016 
L 147.759903 -38.016 
L 148.694024 -38.016 
L 149.628145 -38.016 
L 150.562266 -38.016 
L 151.496387 -38.016 
L 152.430508 -38.016 
L 153.364628 -38.016 
L 154.298749 -38.016 
L 155.23287 -38.016 
L 156.166991 -38.016 
L 157.101112 -38.016 
L 158.035233 -38.016 
L 158.969353 -38.016 
L 159.903474 -38.016 
L 160.837595 -38.016 
L 161.771716 -38.016 
L 162.705837 -38.016 
L 163.639958 -38.016 
L 164.574079 -38.016 
L 165.508199 -38.016 
L 166.44232 -38.016 
L 167.376441 -38.016 
L 168.310562 -38.016 
L 169.244683 -38.016 
L 170.178804 -38.016 
L 171.112924 -38.016 
L 172.047045 -38.016 
L 172.981166 -38.016 
L 173.915287 -38.016 
L 174.849408 -38.016 
L 175.783529 -38.016 
L 176.71765 -38.016 
L 177.65177 -38.016 
L 178.585891 -38.016 
L 179.520012 -38.016 
L 180.454133 -38.016 
L 181.388254 -38.016 
L 182.322375 -38.016 
L 183.256495 -38.016 
L 184.190616 -38.016 
L 185.124737 -38.016 
L 186.058858 -38.016 
L 186.992979 -38.016 
L 187.9271 -38.016 
L 188.86122 -38.016 
L 189.795341 -38.016 
L 190.729462 -38.016 
L 191.663583 -38.016 
L 192.597704 -38.016 
L 193.531825 -38.016 
L 194.465946 -38.016 
L 195.400066 -38.016 
L 196.334187 -38.016 
L 197.268308 -38.016 
L 198.202429 -38.016 
L 199.13655 -38.016 
L 200.070671 -38.016 
L 201.004791 -38.016 
L 201.938912 -38.016 
L 202.873033 -38.016 
L 203.807154 -38.016 
L 204.741275 -38.016 
L 205.675396 -38.016 
L 206.609516 -38.016 
L 207.543637 -38.016 
L 208.477758 -38.016 
L 209.411879 -38.016 
L 210.346 -38.016 
L 211.280121 -38.016 
L 212.214242 -38.016 
L 213.148362 -38.016 
L 214.082483 -38.016 
L 215.016604 -38.016 
L 215.950725 -38.016 
L 216.884846 -38.016 
L 217.818967 -38.016 
L 218.753087 -38.016 
L 219.687208 -38.016 
L 220.621329 -38.016 
L 221.55545 -38.016 
L 222.489571 -38.016 
L 223.423692 -38.016 
L 224.357813 -38.016 
L 225.291933 -38.016 
L 226.226054 -38.016 
L 227.160175 -38.016 
L 228.094296 -38.016 
L 229.028417 -38.016 
L 229.962538 -38.016 
L 230.896658 -38.016 
L 231.830779 -38.016 
L 232.7649 -38.016 
L 233.699021 -38.016 
L 234.633142 -38.016 
L 235.567263 -38.016 
L 236.501383 -38.016 
L 237.435504 -38.016 
L 238.369625 -38.016 
L 239.303746 -38.016 
L 240.237867 -38.016 
L 241.171988 -38.016 
L 242.106109 -38.016 
L 243.040229 -38.016 
L 243.97435 -38.016 
L 244.908471 -38.016 
L 245.842592 -38.016 
L 246.776713 -38.016 
L 247.710834 -38.016 
L 248.644954 -38.016 
L 249.579075 -38.016 
L 250.513196 -38.016 
L 251.447317 -38.016 
L 252.381438 -38.016 
L 253.315559 -38.016 
L 254.249679 -38.016 
L 255.1838 -38.016 
L 256.117921 -38.016 
L 257.052042 -38.016 
L 257.986163 -38.016 
L 258.920284 -38.016 
L 259.854405 -38.016 
L 260.788525 -38.016 
L 261.722646 -38.016 
L 262.656767 -38.016 
L 263.590888 -38.016 
L 264.525009 -38.016 
L 265.45913 -38.016 
L 266.39325 -38.016 
L 267.327371 -38.016 
L 268.261492 -38.016 
L 269.195613 -38.016 
L 270.129734 -38.016 
L 271.063855 -38.016 
L 271.997976 -38.016 
L 272.932096 -38.016 
L 273.866217 -38.016 
L 274.800338 -38.016 
L 275.734459 -38.016 
L 276.66858 -38.016 
L 276.66858 -38.054987 
L 276.66858 -38.054987 
L 275.734459 -38.07632 
L 274.800338 -38.107271 
L 273.866217 -38.151065 
L 272.932096 -38.211472 
L 271.997976 -38.292669 
L 271.063855 -38.398976 
L 270.129734 -38.53446 
L 269.195613 -38.702426 
L 268.261492 -38.904804 
L 267.327371 -39.141518 
L 266.39325 -39.409904 
L 265.45913 -39.704291 
L 264.525009 -40.015842 
L 263.590888 -40.332745 
L 262.656767 -40.640792 
L 261.722646 -40.924342 
L 260.788525 -41.167593 
L 259.854405 -41.356018 
L 258.920284 -41.477797 
L 257.986163 -41.525041 
L 257.052042 -41.494638 
L 256.117921 -41.388595 
L 255.1838 -41.213813 
L 254.249679 -40.981351 
L 253.315559 -40.705262 
L 252.381438 -40.401196 
L 251.447317 -40.084946 
L 250.513196 -39.771126 
L 249.579075 -39.472135 
L 248.644954 -39.197487 
L 247.710834 -38.953541 
L 246.776713 -38.743588 
L 245.842592 -38.568223 
L 244.908471 -38.4259 
L 243.97435 -38.313561 
L 243.040229 -38.227255 
L 242.106109 -38.162681 
L 241.171988 -38.115603 
L 240.237867 -38.082146 
L 239.303746 -38.058961 
L 238.369625 -38.043288 
L 237.435504 -38.032952 
L 236.501383 -38.026299 
L 235.567263 -38.022119 
L 234.633142 -38.019556 
L 233.699021 -38.018021 
L 232.7649 -38.017125 
L 231.830779 -38.016614 
L 230.896658 -38.016333 
L 229.962538 -38.016187 
L 229.028417 -38.016123 
L 228.094296 -38.016118 
L 227.160175 -38.016169 
L 226.226054 -38.016296 
L 225.291933 -38.016545 
L 224.357813 -38.017001 
L 223.423692 -38.017806 
L 222.489571 -38.01919 
L 221.55545 -38.021514 
L 220.621329 -38.02532 
L 219.687208 -38.031408 
L 218.753087 -38.040912 
L 217.818967 -38.055391 
L 216.884846 -38.076916 
L 215.950725 -38.108132 
L 215.016604 -38.152278 
L 214.082483 -38.213147 
L 213.148362 -38.294936 
L 212.214242 -38.401991 
L 211.280121 -38.538416 
L 210.346 -38.707572 
L 209.411879 -38.911485 
L 208.477758 -39.150241 
L 207.543637 -39.42145 
L 206.609516 -39.719886 
L 205.675396 -40.037405 
L 204.741275 -40.363226 
L 203.807154 -40.684624 
L 202.873033 -40.987995 
L 201.938912 -41.260226 
L 201.004791 -41.490202 
L 200.070671 -41.670257 
L 199.13655 -41.797352 
L 198.202429 -41.873789 
L 197.268308 -41.907342 
L 196.334187 -41.910758 
L 195.400066 -41.900706 
L 194.465946 -41.896345 
L 193.531825 -41.91774 
L 192.597704 -41.984401 
L 191.663583 -42.114185 
L 190.729462 -42.322729 
L 189.795341 -42.623476 
L 188.86122 -43.028211 
L 187.9271 -43.547957 
L 186.992979 -44.193942 
L 186.058858 -44.978377 
L 185.124737 -45.914812 
L 184.190616 -47.017944 
L 183.256495 -48.302885 
L 182.322375 -49.784083 
L 181.388254 -51.474166 
L 180.454133 -53.383093 
L 179.520012 -55.517935 
L 178.585891 -57.883524 
L 177.65177 -60.484028 
L 176.71765 -63.325293 
L 175.783529 -66.417586 
L 174.849408 -69.778267 
L 173.915287 -73.433808 
L 172.981166 -77.42072 
L 172.047045 -81.785039 
L 171.112924 -86.580313 
L 170.178804 -91.864262 
L 169.244683 -97.694487 
L 168.310562 -104.123777 
L 167.376441 -111.195521 
L 166.44232 -118.939701 
L 165.508199 -127.369722 
L 164.574079 -136.480129 
L 163.639958 -146.245087 
L 162.705837 -156.617355 
L 161.771716 -167.5275 
L 160.837595 -178.883171 
L 159.903474 -190.568462 
L 158.969353 -202.44359 
L 158.035233 -214.345327 
L 157.101112 -226.088713 
L 156.166991 -237.470583 
L 155.23287 -248.275267 
L 154.298749 -258.282574 
L 153.364628 -267.277766 
L 152.430508 -275.062904 
L 151.496387 -281.468586 
L 150.562266 -286.364897 
L 149.628145 -289.670341 
L 148.694024 -291.357691 
L 147.759903 -291.456 
L 146.825783 -290.048499 
L 145.891662 -287.266653 
L 144.957541 -283.281123 
L 144.02342 -278.290788 
L 143.089299 -272.511132 
L 142.155178 -266.163237 
L 141.221057 -259.464318 
L 140.286937 -252.620302 
L 139.352816 -245.820439 
L 138.418695 -239.233507 
L 137.484574 -233.004943 
L 136.550453 -227.254202 
L 135.616332 -222.071896 
L 134.682212 -217.516592 
L 133.748091 -213.611639 
L 132.81397 -210.342681 
L 131.879849 -207.656722 
L 130.945728 -205.46351 
L 130.011607 -203.63974 
L 129.077487 -202.036102 
L 128.143366 -200.486722 
L 127.209245 -198.820126 
L 126.275124 -196.870578 
L 125.341003 -194.488645 
L 124.406882 -191.549964 
L 123.472761 -187.961547 
L 122.538641 -183.66532 
L 121.60452 -178.638997 
L 120.670399 -172.894634 
L 119.736278 -166.475423 
L 118.802157 -159.451285 
L 117.868036 -151.9138 
L 116.933916 -143.970888 
L 115.999795 -135.741534 
L 115.065674 -127.350745 
L 114.131553 -118.924858 
L 113.197432 -110.587245 
L 112.263311 -102.454472 
L 111.329191 -94.632931 
L 110.39507 -87.215991 
L 109.460949 -80.281705 
L 108.526828 -73.891114 
L 107.592707 -68.087227 
L 106.658586 -62.89469 
L 105.724465 -58.320211 
L 104.790345 -54.353719 
L 103.856224 -50.970219 
L 102.922103 -48.132247 
L 101.987982 -45.792746 
L 101.053861 -43.898185 
L 100.11974 -42.391675 
L 99.18562 -41.215872 
L 98.251499 -40.315481 
L 97.317378 -39.639224 
L 96.383257 -39.141206 
L 95.449136 -38.781699 
L 94.515015 -38.52737 
L 93.580894 -38.351083 
L 92.646774 -38.231382 
L 91.712653 -38.151774 
L 90.778532 -38.099925 
z
" style="stroke: #ff7f0e"/>
    </defs>
    <g clip-path="url(#p03f69b145b)">
     <use xlink:href="#m4a276ddd15" x="0" y="345.6" style="fill: #ff7f0e; fill-opacity: 0.25; stroke: #ff7f0e"/>
    </g>
   </g>
   <g id="PolyCollection_2">
    <defs>
     <path id="m3eaa1d09a2" d="M 73.832727 -38.093864 
L 73.832727 -38.016 
L 75.464157 -38.016 
L 77.095587 -38.016 
L 78.727017 -38.016 
L 80.358447 -38.016 
L 81.989877 -38.016 
L 83.621307 -38.016 
L 85.252736 -38.016 
L 86.884166 -38.016 
L 88.515596 -38.016 
L 90.147026 -38.016 
L 91.778456 -38.016 
L 93.409886 -38.016 
L 95.041316 -38.016 
L 96.672746 -38.016 
L 98.304175 -38.016 
L 99.935605 -38.016 
L 101.567035 -38.016 
L 103.198465 -38.016 
L 104.829895 -38.016 
L 106.461325 -38.016 
L 108.092755 -38.016 
L 109.724185 -38.016 
L 111.355614 -38.016 
L 112.987044 -38.016 
L 114.618474 -38.016 
L 116.249904 -38.016 
L 117.881334 -38.016 
L 119.512764 -38.016 
L 121.144194 -38.016 
L 122.775624 -38.016 
L 124.407053 -38.016 
L 126.038483 -38.016 
L 127.669913 -38.016 
L 129.301343 -38.016 
L 130.932773 -38.016 
L 132.564203 -38.016 
L 134.195633 -38.016 
L 135.827063 -38.016 
L 137.458492 -38.016 
L 139.089922 -38.016 
L 140.721352 -38.016 
L 142.352782 -38.016 
L 143.984212 -38.016 
L 145.615642 -38.016 
L 147.247072 -38.016 
L 148.878502 -38.016 
L 150.509931 -38.016 
L 152.141361 -38.016 
L 153.772791 -38.016 
L 155.404221 -38.016 
L 157.035651 -38.016 
L 158.667081 -38.016 
L 160.298511 -38.016 
L 161.929941 -38.016 
L 163.56137 -38.016 
L 165.1928 -38.016 
L 166.82423 -38.016 
L 168.45566 -38.016 
L 170.08709 -38.016 
L 171.71852 -38.016 
L 173.34995 -38.016 
L 174.98138 -38.016 
L 176.61281 -38.016 
L 178.244239 -38.016 
L 179.875669 -38.016 
L 181.507099 -38.016 
L 183.138529 -38.016 
L 184.769959 -38.016 
L 186.401389 -38.016 
L 188.032819 -38.016 
L 189.664249 -38.016 
L 191.295678 -38.016 
L 192.927108 -38.016 
L 194.558538 -38.016 
L 196.189968 -38.016 
L 197.821398 -38.016 
L 199.452828 -38.016 
L 201.084258 -38.016 
L 202.715688 -38.016 
L 204.347117 -38.016 
L 205.978547 -38.016 
L 207.609977 -38.016 
L 209.241407 -38.016 
L 210.872837 -38.016 
L 212.504267 -38.016 
L 214.135697 -38.016 
L 215.767127 -38.016 
L 217.398556 -38.016 
L 219.029986 -38.016 
L 220.661416 -38.016 
L 222.292846 -38.016 
L 223.924276 -38.016 
L 225.555706 -38.016 
L 227.187136 -38.016 
L 228.818566 -38.016 
L 230.449995 -38.016 
L 232.081425 -38.016 
L 233.712855 -38.016 
L 235.344285 -38.016 
L 236.975715 -38.016 
L 238.607145 -38.016 
L 240.238575 -38.016 
L 241.870005 -38.016 
L 243.501434 -38.016 
L 245.132864 -38.016 
L 246.764294 -38.016 
L 248.395724 -38.016 
L 250.027154 -38.016 
L 251.658584 -38.016 
L 253.290014 -38.016 
L 254.921444 -38.016 
L 256.552873 -38.016 
L 258.184303 -38.016 
L 259.815733 -38.016 
L 261.447163 -38.016 
L 263.078593 -38.016 
L 264.710023 -38.016 
L 266.341453 -38.016 
L 267.972883 -38.016 
L 269.604312 -38.016 
L 271.235742 -38.016 
L 272.867172 -38.016 
L 274.498602 -38.016 
L 276.130032 -38.016 
L 277.761462 -38.016 
L 279.392892 -38.016 
L 281.024322 -38.016 
L 282.655751 -38.016 
L 284.287181 -38.016 
L 285.918611 -38.016 
L 287.550041 -38.016 
L 289.181471 -38.016 
L 290.812901 -38.016 
L 292.444331 -38.016 
L 294.075761 -38.016 
L 295.70719 -38.016 
L 297.33862 -38.016 
L 298.97005 -38.016 
L 300.60148 -38.016 
L 302.23291 -38.016 
L 303.86434 -38.016 
L 305.49577 -38.016 
L 307.1272 -38.016 
L 308.75863 -38.016 
L 310.390059 -38.016 
L 312.021489 -38.016 
L 313.652919 -38.016 
L 315.284349 -38.016 
L 316.915779 -38.016 
L 318.547209 -38.016 
L 320.178639 -38.016 
L 321.810069 -38.016 
L 323.441498 -38.016 
L 325.072928 -38.016 
L 326.704358 -38.016 
L 328.335788 -38.016 
L 329.967218 -38.016 
L 331.598648 -38.016 
L 333.230078 -38.016 
L 334.861508 -38.016 
L 336.492937 -38.016 
L 338.124367 -38.016 
L 339.755797 -38.016 
L 341.387227 -38.016 
L 343.018657 -38.016 
L 344.650087 -38.016 
L 346.281517 -38.016 
L 347.912947 -38.016 
L 349.544376 -38.016 
L 351.175806 -38.016 
L 352.807236 -38.016 
L 354.438666 -38.016 
L 356.070096 -38.016 
L 357.701526 -38.016 
L 359.332956 -38.016 
L 360.964386 -38.016 
L 362.595815 -38.016 
L 364.227245 -38.016 
L 365.858675 -38.016 
L 367.490105 -38.016 
L 369.121535 -38.016 
L 370.752965 -38.016 
L 372.384395 -38.016 
L 374.015825 -38.016 
L 375.647254 -38.016 
L 377.278684 -38.016 
L 378.910114 -38.016 
L 380.541544 -38.016 
L 382.172974 -38.016 
L 383.804404 -38.016 
L 385.435834 -38.016 
L 387.067264 -38.016 
L 388.698693 -38.016 
L 390.330123 -38.016 
L 391.961553 -38.016 
L 393.592983 -38.016 
L 395.224413 -38.016 
L 396.855843 -38.016 
L 398.487273 -38.016 
L 398.487273 -38.036545 
L 398.487273 -38.036545 
L 396.855843 -38.046726 
L 395.224413 -38.061094 
L 393.592983 -38.080944 
L 391.961553 -38.107785 
L 390.330123 -38.143298 
L 388.698693 -38.189253 
L 387.067264 -38.247396 
L 385.435834 -38.319279 
L 383.804404 -38.40607 
L 382.172974 -38.508331 
L 380.541544 -38.625799 
L 378.910114 -38.757195 
L 377.278684 -38.900092 
L 375.647254 -39.050866 
L 374.015825 -39.204772 
L 372.384395 -39.356136 
L 370.752965 -39.498683 
L 369.121535 -39.625966 
L 367.490105 -39.731878 
L 365.858675 -39.811174 
L 364.227245 -39.859972 
L 362.595815 -39.876158 
L 360.964386 -39.859653 
L 359.332956 -39.812516 
L 357.701526 -39.738859 
L 356.070096 -39.644592 
L 354.438666 -39.537032 
L 352.807236 -39.424401 
L 351.175806 -39.315283 
L 349.544376 -39.218078 
L 347.912947 -39.140498 
L 346.281517 -39.089133 
L 344.650087 -39.069114 
L 343.018657 -39.083878 
L 341.387227 -39.135031 
L 339.755797 -39.222306 
L 338.124367 -39.343618 
L 336.492937 -39.495184 
L 334.861508 -39.671732 
L 333.230078 -39.866759 
L 331.598648 -40.072844 
L 329.967218 -40.281999 
L 328.335788 -40.486031 
L 326.704358 -40.676915 
L 325.072928 -40.847139 
L 323.441498 -40.990016 
L 321.810069 -41.099948 
L 320.178639 -41.172639 
L 318.547209 -41.205248 
L 316.915779 -41.196486 
L 315.284349 -41.146663 
L 313.652919 -41.057679 
L 312.021489 -40.932973 
L 310.390059 -40.777414 
L 308.75863 -40.597158 
L 307.1272 -40.399446 
L 305.49577 -40.192374 
L 303.86434 -39.984632 
L 302.23291 -39.785227 
L 300.60148 -39.603208 
L 298.97005 -39.44739 
L 297.33862 -39.326097 
L 295.70719 -39.246909 
L 294.075761 -39.216412 
L 292.444331 -39.239937 
L 290.812901 -39.321275 
L 289.181471 -39.462374 
L 287.550041 -39.66302 
L 285.918611 -39.920532 
L 284.287181 -40.229516 
L 282.655751 -40.581723 
L 281.024322 -40.966073 
L 279.392892 -41.368902 
L 277.761462 -41.774446 
L 276.130032 -42.165576 
L 274.498602 -42.524763 
L 272.867172 -42.835187 
L 271.235742 -43.081918 
L 269.604312 -43.253044 
L 267.972883 -43.340637 
L 266.341453 -43.341448 
L 264.710023 -43.257256 
L 263.078593 -43.094833 
L 261.447163 -42.86552 
L 259.815733 -42.584461 
L 258.184303 -42.269567 
L 256.552873 -41.94031 
L 254.921444 -41.616454 
L 253.290014 -41.316825 
L 251.658584 -41.058202 
L 250.027154 -40.854423 
L 248.395724 -40.715717 
L 246.764294 -40.648321 
L 245.132864 -40.654374 
L 243.501434 -40.732082 
L 241.870005 -40.876138 
L 240.238575 -41.078377 
L 238.607145 -41.328608 
L 236.975715 -41.615587 
L 235.344285 -41.928065 
L 233.712855 -42.255828 
L 232.081425 -42.590664 
L 230.449995 -42.927161 
L 228.818566 -43.263268 
L 227.187136 -43.600577 
L 225.555706 -43.944268 
L 223.924276 -44.302747 
L 222.292846 -44.686988 
L 220.661416 -45.109651 
L 219.029986 -45.584061 
L 217.398556 -46.123141 
L 215.767127 -46.738423 
L 214.135697 -47.439222 
L 212.504267 -48.232099 
L 210.872837 -49.120659 
L 209.241407 -50.105783 
L 207.609977 -51.186297 
L 205.978547 -52.360114 
L 204.347117 -53.625805 
L 202.715688 -54.984537 
L 201.084258 -56.44228 
L 199.452828 -58.012125 
L 197.821398 -59.71653 
L 196.189968 -61.589259 
L 194.558538 -63.676771 
L 192.927108 -66.038802 
L 191.295678 -68.747881 
L 189.664249 -71.887592 
L 188.032819 -75.549415 
L 186.401389 -79.828091 
L 184.769959 -84.81558 
L 183.138529 -90.593787 
L 181.507099 -97.226396 
L 179.875669 -104.750315 
L 178.244239 -113.167355 
L 176.61281 -122.436887 
L 174.98138 -132.470278 
L 173.34995 -143.127898 
L 171.71852 -154.219384 
L 170.08709 -165.50766 
L 168.45566 -176.716924 
L 166.82423 -187.544463 
L 165.1928 -197.67575 
L 163.56137 -206.801902 
L 161.929941 -214.638216 
L 160.298511 -220.942291 
L 158.667081 -225.530142 
L 157.035651 -228.288778 
L 155.404221 -229.184005 
L 153.772791 -228.262573 
L 152.141361 -225.648371 
L 150.509931 -221.532879 
L 148.878502 -216.160723 
L 147.247072 -209.811602 
L 145.615642 -202.780236 
L 143.984212 -195.356136 
L 142.352782 -187.804964 
L 140.721352 -180.353029 
L 139.089922 -173.176084 
L 137.458492 -166.393137 
L 135.827063 -160.065415 
L 134.195633 -154.200169 
L 132.564203 -148.758536 
L 130.932773 -143.666395 
L 129.301343 -138.826934 
L 127.669913 -134.13365 
L 126.038483 -129.482589 
L 124.407053 -124.782817 
L 122.775624 -119.964428 
L 121.144194 -114.983667 
L 119.512764 -109.825097 
L 117.881334 -104.500971 
L 116.249904 -99.048262 
L 114.618474 -93.523878 
L 112.987044 -87.998746 
L 111.355614 -82.5514 
L 109.724185 -77.261692 
L 108.092755 -72.205114 
L 106.461325 -67.448123 
L 104.829895 -63.044682 
L 103.198465 -59.034125 
L 101.567035 -55.440312 
L 99.935605 -52.271939 
L 98.304175 -49.523799 
L 96.672746 -47.178767 
L 95.041316 -45.210219 
L 93.409886 -43.584661 
L 91.778456 -42.264327 
L 90.147026 -41.209582 
L 88.515596 -40.380976 
L 86.884166 -39.740896 
L 85.252736 -39.254765 
L 83.621307 -38.891812 
L 81.989877 -38.625452 
L 80.358447 -38.433338 
L 78.727017 -38.297175 
L 77.095587 -38.20235 
L 75.464157 -38.137471 
L 73.832727 -38.093864 
z
" style="stroke: #1f77b4"/>
    </defs>
    <g clip-path="url(#p03f69b145b)">
     <use xlink:href="#m3eaa1d09a2" x="0" y="345.6" style="fill: #1f77b4; fill-opacity: 0.25; stroke: #1f77b4"/>
    </g>
   </g>
   <g id="matplotlib.axis_1">
    <g id="xtick_1">
     <g id="line2d_1">
      <defs>
       <path id="m3367019ba6" d="M 0 0 
L 0 3.5 
" style="stroke: #000000; stroke-width: 0.8"/>
      </defs>
      <g>
       <use xlink:href="#m3367019ba6" x="81.138029" y="307.584" style="stroke: #000000; stroke-width: 0.8"/>
      </g>
     </g>
     <g id="text_1">
      <!-- 0.45 -->
      <g transform="translate(70.005217 322.182437) scale(0.1 -0.1)">
       <defs>
        <path id="DejaVuSans-30" d="M 2034 4250 
Q 1547 4250 1301 3770 
Q 1056 3291 1056 2328 
Q 1056 1369 1301 889 
Q 1547 409 2034 409 
Q 2525 409 2770 889 
Q 3016 1369 3016 2328 
Q 3016 3291 2770 3770 
Q 2525 4250 2034 4250 
z
M 2034 4750 
Q 2819 4750 3233 4129 
Q 3647 3509 3647 2328 
Q 3647 1150 3233 529 
Q 2819 -91 2034 -91 
Q 1250 -91 836 529 
Q 422 1150 422 2328 
Q 422 3509 836 4129 
Q 1250 4750 2034 4750 
z
" transform="scale(0.015625)"/>
        <path id="DejaVuSans-2e" d="M 684 794 
L 1344 794 
L 1344 0 
L 684 0 
L 684 794 
z
" transform="scale(0.015625)"/>
        <path id="DejaVuSans-34" d="M 2419 4116 
L 825 1625 
L 2419 1625 
L 2419 4116 
z
M 2253 4666 
L 3047 4666 
L 3047 1625 
L 3713 1625 
L 3713 1100 
L 3047 1100 
L 3047 0 
L 2419 0 
L 2419 1100 
L 313 1100 
L 313 1709 
L 2253 4666 
z
" transform="scale(0.015625)"/>
        <path id="DejaVuSans-35" d="M 691 4666 
L 3169 4666 
L 3169 4134 
L 1269 4134 
L 1269 2991 
Q 1406 3038 1543 3061 
Q 1681 3084 1819 3084 
Q 2600 3084 3056 2656 
Q 3513 2228 3513 1497 
Q 3513 744 3044 326 
Q 2575 -91 1722 -91 
Q 1428 -91 1123 -41 
Q 819 9 494 109 
L 494 744 
Q 775 591 1075 516 
Q 1375 441 1709 441 
Q 2250 441 2565 725 
Q 2881 1009 2881 1497 
Q 2881 1984 2565 2268 
Q 2250 2553 1709 2553 
Q 1456 2553 1204 2497 
Q 953 2441 691 2322 
L 691 4666 
z
" transform="scale(0.015625)"/>
       </defs>
       <use xlink:href="#DejaVuSans-30"/>
       <use xlink:href="#DejaVuSans-2e" x="63.623047"/>
       <use xlink:href="#DejaVuSans-34" x="95.410156"/>
       <use xlink:href="#DejaVuSans-35" x="159.033203"/>
      </g>
     </g>
    </g>
    <g id="xtick_2">
     <g id="line2d_2">
      <g>
       <use xlink:href="#m3367019ba6" x="156.57968" y="307.584" style="stroke: #000000; stroke-width: 0.8"/>
      </g>
     </g>
     <g id="text_2">
      <!-- 0.50 -->
      <g transform="translate(145.446867 322.182437) scale(0.1 -0.1)">
       <use xlink:href="#DejaVuSans-30"/>
       <use xlink:href="#DejaVuSans-2e" x="63.623047"/>
       <use xlink:href="#DejaVuSans-35" x="95.410156"/>
       <use xlink:href="#DejaVuSans-30" x="159.033203"/>
      </g>
     </g>
    </g>
    <g id="xtick_3">
     <g id="line2d_3">
      <g>
       <use xlink:href="#m3367019ba6" x="232.02133" y="307.584" style="stroke: #000000; stroke-width: 0.8"/>
      </g>
     </g>
     <g id="text_3">
      <!-- 0.55 -->
      <g transform="translate(220.888517 322.182437) scale(0.1 -0.1)">
       <use xlink:href="#DejaVuSans-30"/>
       <use xlink:href="#DejaVuSans-2e" x="63.623047"/>
       <use xlink:href="#DejaVuSans-35" x="95.410156"/>
       <use xlink:href="#DejaVuSans-35" x="159.033203"/>
      </g>
     </g>
    </g>
    <g id="xtick_4">
     <g id="line2d_4">
      <g>
       <use xlink:href="#m3367019ba6" x="307.46298" y="307.584" style="stroke: #000000; stroke-width: 0.8"/>
      </g>
     </g>
     <g id="text_4">
      <!-- 0.60 -->
      <g transform="translate(296.330168 322.182437) scale(0.1 -0.1)">
       <defs>
        <path id="DejaVuSans-36" d="M 2113 2584 
Q 1688 2584 1439 2293 
Q 1191 2003 1191 1497 
Q 1191 994 1439 701 
Q 1688 409 2113 409 
Q 2538 409 2786 701 
Q 3034 994 3034 1497 
Q 3034 2003 2786 2293 
Q 2538 2584 2113 2584 
z
M 3366 4563 
L 3366 3988 
Q 3128 4100 2886 4159 
Q 2644 4219 2406 4219 
Q 1781 4219 1451 3797 
Q 1122 3375 1075 2522 
Q 1259 2794 1537 2939 
Q 1816 3084 2150 3084 
Q 2853 3084 3261 2657 
Q 3669 2231 3669 1497 
Q 3669 778 3244 343 
Q 2819 -91 2113 -91 
Q 1303 -91 875 529 
Q 447 1150 447 2328 
Q 447 3434 972 4092 
Q 1497 4750 2381 4750 
Q 2619 4750 2861 4703 
Q 3103 4656 3366 4563 
z
" transform="scale(0.015625)"/>
       </defs>
       <use xlink:href="#DejaVuSans-30"/>
       <use xlink:href="#DejaVuSans-2e" x="63.623047"/>
       <use xlink:href="#DejaVuSans-36" x="95.410156"/>
       <use xlink:href="#DejaVuSans-30" x="159.033203"/>
      </g>
     </g>
    </g>
    <g id="xtick_5">
     <g id="line2d_5">
      <g>
       <use xlink:href="#m3367019ba6" x="382.904631" y="307.584" style="stroke: #000000; stroke-width: 0.8"/>
      </g>
     </g>
     <g id="text_5">
      <!-- 0.65 -->
      <g transform="translate(371.771818 322.182437) scale(0.1 -0.1)">
       <use xlink:href="#DejaVuSans-30"/>
       <use xlink:href="#DejaVuSans-2e" x="63.623047"/>
       <use xlink:href="#DejaVuSans-36" x="95.410156"/>
       <use xlink:href="#DejaVuSans-35" x="159.033203"/>
      </g>
     </g>
    </g>
    <g id="text_6">
     <!-- Loss -->
     <g transform="translate(225.192813 335.860562) scale(0.1 -0.1)">
      <defs>
       <path id="DejaVuSans-4c" d="M 628 4666 
L 1259 4666 
L 1259 531 
L 3531 531 
L 3531 0 
L 628 0 
L 628 4666 
z
" transform="scale(0.015625)"/>
       <path id="DejaVuSans-6f" d="M 1959 3097 
Q 1497 3097 1228 2736 
Q 959 2375 959 1747 
Q 959 1119 1226 758 
Q 1494 397 1959 397 
Q 2419 397 2687 759 
Q 2956 1122 2956 1747 
Q 2956 2369 2687 2733 
Q 2419 3097 1959 3097 
z
M 1959 3584 
Q 2709 3584 3137 3096 
Q 3566 2609 3566 1747 
Q 3566 888 3137 398 
Q 2709 -91 1959 -91 
Q 1206 -91 779 398 
Q 353 888 353 1747 
Q 353 2609 779 3096 
Q 1206 3584 1959 3584 
z
" transform="scale(0.015625)"/>
       <path id="DejaVuSans-73" d="M 2834 3397 
L 2834 2853 
Q 2591 2978 2328 3040 
Q 2066 3103 1784 3103 
Q 1356 3103 1142 2972 
Q 928 2841 928 2578 
Q 928 2378 1081 2264 
Q 1234 2150 1697 2047 
L 1894 2003 
Q 2506 1872 2764 1633 
Q 3022 1394 3022 966 
Q 3022 478 2636 193 
Q 2250 -91 1575 -91 
Q 1294 -91 989 -36 
Q 684 19 347 128 
L 347 722 
Q 666 556 975 473 
Q 1284 391 1588 391 
Q 1994 391 2212 530 
Q 2431 669 2431 922 
Q 2431 1156 2273 1281 
Q 2116 1406 1581 1522 
L 1381 1569 
Q 847 1681 609 1914 
Q 372 2147 372 2553 
Q 372 3047 722 3315 
Q 1072 3584 1716 3584 
Q 2034 3584 2315 3537 
Q 2597 3491 2834 3397 
z
" transform="scale(0.015625)"/>
      </defs>
      <use xlink:href="#DejaVuSans-4c"/>
      <use xlink:href="#DejaVuSans-6f" x="53.962891"/>
      <use xlink:href="#DejaVuSans-73" x="115.144531"/>
      <use xlink:href="#DejaVuSans-73" x="167.244141"/>
     </g>
    </g>
   </g>
   <g id="matplotlib.axis_2">
    <g id="ytick_1">
     <g id="line2d_6">
      <defs>
       <path id="m4e795e49cf" d="M 0 0 
L -3.5 0 
" style="stroke: #000000; stroke-width: 0.8"/>
      </defs>
      <g>
       <use xlink:href="#m4e795e49cf" x="57.6" y="307.584" style="stroke: #000000; stroke-width: 0.8"/>
      </g>
     </g>
     <g id="text_7">
      <!-- 0.0 -->
      <g transform="translate(34.696875 311.383219) scale(0.1 -0.1)">
       <use xlink:href="#DejaVuSans-30"/>
       <use xlink:href="#DejaVuSans-2e" x="63.623047"/>
       <use xlink:href="#DejaVuSans-30" x="95.410156"/>
      </g>
     </g>
    </g>
    <g id="ytick_2">
     <g id="line2d_7">
      <g>
       <use xlink:href="#m4e795e49cf" x="57.6" y="272.903046" style="stroke: #000000; stroke-width: 0.8"/>
      </g>
     </g>
     <g id="text_8">
      <!-- 2.5 -->
      <g transform="translate(34.696875 276.702265) scale(0.1 -0.1)">
       <defs>
        <path id="DejaVuSans-32" d="M 1228 531 
L 3431 531 
L 3431 0 
L 469 0 
L 469 531 
Q 828 903 1448 1529 
Q 2069 2156 2228 2338 
Q 2531 2678 2651 2914 
Q 2772 3150 2772 3378 
Q 2772 3750 2511 3984 
Q 2250 4219 1831 4219 
Q 1534 4219 1204 4116 
Q 875 4013 500 3803 
L 500 4441 
Q 881 4594 1212 4672 
Q 1544 4750 1819 4750 
Q 2544 4750 2975 4387 
Q 3406 4025 3406 3419 
Q 3406 3131 3298 2873 
Q 3191 2616 2906 2266 
Q 2828 2175 2409 1742 
Q 1991 1309 1228 531 
z
" transform="scale(0.015625)"/>
       </defs>
       <use xlink:href="#DejaVuSans-32"/>
       <use xlink:href="#DejaVuSans-2e" x="63.623047"/>
       <use xlink:href="#DejaVuSans-35" x="95.410156"/>
      </g>
     </g>
    </g>
    <g id="ytick_3">
     <g id="line2d_8">
      <g>
       <use xlink:href="#m4e795e49cf" x="57.6" y="238.222092" style="stroke: #000000; stroke-width: 0.8"/>
      </g>
     </g>
     <g id="text_9">
      <!-- 5.0 -->
      <g transform="translate(34.696875 242.02131) scale(0.1 -0.1)">
       <use xlink:href="#DejaVuSans-35"/>
       <use xlink:href="#DejaVuSans-2e" x="63.623047"/>
       <use xlink:href="#DejaVuSans-30" x="95.410156"/>
      </g>
     </g>
    </g>
    <g id="ytick_4">
     <g id="line2d_9">
      <g>
       <use xlink:href="#m4e795e49cf" x="57.6" y="203.541137" style="stroke: #000000; stroke-width: 0.8"/>
      </g>
     </g>
     <g id="text_10">
      <!-- 7.5 -->
      <g transform="translate(34.696875 207.340356) scale(0.1 -0.1)">
       <defs>
        <path id="DejaVuSans-37" d="M 525 4666 
L 3525 4666 
L 3525 4397 
L 1831 0 
L 1172 0 
L 2766 4134 
L 525 4134 
L 525 4666 
z
" transform="scale(0.015625)"/>
       </defs>
       <use xlink:href="#DejaVuSans-37"/>
       <use xlink:href="#DejaVuSans-2e" x="63.623047"/>
       <use xlink:href="#DejaVuSans-35" x="95.410156"/>
      </g>
     </g>
    </g>
    <g id="ytick_5">
     <g id="line2d_10">
      <g>
       <use xlink:href="#m4e795e49cf" x="57.6" y="168.860183" style="stroke: #000000; stroke-width: 0.8"/>
      </g>
     </g>
     <g id="text_11">
      <!-- 10.0 -->
      <g transform="translate(28.334375 172.659402) scale(0.1 -0.1)">
       <defs>
        <path id="DejaVuSans-31" d="M 794 531 
L 1825 531 
L 1825 4091 
L 703 3866 
L 703 4441 
L 1819 4666 
L 2450 4666 
L 2450 531 
L 3481 531 
L 3481 0 
L 794 0 
L 794 531 
z
" transform="scale(0.015625)"/>
       </defs>
       <use xlink:href="#DejaVuSans-31"/>
       <use xlink:href="#DejaVuSans-30" x="63.623047"/>
       <use xlink:href="#DejaVuSans-2e" x="127.246094"/>
       <use xlink:href="#DejaVuSans-30" x="159.033203"/>
      </g>
     </g>
    </g>
    <g id="ytick_6">
     <g id="line2d_11">
      <g>
       <use xlink:href="#m4e795e49cf" x="57.6" y="134.179229" style="stroke: #000000; stroke-width: 0.8"/>
      </g>
     </g>
     <g id="text_12">
      <!-- 12.5 -->
      <g transform="translate(28.334375 137.978448) scale(0.1 -0.1)">
       <use xlink:href="#DejaVuSans-31"/>
       <use xlink:href="#DejaVuSans-32" x="63.623047"/>
       <use xlink:href="#DejaVuSans-2e" x="127.246094"/>
       <use xlink:href="#DejaVuSans-35" x="159.033203"/>
      </g>
     </g>
    </g>
    <g id="ytick_7">
     <g id="line2d_12">
      <g>
       <use xlink:href="#m4e795e49cf" x="57.6" y="99.498275" style="stroke: #000000; stroke-width: 0.8"/>
      </g>
     </g>
     <g id="text_13">
      <!-- 15.0 -->
      <g transform="translate(28.334375 103.297494) scale(0.1 -0.1)">
       <use xlink:href="#DejaVuSans-31"/>
       <use xlink:href="#DejaVuSans-35" x="63.623047"/>
       <use xlink:href="#DejaVuSans-2e" x="127.246094"/>
       <use xlink:href="#DejaVuSans-30" x="159.033203"/>
      </g>
     </g>
    </g>
    <g id="ytick_8">
     <g id="line2d_13">
      <g>
       <use xlink:href="#m4e795e49cf" x="57.6" y="64.817321" style="stroke: #000000; stroke-width: 0.8"/>
      </g>
     </g>
     <g id="text_14">
      <!-- 17.5 -->
      <g transform="translate(28.334375 68.616539) scale(0.1 -0.1)">
       <use xlink:href="#DejaVuSans-31"/>
       <use xlink:href="#DejaVuSans-37" x="63.623047"/>
       <use xlink:href="#DejaVuSans-2e" x="127.246094"/>
       <use xlink:href="#DejaVuSans-35" x="159.033203"/>
      </g>
     </g>
    </g>
    <g id="text_15">
     <!-- Density -->
     <g transform="translate(22.254687 193.536594) rotate(-90) scale(0.1 -0.1)">
      <defs>
       <path id="DejaVuSans-44" d="M 1259 4147 
L 1259 519 
L 2022 519 
Q 2988 519 3436 956 
Q 3884 1394 3884 2338 
Q 3884 3275 3436 3711 
Q 2988 4147 2022 4147 
L 1259 4147 
z
M 628 4666 
L 1925 4666 
Q 3281 4666 3915 4102 
Q 4550 3538 4550 2338 
Q 4550 1131 3912 565 
Q 3275 0 1925 0 
L 628 0 
L 628 4666 
z
" transform="scale(0.015625)"/>
       <path id="DejaVuSans-65" d="M 3597 1894 
L 3597 1613 
L 953 1613 
Q 991 1019 1311 708 
Q 1631 397 2203 397 
Q 2534 397 2845 478 
Q 3156 559 3463 722 
L 3463 178 
Q 3153 47 2828 -22 
Q 2503 -91 2169 -91 
Q 1331 -91 842 396 
Q 353 884 353 1716 
Q 353 2575 817 3079 
Q 1281 3584 2069 3584 
Q 2775 3584 3186 3129 
Q 3597 2675 3597 1894 
z
M 3022 2063 
Q 3016 2534 2758 2815 
Q 2500 3097 2075 3097 
Q 1594 3097 1305 2825 
Q 1016 2553 972 2059 
L 3022 2063 
z
" transform="scale(0.015625)"/>
       <path id="DejaVuSans-6e" d="M 3513 2113 
L 3513 0 
L 2938 0 
L 2938 2094 
Q 2938 2591 2744 2837 
Q 2550 3084 2163 3084 
Q 1697 3084 1428 2787 
Q 1159 2491 1159 1978 
L 1159 0 
L 581 0 
L 581 3500 
L 1159 3500 
L 1159 2956 
Q 1366 3272 1645 3428 
Q 1925 3584 2291 3584 
Q 2894 3584 3203 3211 
Q 3513 2838 3513 2113 
z
" transform="scale(0.015625)"/>
       <path id="DejaVuSans-69" d="M 603 3500 
L 1178 3500 
L 1178 0 
L 603 0 
L 603 3500 
z
M 603 4863 
L 1178 4863 
L 1178 4134 
L 603 4134 
L 603 4863 
z
" transform="scale(0.015625)"/>
       <path id="DejaVuSans-74" d="M 1172 4494 
L 1172 3500 
L 2356 3500 
L 2356 3053 
L 1172 3053 
L 1172 1153 
Q 1172 725 1289 603 
Q 1406 481 1766 481 
L 2356 481 
L 2356 0 
L 1766 0 
Q 1100 0 847 248 
Q 594 497 594 1153 
L 594 3053 
L 172 3053 
L 172 3500 
L 594 3500 
L 594 4494 
L 1172 4494 
z
" transform="scale(0.015625)"/>
       <path id="DejaVuSans-79" d="M 2059 -325 
Q 1816 -950 1584 -1140 
Q 1353 -1331 966 -1331 
L 506 -1331 
L 506 -850 
L 844 -850 
Q 1081 -850 1212 -737 
Q 1344 -625 1503 -206 
L 1606 56 
L 191 3500 
L 800 3500 
L 1894 763 
L 2988 3500 
L 3597 3500 
L 2059 -325 
z
" transform="scale(0.015625)"/>
      </defs>
      <use xlink:href="#DejaVuSans-44"/>
      <use xlink:href="#DejaVuSans-65" x="77.001953"/>
      <use xlink:href="#DejaVuSans-6e" x="138.525391"/>
      <use xlink:href="#DejaVuSans-73" x="201.904297"/>
      <use xlink:href="#DejaVuSans-69" x="254.003906"/>
      <use xlink:href="#DejaVuSans-74" x="281.787109"/>
      <use xlink:href="#DejaVuSans-79" x="320.996094"/>
     </g>
    </g>
   </g>
   <g id="patch_3">
    <path d="M 57.6 307.584 
L 57.6 41.472 
" style="fill: none; stroke: #000000; stroke-width: 0.8; stroke-linejoin: miter; stroke-linecap: square"/>
   </g>
   <g id="patch_4">
    <path d="M 414.72 307.584 
L 414.72 41.472 
" style="fill: none; stroke: #000000; stroke-width: 0.8; stroke-linejoin: miter; stroke-linecap: square"/>
   </g>
   <g id="patch_5">
    <path d="M 57.6 307.584 
L 414.72 307.584 
" style="fill: none; stroke: #000000; stroke-width: 0.8; stroke-linejoin: miter; stroke-linecap: square"/>
   </g>
   <g id="patch_6">
    <path d="M 57.6 41.472 
L 414.72 41.472 
" style="fill: none; stroke: #000000; stroke-width: 0.8; stroke-linejoin: miter; stroke-linecap: square"/>
   </g>
   <g id="legend_1">
    <g id="patch_7">
     <path d="M 318.216875 78.82825 
L 407.72 78.82825 
Q 409.72 78.82825 409.72 76.82825 
L 409.72 48.472 
Q 409.72 46.472 407.72 46.472 
L 318.216875 46.472 
Q 316.216875 46.472 316.216875 48.472 
L 316.216875 76.82825 
Q 316.216875 78.82825 318.216875 78.82825 
z
" style="fill: #ffffff; opacity: 0.8; stroke: #cccccc; stroke-linejoin: miter"/>
    </g>
    <g id="patch_8">
     <path d="M 320.216875 58.070437 
L 340.216875 58.070437 
L 340.216875 51.070437 
L 320.216875 51.070437 
z
" style="fill: #1f77b4; fill-opacity: 0.25; stroke: #1f77b4; stroke-linejoin: miter"/>
    </g>
    <g id="text_16">
     <!-- two rounds -->
     <g transform="translate(348.216875 58.070437) scale(0.1 -0.1)">
      <defs>
       <path id="DejaVuSans-77" d="M 269 3500 
L 844 3500 
L 1563 769 
L 2278 3500 
L 2956 3500 
L 3675 769 
L 4391 3500 
L 4966 3500 
L 4050 0 
L 3372 0 
L 2619 2869 
L 1863 0 
L 1184 0 
L 269 3500 
z
" transform="scale(0.015625)"/>
       <path id="DejaVuSans-20" transform="scale(0.015625)"/>
       <path id="DejaVuSans-72" d="M 2631 2963 
Q 2534 3019 2420 3045 
Q 2306 3072 2169 3072 
Q 1681 3072 1420 2755 
Q 1159 2438 1159 1844 
L 1159 0 
L 581 0 
L 581 3500 
L 1159 3500 
L 1159 2956 
Q 1341 3275 1631 3429 
Q 1922 3584 2338 3584 
Q 2397 3584 2469 3576 
Q 2541 3569 2628 3553 
L 2631 2963 
z
" transform="scale(0.015625)"/>
       <path id="DejaVuSans-75" d="M 544 1381 
L 544 3500 
L 1119 3500 
L 1119 1403 
Q 1119 906 1312 657 
Q 1506 409 1894 409 
Q 2359 409 2629 706 
Q 2900 1003 2900 1516 
L 2900 3500 
L 3475 3500 
L 3475 0 
L 2900 0 
L 2900 538 
Q 2691 219 2414 64 
Q 2138 -91 1772 -91 
Q 1169 -91 856 284 
Q 544 659 544 1381 
z
M 1991 3584 
L 1991 3584 
z
" transform="scale(0.015625)"/>
       <path id="DejaVuSans-64" d="M 2906 2969 
L 2906 4863 
L 3481 4863 
L 3481 0 
L 2906 0 
L 2906 525 
Q 2725 213 2448 61 
Q 2172 -91 1784 -91 
Q 1150 -91 751 415 
Q 353 922 353 1747 
Q 353 2572 751 3078 
Q 1150 3584 1784 3584 
Q 2172 3584 2448 3432 
Q 2725 3281 2906 2969 
z
M 947 1747 
Q 947 1113 1208 752 
Q 1469 391 1925 391 
Q 2381 391 2643 752 
Q 2906 1113 2906 1747 
Q 2906 2381 2643 2742 
Q 2381 3103 1925 3103 
Q 1469 3103 1208 2742 
Q 947 2381 947 1747 
z
" transform="scale(0.015625)"/>
      </defs>
      <use xlink:href="#DejaVuSans-74"/>
      <use xlink:href="#DejaVuSans-77" x="39.208984"/>
      <use xlink:href="#DejaVuSans-6f" x="120.996094"/>
      <use xlink:href="#DejaVuSans-20" x="182.177734"/>
      <use xlink:href="#DejaVuSans-72" x="213.964844"/>
      <use xlink:href="#DejaVuSans-6f" x="252.828125"/>
      <use xlink:href="#DejaVuSans-75" x="314.009766"/>
      <use xlink:href="#DejaVuSans-6e" x="377.388672"/>
      <use xlink:href="#DejaVuSans-64" x="440.767578"/>
      <use xlink:href="#DejaVuSans-73" x="504.244141"/>
     </g>
    </g>
    <g id="patch_9">
     <path d="M 320.216875 72.748562 
L 340.216875 72.748562 
L 340.216875 65.748562 
L 320.216875 65.748562 
z
" style="fill: #ff7f0e; fill-opacity: 0.25; stroke: #ff7f0e; stroke-linejoin: miter"/>
    </g>
    <g id="text_17">
     <!-- four rounds -->
     <g transform="translate(348.216875 72.748562) scale(0.1 -0.1)">
      <defs>
       <path id="DejaVuSans-66" d="M 2375 4863 
L 2375 4384 
L 1825 4384 
Q 1516 4384 1395 4259 
Q 1275 4134 1275 3809 
L 1275 3500 
L 2222 3500 
L 2222 3053 
L 1275 3053 
L 1275 0 
L 697 0 
L 697 3053 
L 147 3053 
L 147 3500 
L 697 3500 
L 697 3744 
Q 697 4328 969 4595 
Q 1241 4863 1831 4863 
L 2375 4863 
z
" transform="scale(0.015625)"/>
      </defs>
      <use xlink:href="#DejaVuSans-66"/>
      <use xlink:href="#DejaVuSans-6f" x="35.205078"/>
      <use xlink:href="#DejaVuSans-75" x="96.386719"/>
      <use xlink:href="#DejaVuSans-72" x="159.765625"/>
      <use xlink:href="#DejaVuSans-20" x="200.878906"/>
      <use xlink:href="#DejaVuSans-72" x="232.666016"/>
      <use xlink:href="#DejaVuSans-6f" x="271.529297"/>
      <use xlink:href="#DejaVuSans-75" x="332.710938"/>
      <use xlink:href="#DejaVuSans-6e" x="396.089844"/>
      <use xlink:href="#DejaVuSans-64" x="459.46875"/>
      <use xlink:href="#DejaVuSans-73" x="522.945312"/>
     </g>
    </g>
   </g>
  </g>
 </g>
 <defs>
  <clipPath id="p03f69b145b">
   <rect x="57.6" y="41.472" width="357.12" height="266.112"/>
  </clipPath>
 </defs>
</svg>
